<?xml version="1.0" standalone="no"?>
<!DOCTYPE svg PUBLIC "-//W3C//DTD SVG 1.1//EN" "http://www.w3.org/Graphics/SVG/1.1/DTD/svg11.dtd" >
<svg xmlns="http://www.w3.org/2000/svg">
<metadata>
Created by FontPrep 20130207 at Fri Oct  9 11:10:21 2015
 By akella
Copyright (c) 2011 ParaType Inc., ParaType Ltd. All rights reserved.
</metadata>
<defs>
<font id="1bfd3f881768b7bc3752f8e822d5ab9f" horiz-adv-x='1024' >
  <font-face 
    font-family="Circe-Light"
    font-weight="350"
    font-stretch="normal"
    units-per-em="2048"
    panose-1="2 11 4 2 2 2 3 2 2 3"
    ascent="1583"
    descent="-465"
    x-height="922"
    cap-height="1434"
    bbox="-1069 -752 3453 2046"
    underline-thickness="102"
    underline-position="-102"
    unicode-range="U+0020-FB02"
  />
<missing-glyph horiz-adv-x="481" 
 />
    <glyph glyph-name="uniF350.var.accented" unicode="&#xf350;`" horiz-adv-x="1175" 
d="M823 1473l-256 -269l-55 58l246 290zM584 944l-230 -498h459zM35 0l506 1083h94l506 -1083h-121l-158 342h-555l-157 -342h-115z" />
    <glyph glyph-name="uniF355.var.accented" unicode="&#xf355;`" horiz-adv-x="985" 
d="M735 1473l-256 -269l-55 58l246 290zM182 0v1075h664v-106h-551v-371h502v-106h-502v-386h567v-106h-680z" />
    <glyph glyph-name="uniF358.var.accented" unicode="&#xf358;`" horiz-adv-x="1331" 
d="M887 1473l-256 -269l-56 58l246 290zM182 0v1075h113v-897l754 897h100v-1075h-113v897l-753 -897h-101z" />
    <glyph glyph-name="uniF35E.var.accented" unicode="&#xf35e;`" horiz-adv-x="1331" 
d="M891 1473l-256 -269l-55 58l245 290zM1124 537q0 193 -132 319t-328 127q-196 -1 -326 -127q-131 -126 -131 -318t132 -320t331 -128q198 0 326 127t128 320zM88 534q0 240 164 398t413 158t413 -156t165 -396q0 -240 -165 -397q-166 -157 -414 -157t-412 156t-164 394z
" />
    <glyph glyph-name="uniF363.var.accented" unicode="&#xf363;`" horiz-adv-x="1085" 
d="M784 1473l-256 -269l-55 58l246 290zM380 0q-82 0 -134 37l41 96q47 -29 92 -29q84 0 151 129l23 39l-526 803h139l444 -690l334 690h117l-406 -827q-61 -128 -127 -188t-148 -60z" />
    <glyph glyph-name="uniF36B.var.accented" unicode="&#xf36b;`" horiz-adv-x="1396" 
d="M907 1473l-256 -269l-55 58l246 290zM182 1075h113v-407q102 6 168 6q217 0 325 -86t107 -247q0 -161 -122 -253t-335 -92l-256 4v1075zM457 567q-68 0 -162 -6v-455q98 -4 156 -4q326 0 325 242q0 109 -82 166t-237 57zM1102 0v1075h112v-1075h-112z" />
    <glyph glyph-name="uniF36D.var.accented" unicode="&#xf36d;`" horiz-adv-x="1134" 
d="M702 1473l-256 -269l-55 58l246 290zM328 496v106h602q-18 180 -144 280t-328 101q-204 0 -327 -88l-47 84q139 111 389 111t412 -150t162 -398t-163 -402q-164 -154 -414 -154t-404 112l49 92q147 -98 348 -98t327 110t142 294h-604z" />
    <glyph glyph-name="uniF36E.var.accented" unicode="&#xf36e;`" horiz-adv-x="1773" 
d="M1032 1473l-256 -269l-55 58l246 290zM1567 539q0 195 -123 319t-317 125q-193 -1 -315 -125t-122 -318t122 -321t318 -127t316 126q121 126 121 321zM182 0v1075h113v-473h280q20 213 170 350q149 138 389 138t396 -154t156 -396t-156 -399q-156 -155 -396 -155
t-394 141q-153 141 -167 369h-278v-496h-113z" />
    <glyph glyph-name="uniF36F.var.accented" unicode="&#xf36f;`" horiz-adv-x="1052" 
d="M764 1473l-256 -269l-55 58l245 290zM758 508v461q-135 6 -189 6q-153 0 -231 -69t-78 -164q0 -94 68 -158t155 -76h275zM870 0h-112v401h-262l-314 -401h-133l330 420q-100 37 -169 117t-69 188q0 156 113 256t328 100l288 -6v-1075z" />
    <glyph glyph-name="uniF371.var.accented" unicode="&#xf371;`" horiz-adv-x="985" 
d="M674 1473l-256 -269l-56 58l246 290zM182 0v1075h664v-106h-551v-371h502v-106h-502v-386h567v-106h-680zM641 1352q0 29 19 47q18 18 46 18t47 -18t19 -47t-19 -47q-19 -19 -46 -19t-47 18t-19 48zM240 1352q0 29 19 47t46 18t46 -18t19 -46t-18 -47q-20 -20 -47 -20
t-46 18t-19 48z" />
    <glyph glyph-name="afii10017.var.accented" unicode="&#x410;`" horiz-adv-x="1427" 
d="M1022 1688l-373 -177l-33 64l367 203zM711 1290l-299 -696h596zM43 0l625 1446h92l624 -1446h-120l-209 487h-688l-209 -487h-115z" />
    <glyph glyph-name="afii10022.var.accented" unicode="&#x415;`" horiz-adv-x="1177" 
d="M903 1688l-373 -177l-32 64l366 203zM227 0v1434h793v-107h-680v-547h618v-106h-618v-568h700v-106h-813z" />
    <glyph glyph-name="afii10026.var.accented" unicode="&#x418;`" horiz-adv-x="1632" 
d="M1087 1688l-372 -177l-33 64l367 203zM227 0v1434h113v-1250l965 1250h100v-1434h-113v1249l-964 -1249h-101z" />
    <glyph glyph-name="afii10032.var.accented" unicode="&#x41e;`" horiz-adv-x="1658" 
d="M1108 1688l-373 -177l-33 64l367 203zM1430 718q0 270 -174 448q-174 180 -428 180q-255 0 -427 -180t-172 -448q0 -270 173 -450t430 -180t428 180q170 180 170 450zM111 714q0 316 204 527q205 211 513 211t514 -208t206 -525t-206 -527t-513 -210t-513 207
q-205 209 -205 525z" />
    <glyph glyph-name="afii10037.var.accented" unicode="&#x423;`" horiz-adv-x="1335" 
d="M991 1688l-373 -177l-32 64l366 203zM471 0q-100 0 -160 47l41 96q57 -39 115 -39q117 0 203 181l26 57l-661 1092h127l590 -979l434 979h114l-499 -1110q-76 -170 -153 -247t-177 -77z" />
    <glyph glyph-name="afii10045.var.accented" unicode="&#x42b;`" horiz-adv-x="1697" 
d="M1100 1688l-373 -177l-33 64l367 203zM227 1434h113v-566q147 10 217 11q266 0 399 -112q134 -113 134 -323t-148 -329t-412 -119l-303 4v1434zM551 772q-109 0 -211 -12v-651q190 -6 203 -7q209 0 319 88t109 252q1 164 -107 248q-108 82 -313 82zM1358 0v1434h112
v-1434h-112z" />
    <glyph glyph-name="afii10047.var.accented" unicode="&#x42d;`" horiz-adv-x="1392" 
d="M879 1688l-373 -177l-33 64l367 203zM406 678v106h761q-20 260 -188 411q-169 151 -419 151t-402 -121l-47 84q162 143 470 143q309 0 505 -198t196 -526t-199 -538q-199 -209 -524 -208q-279 0 -475 149l51 92q190 -135 437 -135t414 163t181 427h-761z" />
    <glyph glyph-name="afii10048.var.accented" unicode="&#x42e;`" horiz-adv-x="2203" 
d="M1415 1688l-373 -177l-32 64l366 203zM821 718q0 -270 164 -450t418 -180t413 178q158 178 158 450t-162 451t-414 179t-414 -178q-163 -178 -163 -450zM227 0v1434h113v-650h365q23 288 214 478t486 190t491 -207t197 -526q0 -319 -197 -529q-198 -210 -494 -208
q-296 0 -491 196t-209 500h-362v-678h-113z" />
    <glyph glyph-name="afii10049.var.accented" unicode="&#x42f;`" horiz-adv-x="1259" 
d="M1028 1688l-373 -177l-32 64l366 203zM920 668v659q-172 6 -226 6q-193 0 -295 -97q-102 -96 -102 -234t87 -227t202 -107h334zM1032 0h-112v561h-320l-407 -561h-130l426 578q-131 42 -221 150t-90 253q0 201 137 330t400 129l317 -6v-1434z" />
    <glyph glyph-name="afii10023.var.accented" unicode="&#x401;`" horiz-adv-x="1177" 
d="M227 0v1434h793v-107h-680v-547h618v-106h-618v-568h700v-106h-813zM831 1747l-299 -229l-38 24l251 236zM958 1645q0 -31 -18 -51t-44 -19q-26 -1 -44 19t-18 51t19 49t44 18t43 -18t18 -49zM361 1575q-26 -1 -44 19t-18 51t18 49t44 18t43 -18q18 -18 18 -49t-18 -51
t-43 -19z" />
    <glyph glyph-name="afii10065.var.accented" unicode="&#x430;`" horiz-adv-x="940" 
d="M705 1403l-238 -293l-66 47l222 309zM408 88q172 0 282 145v154q-100 74 -220 74t-194 -49q-74 -48 -74 -138t60 -138q58 -48 146 -48zM468 940q171 0 250 -92t79 -277v-571h-107v141q-113 -154 -315 -153q-129 0 -207 74t-78 205q0 130 98 206t252 76t250 -70
q0 237 -56 298t-185 62q-128 1 -259 -71l-28 88q135 84 306 84z" />
    <glyph glyph-name="afii10070.var.accented" unicode="&#x435;`" horiz-adv-x="1073" 
d="M770 1403l-238 -293l-65 47l221 309zM550 840q-148 0 -237 -87q-90 -87 -104 -227h663q-2 146 -88 230t-234 84zM584 -18q-217 0 -353 131q-135 131 -135 344t124 348t343 135q180 0 299 -115t119 -301q0 -49 -6 -86h-760q7 -166 109 -261t280 -95t287 113l35 -82
q-125 -131 -342 -131z" />
    <glyph glyph-name="afii10074.var.accented" unicode="&#x438;`" horiz-adv-x="1150" 
d="M782 1403l-237 -293l-66 47l221 309zM162 0v922h106v-768l615 768h106v-922h-106v768l-615 -768h-106z" />
    <glyph glyph-name="afii10080.var.accented" unicode="&#x43e;`" horiz-adv-x="1161" 
d="M793 1403l-238 -293l-66 47l222 309zM209 461q0 -167 104 -273q103 -106 267 -106t267 105t103 273t-104 273q-104 107 -265 107t-267 -106t-105 -273zM96 461q0 209 135 344t349 135t348 -135q135 -135 135 -344t-135 -344t-348 -135t-349 135q-135 135 -135 344z" />
    <glyph glyph-name="afii10085.var.accented" unicode="&#x443;`" horiz-adv-x="985" 
d="M739 1403l-237 -293l-66 47l221 309zM248 -410q-88 0 -168 48l35 81q66 -31 108 -30q70 0 125 60t115 202l20 49l-454 922h127l315 -652l66 -143q10 35 51 147l248 648h120l-372 -922q-98 -240 -173 -325t-163 -85z" />
    <glyph glyph-name="afii10093.var.accented" unicode="&#x44b;`" horiz-adv-x="1271" 
d="M825 1403l-237 -293l-66 47l221 309zM1004 0v922h106v-922h-106zM410 512h-142v-412h140q147 0 209 52t63 155q0 205 -270 205zM162 0v922h106v-310h160q365 0 365 -303q0 -135 -88 -222t-289 -87h-254z" />
    <glyph glyph-name="afii10095.var.accented" unicode="&#x44d;`" horiz-adv-x="1003" 
d="M662 1403l-238 -293l-66 47l222 309zM311 426v88h486q-15 156 -117 241t-272 85t-285 -115l-47 80q59 63 154 99t190 36q215 0 351 -131t136 -341t-131 -348t-327 -138q-242 0 -363 112l51 80q104 -92 303 -92q150 0 249 94t110 250h-488z" />
    <glyph glyph-name="afii10096.var.accented" unicode="&#x44e;`" horiz-adv-x="1536" 
d="M985 1403l-237 -293l-66 47l221 309zM625 461q0 -165 97 -269t251 -104t250 103t96 269t-96 270t-250 104t-251 -104t-97 -269zM162 0v922h112v-398h234q20 184 145 300t324 116t330 -135t131 -344t-131 -344t-332 -135t-328 122t-141 314h-232v-418h-112z" />
    <glyph glyph-name="afii10097.var.accented" unicode="&#x44f;`" horiz-adv-x="976" 
d="M793 1403l-238 -293l-66 47l222 309zM522 821q-132 0 -194 -53t-62 -137t64 -135t135 -52h244v377h-187zM541 922h274v-922h-106v344h-230l-264 -344h-131l291 369q-88 14 -155 85q-66 72 -66 188t92 198t295 82z" />
    <glyph glyph-name="afii10071.var.accented" unicode="&#x451;`" horiz-adv-x="1073" 
d="M550 840q-148 0 -237 -87q-90 -87 -104 -227h663q-2 146 -88 230t-234 84zM584 -18q-217 0 -353 131q-135 131 -135 344t124 348t343 135q180 0 299 -115t119 -301q0 -49 -6 -86h-760q7 -166 109 -261t280 -95t287 113l35 -82q-125 -131 -342 -131zM715 1403l-238 -293
l-53 37l221 309zM796 1196q-24 0 -42 16t-17 43q-1 27 17 43t42 16t40 -16t16 -43t-16 -43t-40 -16zM238 1255q0 27 17 43t41 16t40 -16t16 -43t-16 -43t-40 -16t-41 16t-17 43z" />
    <glyph glyph-name="fi" unicode="fi" horiz-adv-x="1026" 
d="M737 0v821h-440v-821h-107v1057q0 197 96 296t277 99q180 0 283 -119l-76 -65q-80 84 -201 84q-272 0 -272 -314v-116h547v-922h-107z" />
    <glyph glyph-name="fl" unicode="fl" horiz-adv-x="1134" 
d="M721 238v1052q-84 61 -184 62q-240 0 -240 -299v-131h246v-101h-246v-821h-107v1071q0 381 318 381q143 0 231 -68h88v-1089q0 -107 30 -157q29 -50 99 -50t131 45l27 -84q-80 -61 -194 -61q-199 0 -199 250z" />
    <glyph glyph-name=".notdef" horiz-adv-x="481" 
 />
    <glyph glyph-name=".null" horiz-adv-x="0" 
 />
    <glyph glyph-name="nonmarkingreturn" horiz-adv-x="681" 
 />
    <glyph glyph-name="space" unicode=" " horiz-adv-x="481" 
 />
    <glyph glyph-name="exclam" unicode="!" horiz-adv-x="634" 
d="M238 76q0 32 24 54t56 22t55 -23t23 -53t-24 -56q-22 -24 -55 -24t-56 24t-23 56zM260 395v1039h113v-1039h-113z" />
    <glyph glyph-name="quotedbl" unicode="&#x22;" horiz-adv-x="821" 
d="M203 1008v426h106v-426h-106zM512 1008v426h106v-426h-106z" />
    <glyph glyph-name="numbersign" unicode="#" horiz-adv-x="1409" 
d="M559 915l-147 -397h430l147 397h-430zM82 424v94h233l148 397h-381v95h416l166 442l84 -31l-154 -411h430l166 442l84 -29l-154 -413h207v-95h-242l-145 -397h387v-94h-422l-164 -442l-86 30l152 412h-430l-164 -442l-84 30l152 412h-199z" />
    <glyph glyph-name="dollar" unicode="$" horiz-adv-x="1206" 
d="M932 356q0 157 -148 240q-66 37 -144 69q-78 31 -158 65q-78 34 -144 78t-107 117t-41 169q0 143 100 242t273 114v168h107v-168q219 -18 334 -143l-64 -84q-121 123 -319 123q-145 0 -229 -69t-83 -183q0 -154 148 -235q66 -36 209 -90t223 -107q162 -109 162 -304
q-1 -154 -107 -255t-274 -117v-191h-107v189q-127 8 -241 63t-162 141l67 78q61 -82 167 -130t225 -48q121 0 217 70t96 198z" />
    <glyph glyph-name="percent" unicode="%" horiz-adv-x="1740" 
d="M1032 324q0 -108 75 -176t178 -68t177 68t74 176t-75 177t-177 69t-177 -70q-75 -68 -75 -176zM932 326q0 145 100 238t252 93t252 -93t100 -238q0 -146 -100 -240t-252 -94t-252 94t-100 240zM205 1108q0 -108 75 -176t178 -68t177 69t74 176t-75 176t-177 69t-177 -69
t-75 -177zM104 1110q0 144 100 238t253 94q152 0 252 -93t100 -239t-100 -240t-252 -94q-153 0 -253 94t-100 240zM309 27l1067 1425l64 -45l-1067 -1425z" />
    <glyph glyph-name="ampersand" unicode="&#x26;" horiz-adv-x="1509" 
d="M603 1364q-81 0 -138 -58t-57 -138q0 -81 57 -138t139 -57t139 57t57 138q0 80 -58 138t-139 58zM608 88q246 0 389 215l-413 535q-142 -102 -224 -204t-82 -234t98 -222q97 -90 232 -90zM160 381q0 170 99 292t257 226q-92 23 -150 95t-58 184t86 193q87 81 210 81
t210 -81t87 -195q-1 -114 -69 -191q-68 -78 -166 -88l405 -516q135 233 135 541h105q0 -365 -174 -627l233 -295h-133l-174 219q-166 -238 -457 -237q-194 0 -320 114t-126 285z" />
    <glyph glyph-name="quotesingle" unicode="'" horiz-adv-x="512" 
d="M203 1008v426h106v-426h-106z" />
    <glyph glyph-name="parenleft" unicode="(" horiz-adv-x="565" 
d="M82 452q0 518 416 891l67 -59q-201 -186 -289 -387t-88 -434t96 -447t281 -378l-69 -60q-414 356 -414 874z" />
    <glyph glyph-name="parenright" unicode=")" horiz-adv-x="565" 
d="M377 463q0 235 -88 435t-289 386l68 59q416 -375 416 -892t-414 -873l-70 60q186 164 282 378t95 447z" />
    <glyph glyph-name="asterisk" unicode="*" horiz-adv-x="942" 
d="M170 1234q0 34 24 58t58 25q34 0 56 -25q24 -24 24 -58t-24 -56t-58 -23q-34 1 -56 23q-24 22 -24 56zM170 984q0 34 24 58t58 25q34 0 56 -25q24 -26 24 -58t-24 -56t-58 -23t-56 23q-24 22 -24 56zM608 985q0 33 25 57t59 25q34 0 57 -25q23 -26 23 -58t-24 -56
t-57 -23q-35 -1 -59 23t-24 57zM691 1155q-35 1 -59 23t-24 56t25 58t59 25q34 0 57 -25q23 -24 23 -58t-24 -56t-57 -23zM391 850q0 32 25 58q26 26 58 26t54 -26t23 -58q0 -32 -23 -56q-24 -24 -56 -24t-56 24t-25 56zM477 1290q-33 0 -57 24t-23 56q0 34 24 58
q25 24 57 24t56 -25t24 -57t-24 -56t-57 -24z" />
    <glyph glyph-name="plus" unicode="+" horiz-adv-x="1206" 
d="M145 690v94h406v408h100v-408h408v-94h-408v-411h-100v411h-406z" />
    <glyph glyph-name="comma" unicode="," horiz-adv-x="409" 
d="M182 0q-25 0 -42 20t-17 50q1 30 23 52t67 22t80 -49q35 -48 35 -138t-56 -161t-143 -97l-29 53q49 16 89 58q41 42 49 110t-21 100q-10 -20 -35 -20z" />
    <glyph glyph-name="hyphen" unicode="-" horiz-adv-x="817" 
d="M174 506v100h469v-100h-469z" />
    <glyph glyph-name="period" unicode="." horiz-adv-x="376" 
d="M111 76q-1 32 23 54t57 22t55 -23t20 -53q0 -30 -22 -56q-22 -24 -54 -24t-56 24q-23 25 -23 56z" />
    <glyph glyph-name="slash" unicode="/" horiz-adv-x="649" 
d="M-61 -393l688 1845l84 -31l-686 -1847z" />
    <glyph glyph-name="zero" unicode="0" horiz-adv-x="1171" 
d="M246 717q0 -633 344 -633q336 0 336 633t-340 633t-340 -633zM133 717q0 337 112 535t341 198t341 -199q111 -199 111 -535t-110 -535q-110 -197 -338 -197q-229 0 -343 198t-114 535z" />
    <glyph glyph-name="one" unicode="1" horiz-adv-x="761" 
d="M492 1446v-1446h-107v1290l-235 -190l-58 86l326 260h74z" />
    <glyph glyph-name="two" unicode="2" horiz-adv-x="1083" 
d="M104 0v88q106 104 164 162t172 187q113 128 175 220q167 249 167 429q0 102 -71 180t-189 78t-204 -67q-85 -67 -105 -194l-92 35q23 156 136 244q114 88 257 88q184 0 282 -105t99 -233q0 -128 -59 -263q-60 -135 -134 -241t-182 -226t-161 -172q-54 -52 -115 -110h714
v-100h-854z" />
    <glyph glyph-name="three" unicode="3" horiz-adv-x="1091" 
d="M129 1217q89 235 402 235q157 0 259 -96t101 -264q1 -115 -59 -209t-168 -138v-6q130 -18 206 -118t76 -230q0 -185 -123 -297t-313 -112q-143 0 -254 61t-164 186l64 74q105 -215 372 -215q129 0 217 87q89 87 89 217t-88 209t-224 79h-123v106h111q104 0 186 84t82 210
t-73 196q-74 70 -201 70q-219 0 -311 -197z" />
    <glyph glyph-name="four" unicode="4" horiz-adv-x="1101" 
d="M715 0v379h-666v72l627 983h123l-606 -949h522v437h106v-437h211v-106h-211v-379h-106z" />
    <glyph glyph-name="five" unicode="5" horiz-adv-x="1060" 
d="M942 1434v-107h-530l-62 -467q63 18 142 19q200 0 326 -119t126 -322q0 -204 -129 -330t-315 -126q-123 0 -234 57t-174 170l64 76q53 -93 149 -145t197 -52q141 0 235 99t94 249t-105 248t-277 98q-122 0 -218 -37l88 689h623z" />
    <glyph glyph-name="six" unicode="6" horiz-adv-x="1126" 
d="M594 88q131 0 223 100t92 246t-88 245q-89 99 -237 99t-240 -83t-121 -187q0 -176 96 -298t275 -122zM596 -18q-229 0 -357 152t-128 356q0 206 62 376q61 170 163 287q213 246 465 299l45 -80q-223 -54 -397 -244t-216 -483q47 102 143 168t230 66q184 0 300 -123
t116 -319q0 -195 -128 -325t-298 -130z" />
    <glyph glyph-name="seven" unicode="7" horiz-adv-x="972" 
d="M70 1327v107h827v-66l-545 -1368h-119l533 1327h-696z" />
    <glyph glyph-name="eight" unicode="8" horiz-adv-x="1210" 
d="M606 -18q-190 0 -325 106t-136 283q0 131 80 231t211 131v6q-102 31 -172 128t-69 212q0 166 118 270q119 103 292 103t292 -103t119 -270q0 -109 -67 -203t-181 -135v-6q129 -16 213 -115t84 -241q0 -182 -134 -290q-135 -107 -325 -107zM635 684h-53q-132 0 -228 -85
t-96 -213t100 -213t248 -85t247 83t99 218t-91 215t-226 80zM573 791h64q102 1 184 81t82 201t-89 197t-212 76t-209 -76t-86 -197t82 -201t184 -81z" />
    <glyph glyph-name="nine" unicode="9" horiz-adv-x="1122" 
d="M545 1346q-133 0 -233 -100t-101 -239q0 -139 90 -241q89 -102 239 -102t241 77t118 179q0 178 -90 302t-264 124zM1012 920q0 -392 -197 -644t-504 -294l-39 84q258 47 424 234t193 482q-43 -98 -138 -158t-227 -61q-188 0 -307 127q-119 128 -119 316t135 317t308 129
q229 0 350 -150t121 -382z" />
    <glyph glyph-name="colon" unicode=":" horiz-adv-x="659" 
d="M252 76q0 32 24 54t56 22t54 -23t22 -53t-22 -56q-22 -24 -54 -24t-57 24q-23 25 -23 56zM408 864q0 -32 -22 -56t-54 -24t-56 24t-24 56q0 31 23 54q24 22 57 22q32 0 54 -22t22 -54z" />
    <glyph glyph-name="semicolon" unicode=";" horiz-adv-x="665" 
d="M311 0q-25 0 -42 20t-17 50t22 52t68 22q45 0 80 -49q35 -48 35 -138q-1 -90 -57 -161t-142 -97l-29 53q49 16 89 58t48 110t-20 100q-10 -20 -35 -20zM408 864q0 -32 -22 -56t-54 -24t-56 24t-24 56q0 31 23 54q24 22 57 22q32 0 54 -22t22 -54z" />
    <glyph glyph-name="less" unicode="&#x3c;" horiz-adv-x="1206" 
d="M991 182l-860 537v45l860 532v-116l-710 -439l710 -442v-117z" />
    <glyph glyph-name="equal" unicode="=" horiz-adv-x="1206" 
d="M145 514v94h914v-94h-914zM145 866v95h914v-95h-914z" />
    <glyph glyph-name="greater" unicode="&#x3e;" horiz-adv-x="1206" 
d="M1073 719l-858 -537v117l711 442l-711 439v116l858 -532v-45z" />
    <glyph glyph-name="question" unicode="?" horiz-adv-x="942" 
d="M334 76q0 32 22 54t56 22t56 -23t22 -53t-24 -56q-22 -24 -54 -24t-56 24q-22 25 -22 56zM760 1094q0 100 -84 176t-213 76q-195 0 -316 -166l-65 67q58 93 162 149t227 56q186 0 294 -100t107 -248q0 -104 -43 -184t-103 -128t-122 -92q-148 -107 -147 -239q0 -18 8 -68
l-96 -4q-11 55 -11 113t41 122t101 108t118 87t100 109t42 166z" />
    <glyph glyph-name="at" unicode="@" horiz-adv-x="2076" 
d="M1040 82q86 0 168 43t127 98v549q-119 68 -275 68t-270 -111q-112 -111 -112 -279t99 -268t263 -100zM1335 0v119q-55 -59 -139 -99t-172 -38q-207 0 -333 131t-126 341q-1 210 145 348t361 138t371 -100v-740h45q158 0 251 130t93 319q0 305 -217 505t-561 200
q-343 0 -575 -226q-232 -225 -232 -564t232 -567t581 -229q117 0 221 25l10 -99q-119 -27 -231 -26q-395 0 -655 256q-259 256 -259 634q1 378 261 637t645 259t633 -226t247 -577q0 -223 -123 -387t-344 -164h-129z" />
    <glyph glyph-name="A" unicode="A" horiz-adv-x="1427" 
d="M711 1290l-299 -696h596zM43 0l625 1446h92l624 -1446h-120l-209 487h-688l-209 -487h-115z" />
    <glyph glyph-name="B" unicode="B" horiz-adv-x="1263" 
d="M600 1333q-88 0 -260 -6v-545h278q139 0 233 76q93 76 93 205q0 270 -344 270zM612 682h-272v-573q229 -8 266 -9q188 0 291 78q102 78 102 220q-1 142 -101 212q-100 72 -286 72zM604 1440q453 0 453 -355q0 -135 -79 -221t-200 -114v-5q158 -18 246 -107t88 -237
q0 -205 -139 -306t-359 -101t-387 8v1430q319 8 377 8z" />
    <glyph glyph-name="C" unicode="C" horiz-adv-x="1343" 
d="M829 -18q-323 0 -521 200t-198 526q0 324 193 534t510 210q272 0 434 -135l-53 -84q-147 113 -393 113t-409 -178t-163 -454q0 -278 169 -452t440 -174q225 0 391 135l45 -84q-74 -73 -195 -115t-250 -42z" />
    <glyph glyph-name="D" unicode="D" horiz-adv-x="1509" 
d="M582 102q334 0 516 178t182 449q0 272 -174 438t-516 166l-250 -6v-1221q233 -4 242 -4zM227 0v1434h23l344 6q209 0 367 -56q288 -103 392 -379q46 -124 46 -268q0 -325 -214 -533t-607 -208l-332 4h-19z" />
    <glyph glyph-name="E" unicode="E" horiz-adv-x="1177" 
d="M227 0v1434h793v-107h-680v-547h618v-106h-618v-568h700v-106h-813z" />
    <glyph glyph-name="F" unicode="F" horiz-adv-x="1110" 
d="M227 0v1434h801v-107h-688v-590h627v-106h-627v-631h-113z" />
    <glyph glyph-name="G" unicode="G" horiz-adv-x="1488" 
d="M831 588v106h527v-516q-92 -92 -244 -144t-293 -52q-323 0 -517 200t-194 526q0 324 194 534t503 210q270 0 442 -135l-51 -88q-137 117 -389 117t-416 -176t-164 -458q0 -280 165 -452t431 -172q119 0 239 41t187 109v350h-420z" />
    <glyph glyph-name="H" unicode="H" horiz-adv-x="1574" 
d="M1235 0v678h-895v-678h-113v1434h113v-650h895v650h113v-1434h-113z" />
    <glyph glyph-name="I" unicode="I" horiz-adv-x="665" 
d="M276 0v1434h113v-1434h-113z" />
    <glyph glyph-name="J" unicode="J" horiz-adv-x="739" 
d="M512 1434v-1119q0 -334 -287 -333q-123 0 -196 65l41 88q63 -47 155 -47q174 0 174 244v1102h113z" />
    <glyph glyph-name="K" unicode="K" horiz-adv-x="1304" 
d="M227 0v1434h113v-1434h-113zM1219 1434l-678 -678l706 -756h-145l-694 748l673 686h138z" />
    <glyph glyph-name="L" unicode="L" horiz-adv-x="1130" 
d="M227 0v1434h113v-1328h756v-106h-869z" />
    <glyph glyph-name="M" unicode="M" horiz-adv-x="1810" 
d="M227 0v1434h115l578 -787l555 787h108v-1434h-113v1257l-550 -774h-19l-561 768v-1251h-113z" />
    <glyph glyph-name="N" unicode="N" horiz-adv-x="1632" 
d="M1405 0h-90l-981 1233v-1233h-107v1434h90l981 -1237v1237h107v-1434z" />
    <glyph glyph-name="O" unicode="O" horiz-adv-x="1658" 
d="M1430 718q0 270 -174 448q-174 180 -428 180q-255 0 -427 -180t-172 -448q0 -270 173 -450t430 -180t428 180q170 180 170 450zM111 714q0 316 204 527q205 211 513 211t514 -208t206 -525t-206 -527t-513 -210t-513 207q-205 209 -205 525z" />
    <glyph glyph-name="P" unicode="P" horiz-adv-x="1198" 
d="M588 1331q-113 0 -248 -4v-643q133 -10 233 -10q190 0 293 91q102 91 102 241t-92 237q-93 88 -288 88zM578 567q-129 0 -238 8v-575h-113v1434l351 4q391 0 485 -274q25 -73 24 -158q0 -184 -129 -312t-380 -127z" />
    <glyph glyph-name="Q" unicode="Q" horiz-adv-x="1658" 
d="M229 718q0 -270 173 -450t427 -180q188 0 338 100l-127 154l76 68l131 -156q183 182 183 458t-174 454q-174 180 -428 180q-255 0 -427 -180t-172 -448zM111 714q0 316 204 527q205 211 513 211t514 -208t206 -534t-229 -540l143 -170h-135l-88 104q-180 -123 -410 -122
q-307 0 -513 207q-205 209 -205 525z" />
    <glyph glyph-name="R" unicode="R" horiz-adv-x="1292" 
d="M565 1331q-90 0 -225 -4v-618h248q143 0 255 89t111 226q0 307 -389 307zM1073 1024q0 -150 -96 -260t-244 -139l502 -625h-139l-478 602h-278v-602h-113v1434l344 4q502 0 502 -414z" />
    <glyph glyph-name="S" unicode="S" horiz-adv-x="1118" 
d="M889 356q0 157 -148 240q-67 37 -145 69q-78 31 -157 65t-145 78t-106 117q-41 73 -41 169q0 156 113 257t307 101q119 0 221 -39t164 -106l-61 -84q-123 123 -320 123q-141 0 -223 -69t-82 -183q0 -154 148 -235q66 -36 209 -90t223 -107q162 -109 162 -291
q0 -181 -131 -285t-326 -104q-133 0 -261 56t-179 150l67 78q60 -82 164 -130t226 -48t222 72t99 196z" />
    <glyph glyph-name="T" unicode="T" horiz-adv-x="1214" 
d="M20 1327v107h1174v-107h-530v-1327h-113v1327h-531z" />
    <glyph glyph-name="U" unicode="U" horiz-adv-x="1538" 
d="M1331 1434v-834q1 -309 -153 -463q-154 -153 -402 -153t-408 162t-161 468v820h112v-799q0 -257 127 -401t333 -144t323 134t117 401v809h112z" />
    <glyph glyph-name="V" unicode="V" horiz-adv-x="1343" 
d="M1321 1434l-602 -1446h-80l-616 1446h120l539 -1274l524 1274h115z" />
    <glyph glyph-name="W" unicode="W" horiz-adv-x="1961" 
d="M1933 1434l-417 -1434h-99l-430 1245l-422 -1245h-98l-438 1434h127l370 -1233l412 1233h104l422 -1235l359 1235h110z" />
    <glyph glyph-name="X" unicode="X" horiz-adv-x="1351" 
d="M1276 1434l-526 -705l544 -729h-135l-483 643l-486 -643h-133l547 729l-524 705h133l465 -619l463 619h135z" />
    <glyph glyph-name="Y" unicode="Y" horiz-adv-x="1196" 
d="M651 0h-112v627l-510 807h131l440 -701l442 701h125l-516 -807v-627z" />
    <glyph glyph-name="Z" unicode="Z" horiz-adv-x="1288" 
d="M123 1327v107h1063v-72l-948 -1256h968v-106h-1124v72l944 1255h-903z" />
    <glyph glyph-name="bracketleft" unicode="[" horiz-adv-x="606" 
d="M123 -410v1741h471v-100h-365v-1540h365v-101h-471z" />
    <glyph glyph-name="backslash" unicode="\" horiz-adv-x="649" 
d="M23 1452l688 -1845l-86 -33l-686 1847z" />
    <glyph glyph-name="bracketright" unicode="]" horiz-adv-x="606" 
d="M483 1331v-1741h-471v101h365v1540h-365v100h471z" />
    <glyph glyph-name="asciicircum" unicode="^" horiz-adv-x="983" 
d="M98 922l361 528h69l357 -528h-117l-274 415l-279 -415h-117z" />
    <glyph glyph-name="underscore" unicode="_" horiz-adv-x="587" 
d="M0 -410v107h588v-107h-588z" />
    <glyph glyph-name="grave" unicode="`" horiz-adv-x="550" 
d="M360 1110l-237 291l84 63l221 -307z" />
    <glyph glyph-name="a" unicode="a" horiz-adv-x="940" 
d="M408 88q172 0 282 145v154q-100 74 -220 74t-194 -49q-74 -48 -74 -138t60 -138q58 -48 146 -48zM468 940q171 0 250 -92t79 -277v-571h-107v141q-113 -154 -315 -153q-129 0 -207 74t-78 205q0 130 98 206t252 76t250 -70q0 237 -56 298t-185 62q-128 1 -259 -71l-28 88
q135 84 306 84z" />
    <glyph glyph-name="b" unicode="b" horiz-adv-x="1126" 
d="M567 840q-90 0 -173 -43t-126 -99v-536q114 -80 272 -80t267 104t109 278t-95 276q-94 100 -254 100zM162 1434h106v-625q56 57 144 94t178 37q202 0 320 -129t118 -345t-138 -350t-362 -134t-366 108v1344z" />
    <glyph glyph-name="c" unicode="c" horiz-adv-x="1003" 
d="M96 454q0 210 131 348t328 138q238 0 358 -115l-51 -86q-111 101 -276 101t-271 -109t-106 -275t108 -271q109 -103 281 -103t281 127l53 -78q-56 -72 -150 -111t-198 -38q-215 0 -352 131q-136 131 -136 341z" />
    <glyph glyph-name="d" unicode="d" horiz-adv-x="1132" 
d="M567 84q86 0 167 43t130 102v527q-124 84 -276 84t-266 -106t-113 -276q0 -170 99 -272t259 -102zM864 0v131q-130 -147 -326 -147t-319 129t-123 343t142 349t360 135q158 0 266 -80v574h107v-1434h-107z" />
    <glyph glyph-name="e" unicode="e" horiz-adv-x="1073" 
d="M550 840q-148 0 -237 -87q-90 -87 -104 -227h663q-2 146 -88 230t-234 84zM584 -18q-217 0 -353 131q-135 131 -135 344t124 348t343 135q180 0 299 -115t119 -301q0 -49 -6 -86h-760q7 -166 109 -261t280 -95t287 113l35 -82q-125 -131 -342 -131z" />
    <glyph glyph-name="f" unicode="f" horiz-adv-x="686" 
d="M190 0v1071q0 381 318 381q150 0 240 -78l-41 -82q-74 59 -183 60q-227 0 -227 -299v-131h352v-101h-352v-821h-107z" />
    <glyph glyph-name="g" unicode="g" horiz-adv-x="1003" 
d="M231 614q0 -98 72 -164q73 -66 185 -65q112 0 184 66q72 65 72 163t-73 164t-184 66t-183 -66t-73 -164zM137 -134q0 -92 95 -144t257 -52t257 52q96 52 96 142t-96 145q-96 54 -256 54q-161 0 -257 -53t-96 -144zM29 -135q0 106 74 177q75 71 208 99q-31 37 -31 89
t35 92q-90 38 -141 116t-51 176q0 142 100 234q99 92 247 92t249 -70h2l262 70v-100l-186 -47q55 -82 55 -179q0 -139 -101 -232t-264 -93q-53 0 -92 8q-18 -27 -18 -70t26 -71q57 4 86 4q209 0 335 -77t126 -217t-127 -216t-335 -76t-334 75t-125 216z" />
    <glyph glyph-name="h" unicode="h" horiz-adv-x="1128" 
d="M162 0v1434h106v-637q54 61 146 101t186 40q385 0 385 -414v-524h-106v508q0 330 -304 330q-90 0 -175 -41t-132 -101v-696h-106z" />
    <glyph glyph-name="i" unicode="i" horiz-adv-x="534" 
d="M340 1277q0 -32 -20 -52q-20 -21 -52 -21q-31 0 -52 20t-21 54q0 33 22 51q23 19 51 19t50 -20t22 -51zM213 0v922h106v-922h-106z" />
    <glyph glyph-name="j" unicode="j" horiz-adv-x="532" 
d="M199 1278q0 33 22 51q23 19 51 19t51 -20q21 -20 21 -51q0 -32 -20 -52q-20 -21 -52 -21t-52 20q-21 20 -21 54zM326 922v-990q0 -358 -289 -358q-117 0 -189 57l33 86q63 -43 133 -43q205 0 205 267v981h107z" />
    <glyph glyph-name="k" unicode="k" horiz-adv-x="968" 
d="M162 0v1434h106v-1434h-106zM889 922l-430 -433l469 -489h-144l-456 481l422 441h139z" />
    <glyph glyph-name="l" unicode="l" horiz-adv-x="577" 
d="M162 238v1196h106v-1139q0 -107 31 -157t101 -50t130 45l27 -84q-80 -61 -195 -61q-200 0 -200 250z" />
    <glyph glyph-name="m" unicode="m" horiz-adv-x="1648" 
d="M1505 604v-604h-106v575q0 262 -234 263q-94 0 -168 -42t-114 -112q4 -16 4 -66v-618h-107v623q0 98 -60 156q-60 59 -160 59t-175 -42q-74 -42 -117 -104v-692h-106v922h106v-129q52 65 140 105t188 40t176 -45q74 -45 98 -125q50 78 142 124t194 46q299 0 299 -334z
" />
    <glyph glyph-name="n" unicode="n" horiz-adv-x="1128" 
d="M162 0v922h106v-129q54 61 146 103t186 42q190 0 288 -99t97 -313v-526h-106v506q0 332 -304 332q-90 0 -174 -41t-133 -101v-696h-106z" />
    <glyph glyph-name="o" unicode="o" horiz-adv-x="1161" 
d="M209 461q0 -167 104 -273q103 -106 267 -106t267 105t103 273t-104 273q-104 107 -265 107t-267 -106t-105 -273zM96 461q0 209 135 344t349 135t348 -135q135 -135 135 -344t-135 -344t-348 -135t-349 135q-135 135 -135 344z" />
    <glyph glyph-name="p" unicode="p" horiz-adv-x="1134" 
d="M578 840q-92 0 -178 -42t-132 -102v-530q127 -84 290 -84t264 108q102 108 102 278q0 168 -91 270t-255 102zM162 -410v1332h106v-123q52 61 146 101t192 40q197 0 314 -129q116 -129 116 -339t-131 -350t-331 -140t-306 77v-469h-106z" />
    <glyph glyph-name="q" unicode="q" horiz-adv-x="1136" 
d="M578 82q84 0 166 41t122 94v555q-120 68 -276 68t-268 -111t-113 -277q0 -166 100 -268q101 -102 269 -102zM866 -410v510q-57 -53 -138 -86t-163 -32q-213 0 -341 130t-128 341t146 349t360 138q215 0 371 -100v-1250h-107z" />
    <glyph glyph-name="r" unicode="r" horiz-adv-x="673" 
d="M162 0v922h106v-123q92 139 248 139q96 0 143 -35l-36 -100q-59 35 -129 35q-137 0 -226 -150v-688h-106z" />
    <glyph glyph-name="s" unicode="s" horiz-adv-x="856" 
d="M639 234q0 72 -52 110q-52 39 -127 62q-75 22 -151 50t-128 87t-52 161t82 170q82 66 215 66q190 0 289 -102l-45 -80q-94 88 -242 88q-84 0 -135 -43t-51 -108t52 -105t127 -65t151 -51t127 -82q52 -56 53 -146q0 -129 -96 -197t-236 -67q-94 0 -188 41t-128 92l60 69
q37 -47 117 -78q180 -70 298 13q60 43 60 115z" />
    <glyph glyph-name="t" unicode="t" horiz-adv-x="712" 
d="M141 350v828h107v-256h370v-101h-370v-454q0 -279 207 -279q82 0 147 49l35 -84q-81 -65 -219 -65q-276 2 -277 362z" />
    <glyph glyph-name="u" unicode="u" horiz-adv-x="1114" 
d="M950 922v-922h-106v145q-54 -71 -150 -117t-200 -46q-352 0 -353 405v535h107v-512q0 -328 284 -328q90 0 176 48t136 112v680h106z" />
    <glyph glyph-name="v" unicode="v" horiz-adv-x="966" 
d="M944 922l-416 -934h-73l-432 934h124l265 -580q53 -117 84 -203q47 129 82 209l253 574h113z" />
    <glyph glyph-name="w" unicode="w" horiz-adv-x="1421" 
d="M1393 922l-299 -934h-88l-254 669q-29 78 -41 117q-20 -72 -41 -123l-248 -663h-84l-309 934h114l209 -646q6 -20 18 -65t21 -70q31 98 45 135l236 646h88l239 -643q24 -74 48 -140q10 50 43 150l194 633h109z" />
    <glyph glyph-name="x" unicode="x" horiz-adv-x="1013" 
d="M930 922l-346 -447l366 -475h-131l-315 408l-316 -408h-125l367 471l-346 451h131l293 -381l297 381h125z" />
    <glyph glyph-name="y" unicode="y" horiz-adv-x="985" 
d="M248 -410q-88 0 -168 48l35 81q66 -31 108 -30q70 0 125 60t115 202l20 49l-454 922h127l315 -652l66 -143q10 35 51 147l248 648h120l-372 -922q-98 -240 -173 -325t-163 -85z" />
    <glyph glyph-name="z" unicode="z" horiz-adv-x="985" 
d="M127 821v101h762v-70l-639 -752h629v-100h-783v70l637 751h-606z" />
    <glyph glyph-name="braceleft" unicode="{" horiz-adv-x="641" 
d="M225 -150v363q0 111 -55 157t-129 44v94q72 0 128 51t56 174v330q-1 133 57 201t193 67h125v-100h-100q-92 0 -130 -47t-38 -154v-334q0 -98 -42 -160t-112 -73q154 -18 154 -234v-340q0 -104 45 -151t135 -47h88v-101h-125q-250 0 -250 260z" />
    <glyph glyph-name="bar" unicode="|" horiz-adv-x="659" 
d="M276 0v1434h107v-1434h-107z" />
    <glyph glyph-name="braceright" unicode="}" horiz-adv-x="641" 
d="M416 213v-363q0 -260 -250 -260h-125v101h88q90 0 135 47t45 151v340q0 215 154 234q-70 11 -112 73t-42 160v334q0 106 -38 154t-130 47h-100v100h125q135 1 192 -67t58 -201v-330q0 -123 56 -174t128 -51v-94q-74 2 -129 -44t-55 -157z" />
    <glyph glyph-name="asciitilde" unicode="~" horiz-adv-x="1206" 
d="M379 860q83 0 239 -75t243 -75t181 95l45 -74q-121 -115 -237 -115q-84 0 -238 75t-229 75q-109 -1 -215 -107l-51 70q131 131 262 131z" />
    <glyph glyph-name="uni00A0" unicode="&#xa0;" horiz-adv-x="481" 
 />
    <glyph glyph-name="exclamdown" unicode="&#xa1;" horiz-adv-x="634" 
d="M399 860q1 -32 -23 -54t-57 -22t-55 23t-22 53t22 56q22 24 56 24q32 0 56 -24t23 -56zM377 541v-1039h-113v1039h113z" />
    <glyph glyph-name="cent" unicode="&#xa2;" horiz-adv-x="1206" 
d="M711 -246h-107v232q-188 22 -303 150t-115 322t119 329q119 136 299 151v223h107v-223q184 -12 293 -113l-52 -86q-112 101 -276 101t-270 -109t-106 -275t108 -270t280 -104t281 127l53 -78q-106 -133 -311 -147v-230z" />
    <glyph glyph-name="sterling" unicode="&#xa3;" horiz-adv-x="1206" 
d="M166 580v88h162q-8 24 -45 100t-54 139q-16 63 -16 146q0 161 117 279t309 118q248 0 383 -150l-61 -81q-127 125 -322 124q-137 0 -222 -88q-85 -87 -85 -213t70 -266q34 -68 47 -108h352v-88h-334q6 -35 6 -72q0 -166 -106 -303h14q81 0 235 -53t230 -54q121 0 225 99
l51 -82q-123 -123 -280 -123q-80 0 -234 53t-233 53q-123 0 -236 -112l-49 84q74 74 160 110q111 139 110 312q0 35 -8 88h-186z" />
    <glyph glyph-name="currency" unicode="&#xa4;" horiz-adv-x="1206" 
d="M246 712q0 -156 98 -264t261 -108t260 109t97 263t-98 262t-260 108t-260 -108q-98 -107 -98 -262zM145 711q0 164 97 293l-183 186l66 67l184 -184q123 103 295 103t295 -103l195 193l65 -66l-194 -196q98 -127 98 -294t-98 -294l188 -187l-68 -65l-184 184
q-123 -102 -296 -102t-296 102l-196 -194l-66 65l195 199q-97 129 -97 293z" />
    <glyph glyph-name="yen" unicode="&#xa5;" horiz-adv-x="1206" 
d="M145 625v88h347l-441 721h131l422 -701l424 701h125l-442 -721h348v-88h-402v-252h402v-88h-402v-285h-112v285h-400v88h400v252h-400z" />
    <glyph glyph-name="brokenbar" unicode="&#xa6;" horiz-adv-x="659" 
d="M276 532h107v-532h-107v532zM383 901h-107v533h107v-533z" />
    <glyph glyph-name="section" unicode="&#xa7;" horiz-adv-x="1073" 
d="M252 511q0 -118 84 -198t203 -80t201 79t81 197q0 118 -83 199q-84 80 -202 80t-201 -80t-83 -197zM145 502q0 144 80 242q80 99 213 128q-190 92 -190 277q0 123 86 204t240 81t251 -125l-63 -74q-29 31 -45 46q-15 15 -59 33t-114 19q-70 0 -129 -59q-60 -59 -61 -144
q0 -160 213 -249q162 -9 261 -113q100 -104 100 -248t-80 -244t-215 -126q188 -94 188 -275q0 -123 -86 -204q-85 -81 -241 -81t-250 125l63 74q29 -31 45 -46t60 -33t112 -19q70 0 130 59t61 144q0 160 -215 245q-158 11 -256 115t-99 248z" />
    <glyph glyph-name="dieresis" unicode="&#xa8;" horiz-adv-x="804" 
d="M615 1333q27 0 47 -19t20 -49q0 -31 -19 -51t-47 -20t-47 20q-20 20 -20 51q0 32 19 50t47 18zM123 1265q0 32 19 50q20 18 48 18t47 -19t19 -49q0 -31 -19 -51t-46 -20t-48 19q-20 20 -20 52z" />
    <glyph glyph-name="copyright" unicode="&#xa9;" horiz-adv-x="2084" 
d="M1030 940q238 0 359 -115l-52 -86q-111 101 -275 101t-271 -109t-107 -275t109 -270t281 -104t280 127l53 -78q-57 -72 -151 -111t-197 -38q-215 0 -351 131t-136 341t130 348q131 138 328 138zM252 453q0 -331 226 -561t564 -230t565 230q226 230 226 560t-226 561
q-227 230 -565 230t-564 -230t-226 -560zM158 453q0 371 254 627t630 257q376 0 631 -257q254 -258 254 -628t-254 -627t-631 -257q-376 0 -630 257t-254 628z" />
    <glyph glyph-name="ordfeminine" unicode="&#xaa;" horiz-adv-x="837" 
d="M379 768q121 0 213 92v119q-88 49 -182 49t-147 -35q-52 -35 -52 -94t48 -95t120 -36zM410 1348q132 0 204 -66t72 -186v-402h-94v107q-88 -113 -254 -113q-102 0 -165 58q-62 58 -62 150t67 146q68 56 195 56t219 -56v31q0 193 -191 193q-98 -1 -180 -58l-43 64
q100 76 232 76z" />
    <glyph glyph-name="guillemotleft" unicode="&#xab;" horiz-adv-x="1036" 
d="M473 76l-369 432v8l373 428l70 -61l-320 -371l316 -371zM829 76l-368 432v8l373 428l69 -61l-319 -371l315 -371z" />
    <glyph glyph-name="logicalnot" unicode="&#xac;" horiz-adv-x="1206" 
d="M133 690v94h938v-362h-94v268h-844z" />
    <glyph glyph-name="uni00AD" unicode="&#xad;" horiz-adv-x="817" 
d="M174 506v100h469v-100h-469z" />
    <glyph glyph-name="registered" unicode="&#xae;" horiz-adv-x="1191" 
d="M578 1253h-86v-231h96q53 0 93 34t40 85q0 112 -143 112zM492 737h-76v574h170q211 0 211 -170q0 -57 -37 -103t-98 -59l178 -242h-92l-164 228h-92v-228zM199 1016q1 -164 117 -281t280 -117t281 117t116 281t-117 280t-280 117q-164 -1 -280 -117t-117 -280zM111 1016
q0 203 142 344t344 141t343 -142t141 -343t-141 -343q-141 -143 -344 -143t-344 142t-141 344z" />
    <glyph glyph-name="macron" unicode="&#xaf;" horiz-adv-x="761" 
d="M123 1237v88h516v-88h-516z" />
    <glyph glyph-name="degree" unicode="&#xb0;" horiz-adv-x="815" 
d="M205 1167q0 -82 59 -142q60 -60 144 -60t143 60t59 142q0 83 -59 143t-143 60t-144 -60q-59 -61 -59 -143zM111 1166q0 124 86 211t210 87q125 0 211 -85t86 -210t-86 -212q-88 -87 -212 -87t-209 86q-86 86 -86 210z" />
    <glyph glyph-name="plusminus" unicode="&#xb1;" horiz-adv-x="1206" 
d="M145 354v95h914v-95h-914zM145 852v94h406v408h100v-408h408v-94h-408v-285h-100v285h-406z" />
    <glyph glyph-name="twosuperior" unicode="&#xb2;" horiz-adv-x="694" 
d="M80 717v69l63 45q66 45 82 59q17 14 73 56q56 43 78 69t68 78t45 120q1 67 -39 107t-106 40t-116 -35t-58 -94l-82 26q14 85 87 135t181 50t171 -60q62 -60 63 -153q0 -203 -383 -430h422v-82h-549z" />
    <glyph glyph-name="threesuperior" unicode="&#xb3;" horiz-adv-x="700" 
d="M121 893q57 -107 214 -107q75 0 125 39t50 95t-46 92q-46 35 -122 35h-74v69h66q59 0 102 38t43 93t-42 86t-113 31q-135 0 -189 -98l-49 51q63 127 256 127q111 0 174 -48q64 -48 64 -120t-39 -118q-39 -48 -107 -68v-3q82 -8 129 -57t47 -115q0 -94 -78 -151t-196 -57
q-205 0 -273 137z" />
    <glyph glyph-name="acute" unicode="&#xb4;" horiz-adv-x="548" 
d="M426 1403l-238 -293l-65 47l221 309z" />
    <glyph glyph-name="mu" unicode="&#xb5;" horiz-adv-x="1120" 
d="M956 922v-922h-106v145q-54 -71 -150 -117t-200 -46q-160 0 -246 84v-476h-107v1332h107v-512q0 -328 285 -328q90 0 176 48t135 112v680h106z" />
    <glyph glyph-name="mu" unicode="&#x3bc;" horiz-adv-x="1120" 
d="M956 922v-922h-106v145q-54 -71 -150 -117t-200 -46q-160 0 -246 84v-476h-107v1332h107v-512q0 -328 285 -328q90 0 176 48t135 112v680h106z" />
    <glyph glyph-name="paragraph" unicode="&#xb6;" horiz-adv-x="894" 
d="M633 -59q0 -367 -285 -367q-143 0 -223 72l45 78q66 -50 168 -50t146 71q42 71 42 198v596q-182 1 -302 121t-120 327t115 327t311 120h295v-101h-192v-1392z" />
    <glyph glyph-name="periodcentered" unicode="&#xb7;" horiz-adv-x="481" 
d="M162 606q0 32 24 54t56 22t54 -23t22 -53t-22 -56q-22 -24 -54 -24t-56 24t-24 56z" />
    <glyph glyph-name="cedilla" unicode="&#xb8;" horiz-adv-x="675" 
d="M298 -346q68 0 109 25q40 26 39 69q0 96 -145 96h-12v156h61v-102q203 -6 203 -156q-1 -70 -63 -114t-166 -44t-201 60l33 55q74 -45 142 -45z" />
    <glyph glyph-name="onesuperior" unicode="&#xb9;" horiz-adv-x="489" 
d="M324 1438v-721h-95v608l-135 -90l-39 65l203 138h66z" />
    <glyph glyph-name="ordmasculine" unicode="&#xba;" horiz-adv-x="937" 
d="M217 1014q0 -108 75 -176t178 -68t177 69t74 176t-75 176t-177 69t-177 -69t-75 -177zM117 1016q0 145 100 238q100 94 252 94t252 -94t100 -238q0 -146 -100 -240t-252 -94t-252 94t-100 240z" />
    <glyph glyph-name="guillemotright" unicode="&#xbb;" horiz-adv-x="1036" 
d="M575 508l-368 -432l-72 65l318 371l-320 371l70 61l372 -428v-8zM932 508l-369 -432l-71 65l317 371l-320 371l70 61l373 -428v-8z" />
    <glyph glyph-name="onequarter" unicode="&#xbc;" horiz-adv-x="1345" 
d="M1090 0v178h-400v60l367 479h92l-358 -463h299v207h88v-207h127v-76h-127v-178h-88zM111 27l1067 1425l63 -45l-1067 -1425zM352 1438v-721h-94v608l-135 -90l-39 65l203 138h65z" />
    <glyph glyph-name="onehalf" unicode="&#xbd;" horiz-adv-x="1378" 
d="M748 0v70l63 45q66 45 82 58q17 13 73 56t78 69t67 78q46 52 46 120q0 67 -40 107t-105 40q-66 0 -116 -35t-58 -94l-82 27q14 86 87 135t181 49t171 -60q62 -60 62 -153q0 -203 -383 -430h422v-82h-548zM53 27l1067 1425l64 -45l-1067 -1425zM352 1438v-721h-94v608
l-135 -90l-39 65l203 138h65z" />
    <glyph glyph-name="threequarters" unicode="&#xbe;" horiz-adv-x="1431" 
d="M127 893q57 -107 214 -107q75 0 125 39t50 95t-46 92q-46 35 -122 35h-74v69h66q59 0 102 38t43 93t-42 86t-113 31q-135 0 -189 -98l-49 51q63 127 256 127q111 0 174 -48q64 -48 64 -120t-39 -118q-39 -48 -107 -68v-3q82 -8 129 -57t47 -115q0 -94 -78 -151t-196 -57
q-203 0 -272 137zM1176 0v178h-400v60l367 479h92l-358 -463h299v207h88v-207h127v-76h-127v-178h-88zM217 27l1067 1425l64 -45l-1067 -1425z" />
    <glyph glyph-name="questiondown" unicode="&#xbf;" horiz-adv-x="942" 
d="M608 860q0 -32 -22 -54t-56 -22t-56 23t-22 53t24 56q22 24 54 24t56 -24q22 -24 22 -56zM182 -158q0 -100 84 -176t213 -76q195 0 316 166l65 -67q-58 -93 -162 -149t-227 -56q-186 0 -294 100t-107 248q0 104 43 184t103 128t122 92q148 107 147 239q0 18 -8 68l96 4
q11 -55 11 -113t-41 -122t-101 -108t-118 -87t-100 -109t-42 -166z" />
    <glyph glyph-name="Agrave" unicode="&#xc0;" horiz-adv-x="1427" 
d="M784 1511l-374 177l41 90l364 -203zM711 1290l-299 -696h596zM43 0l625 1446h92l624 -1446h-120l-209 487h-688l-209 -487h-115z" />
    <glyph glyph-name="Aacute" unicode="&#xc1;" horiz-adv-x="1427" 
d="M1022 1688l-373 -177l-33 64l367 203zM711 1290l-299 -696h596zM43 0l625 1446h92l624 -1446h-120l-209 487h-688l-209 -487h-115z" />
    <glyph glyph-name="Acircumflex" unicode="&#xc2;" horiz-adv-x="1427" 
d="M362 1571l345 201h8l348 -201l-47 -62l-305 166l-308 -166zM711 1290l-299 -696h596zM43 0l625 1446h92l624 -1446h-120l-209 487h-688l-209 -487h-115z" />
    <glyph glyph-name="Atilde" unicode="&#xc3;" horiz-adv-x="1427" 
d="M553 1720q63 0 165 -45t154 -45q88 0 152 68l33 -68q-80 -94 -191 -94q-55 0 -160 45q-104 45 -168 45t-132 -55l-37 67q84 82 184 82zM711 1290l-299 -696h596zM43 0l625 1446h92l624 -1446h-120l-209 487h-688l-209 -487h-115z" />
    <glyph glyph-name="Adieresis" unicode="&#xc4;" horiz-adv-x="1427" 
d="M953 1577q-32 1 -54 19t-22 50t23 49q24 17 54 17t53 -18q21 -18 21 -49t-21 -50q-22 -18 -54 -18zM476 1712q30 0 52 -18t23 -49q0 -31 -23 -49q-24 -18 -54 -19q-30 1 -52 19t-23 50q0 32 23 49q24 17 54 17zM711 1290l-299 -696h596zM43 0l625 1446h92l624 -1446h-120
l-209 487h-688l-209 -487h-115z" />
    <glyph glyph-name="Aring" unicode="&#xc5;" horiz-adv-x="1427" 
d="M565 1608q0 -59 41 -91t107 -32q67 0 107 32t40 91t-41 88t-106 28q-148 1 -148 -116zM711 1290l-299 -696h596zM483 1614q-1 84 63 129t166 45t166 -45t64 -128t-48 -130t-126 -60l616 -1425h-120l-209 487h-688l-209 -487h-115l614 1425q-78 9 -126 57t-48 132z" />
    <glyph glyph-name="AE" unicode="&#xc6;" horiz-adv-x="1966" 
d="M1016 606v658l-465 -658h465zM1808 1434v-107h-680v-547h619v-106h-619v-568h701v-106h-813v500h-541l-352 -500h-133l1026 1434h792z" />
    <glyph glyph-name="Ccedilla" unicode="&#xc7;" horiz-adv-x="1343" 
d="M785 -346q64 0 105 25q40 26 40 69q0 96 -146 96h-12v140q-299 18 -480 217t-181 515t192 526q193 210 510 210q272 0 434 -135l-53 -84q-147 113 -393 113t-409 -178t-163 -454q0 -278 169 -452t440 -174q225 0 391 135l45 -84q-72 -71 -192 -113t-248 -44v-84
q209 -6 208 -156q0 -70 -63 -114t-170 -44t-209 62l35 57q86 -49 150 -49z" />
    <glyph glyph-name="Egrave" unicode="&#xc8;" horiz-adv-x="1177" 
d="M733 1511l-375 177l41 90l365 -203zM227 0v1434h793v-107h-680v-547h618v-106h-618v-568h700v-106h-813z" />
    <glyph glyph-name="Eacute" unicode="&#xc9;" horiz-adv-x="1177" 
d="M891 1688l-373 -177l-33 64l367 203zM227 0v1434h793v-107h-680v-547h618v-106h-618v-568h700v-106h-813z" />
    <glyph glyph-name="Ecircumflex" unicode="&#xca;" horiz-adv-x="1177" 
d="M276 1571l345 201h8l348 -201l-47 -62l-305 166l-308 -166zM227 0v1434h793v-107h-680v-547h618v-106h-618v-568h700v-106h-813z" />
    <glyph glyph-name="Edieresis" unicode="&#xcb;" horiz-adv-x="1177" 
d="M869 1577q-32 1 -54 19t-22 50t23 49q24 17 54 17t53 -18q21 -18 21 -49t-21 -50q-22 -18 -54 -18zM392 1712q30 0 52 -18t23 -49q0 -31 -23 -49q-24 -18 -54 -19q-30 1 -52 19t-23 50q0 32 23 49q24 17 54 17zM227 0v1434h793v-107h-680v-547h618v-106h-618v-568h700
v-106h-813z" />
    <glyph glyph-name="Igrave" unicode="&#xcc;" horiz-adv-x="665" 
d="M381 1511l-375 177l41 90l365 -203zM276 0v1434h113v-1434h-113z" />
    <glyph glyph-name="Iacute" unicode="&#xcd;" horiz-adv-x="665" 
d="M659 1688l-372 -177l-33 64l367 203zM276 0v1434h113v-1434h-113z" />
    <glyph glyph-name="Icircumflex" unicode="&#xce;" horiz-adv-x="665" 
d="M-16 1571l344 201h8l348 -201l-47 -62l-305 166l-307 -166zM276 0v1434h113v-1434h-113z" />
    <glyph glyph-name="Idieresis" unicode="&#xcf;" horiz-adv-x="665" 
d="M572 1577q-32 1 -54 19t-22 50t23 49q25 17 55 17t52 -18t22 -49t-22 -50q-22 -18 -54 -18zM94 1712q30 0 54 -18q22 -18 22 -49t-23 -49t-53 -19q-30 1 -54 19q-22 18 -22 50t23 49t53 17zM276 0v1434h113v-1434h-113z" />
    <glyph glyph-name="Eth" unicode="&#xd0;" horiz-adv-x="1552" 
d="M383 780h405v-100h-405v-574q233 -4 242 -4q334 0 516 178t182 449q0 272 -174 438t-516 166l-250 -6v-547zM270 0v680h-250v100h250v654h23l344 6q209 0 367 -56q288 -103 392 -379q46 -124 46 -268q0 -325 -214 -533t-607 -208l-332 4h-19z" />
    <glyph glyph-name="Ntilde" unicode="&#xd1;" horiz-adv-x="1632" 
d="M668 1720q62 0 164 -45t155 -45q88 0 152 68l32 -68q-80 -94 -190 -94q-55 0 -161 45t-168 45q-64 0 -132 -55l-37 67q84 82 185 82zM1405 0h-90l-981 1233v-1233h-107v1434h90l981 -1237v1237h107v-1434z" />
    <glyph glyph-name="Ograve" unicode="&#xd2;" horiz-adv-x="1658" 
d="M979 1511l-375 177l41 90l365 -203zM1430 718q0 270 -174 448q-174 180 -428 180q-255 0 -427 -180t-172 -448q0 -270 173 -450t430 -180t428 180q170 180 170 450zM111 714q0 316 204 527q205 211 513 211t514 -208t206 -525t-206 -527t-513 -210t-513 207
q-205 209 -205 525z" />
    <glyph glyph-name="Oacute" unicode="&#xd3;" horiz-adv-x="1658" 
d="M1108 1688l-373 -177l-33 64l367 203zM1430 718q0 270 -174 448q-174 180 -428 180q-255 0 -427 -180t-172 -448q0 -270 173 -450t430 -180t428 180q170 180 170 450zM111 714q0 316 204 527q205 211 513 211t514 -208t206 -525t-206 -527t-513 -210t-513 207
q-205 209 -205 525z" />
    <glyph glyph-name="Ocircumflex" unicode="&#xd4;" horiz-adv-x="1658" 
d="M487 1571l344 201h9l348 -201l-47 -62l-305 166l-308 -166zM1430 718q0 270 -174 448q-174 180 -428 180q-255 0 -427 -180t-172 -448q0 -270 173 -450t430 -180t428 180q170 180 170 450zM111 714q0 316 204 527q205 211 513 211t514 -208t206 -525t-206 -527t-513 -210
t-513 207q-205 209 -205 525z" />
    <glyph glyph-name="Otilde" unicode="&#xd5;" horiz-adv-x="1658" 
d="M672 1720q62 0 164 -45t155 -45q88 0 152 68l33 -68q-80 -94 -191 -94q-55 0 -161 45t-168 45q-64 0 -132 -55l-37 67q84 82 185 82zM1430 718q0 270 -174 448q-174 180 -428 180q-255 0 -427 -180t-172 -448q0 -270 173 -450t430 -180t428 180q170 180 170 450zM111 714
q0 316 204 527q205 211 513 211t514 -208t206 -525t-206 -527t-513 -210t-513 207q-205 209 -205 525z" />
    <glyph glyph-name="Odieresis" unicode="&#xd6;" horiz-adv-x="1658" 
d="M1072 1712q30 0 52 -18t21 -49q0 -31 -22 -49q-21 -18 -53 -19q-32 1 -54 19t-23 50q0 32 24 49q25 17 55 17zM592 1712q30 0 54 -18q22 -18 22 -49t-23 -49t-53 -19q-30 1 -54 19q-22 18 -22 50t23 49t53 17zM1430 718q0 270 -174 448q-174 180 -428 180
q-255 0 -427 -180t-172 -448q0 -270 173 -450t430 -180t428 180q170 180 170 450zM111 714q0 316 204 527q205 211 513 211t514 -208t206 -525t-206 -527t-513 -210t-513 207q-205 209 -205 525z" />
    <glyph glyph-name="multiply" unicode="&#xd7;" horiz-adv-x="1206" 
d="M248 1026l67 68l287 -291l289 291l65 -68l-286 -289l291 -291l-66 -65l-293 289l-291 -289l-65 65l291 291z" />
    <glyph glyph-name="Oslash" unicode="&#xd8;" horiz-adv-x="1658" 
d="M229 717q0 -223 123 -389l883 860q-168 158 -415 158t-419 -180t-172 -449zM1430 698q0 250 -136 424l-882 -864q170 -170 424 -170t424 180t170 430zM111 717q0 313 204 524q205 211 503 211t499 -184l98 94l62 -62l-99 -96q170 -202 170 -502t-206 -510t-508 -210
t-506 194l-97 -94l-63 65l100 97q-157 197 -157 473z" />
    <glyph glyph-name="Ugrave" unicode="&#xd9;" horiz-adv-x="1538" 
d="M891 1511l-375 177l41 90l365 -203zM1331 1434v-834q1 -309 -153 -463q-154 -153 -402 -153t-408 162t-161 468v820h112v-799q0 -257 127 -401t333 -144t323 134t117 401v809h112z" />
    <glyph glyph-name="Uacute" unicode="&#xda;" horiz-adv-x="1538" 
d="M1040 1688l-372 -177l-33 64l366 203zM1331 1434v-834q1 -309 -153 -463q-154 -153 -402 -153t-408 162t-161 468v820h112v-799q0 -257 127 -401t333 -144t323 134t117 401v809h112z" />
    <glyph glyph-name="Ucircumflex" unicode="&#xdb;" horiz-adv-x="1538" 
d="M418 1571l344 201h8l348 -201l-47 -62l-305 166l-307 -166zM1331 1434v-834q1 -309 -153 -463q-154 -153 -402 -153t-408 162t-161 468v820h112v-799q0 -257 127 -401t333 -144t323 134t117 401v809h112z" />
    <glyph glyph-name="Udieresis" unicode="&#xdc;" horiz-adv-x="1538" 
d="M926 1646q0 32 23 49q24 17 55 17q30 0 52 -18t22 -49t-22 -50q-22 -18 -54 -18t-54 18q-22 19 -22 51zM524 1577q-31 1 -53 19t-22 50t22 49q23 17 53 17t54 -18q22 -18 22 -49t-22 -50q-23 -18 -54 -18zM1331 1434v-834q1 -309 -153 -463q-154 -153 -402 -153t-408 162
t-161 468v820h112v-799q0 -257 127 -401t333 -144t323 134t117 401v809h112z" />
    <glyph glyph-name="Yacute" unicode="&#xdd;" horiz-adv-x="1196" 
d="M881 1688l-373 -177l-33 64l367 203zM651 0h-112v627l-510 807h131l440 -701l442 701h125l-516 -807v-627z" />
    <glyph glyph-name="Thorn" unicode="&#xde;" horiz-adv-x="1198" 
d="M600 1112q-178 0 -260 -6v-641q133 -10 233 -10q190 0 293 91q102 91 102 240q0 150 -95 238t-273 88zM578 348q-129 0 -238 8v-356h-113v1434h113v-220l238 5q391 0 485 -274q25 -73 24 -159q0 -184 -129 -311t-380 -127z" />
    <glyph glyph-name="germandbls" unicode="&#xdf;" horiz-adv-x="1110" 
d="M899 290q0 85 -42 140t-101 94q-60 39 -120 77q-144 91 -144 214q0 96 74 170q32 31 64 61q75 70 75 144q-1 74 -57 118t-132 44q-121 0 -178 -77t-57 -243v-1038h-107v1059q0 399 354 399q123 0 206 -69t83 -171q0 -68 -34 -122q-35 -54 -73 -86q-106 -86 -106 -159
q0 -75 42 -123t102 -84t119 -75q61 -39 103 -105t42 -155q0 -139 -88 -230t-202 -91q-204 0 -306 143l41 80q94 -123 223 -123q88 0 154 61q65 62 65 147z" />
    <glyph glyph-name="agrave" unicode="&#xe0;" horiz-adv-x="940" 
d="M520 1110l-237 291l84 63l221 -307zM408 88q172 0 282 145v154q-100 74 -220 74t-194 -49q-74 -48 -74 -138t60 -138q58 -48 146 -48zM468 940q171 0 250 -92t79 -277v-571h-107v141q-113 -154 -315 -153q-129 0 -207 74t-78 205q0 130 98 206t252 76t250 -70
q0 237 -56 298t-185 62q-128 1 -259 -71l-28 88q135 84 306 84z" />
    <glyph glyph-name="aacute" unicode="&#xe1;" horiz-adv-x="940" 
d="M664 1403l-238 -293l-66 47l222 309zM408 88q172 0 282 145v154q-100 74 -220 74t-194 -49q-74 -48 -74 -138t60 -138q58 -48 146 -48zM468 940q171 0 250 -92t79 -277v-571h-107v141q-113 -154 -315 -153q-129 0 -207 74t-78 205q0 130 98 206t252 76t250 -70
q0 237 -56 298t-185 62q-128 1 -259 -71l-28 88q135 84 306 84z" />
    <glyph glyph-name="acircumflex" unicode="&#xe2;" horiz-adv-x="940" 
d="M475 1448l262 -268l-51 -66l-215 215l-219 -213l-53 64l268 268h8zM408 88q172 0 282 145v154q-100 74 -220 74t-194 -49q-74 -48 -74 -138t60 -138q58 -48 146 -48zM468 940q171 0 250 -92t79 -277v-571h-107v141q-113 -154 -315 -153q-129 0 -207 74t-78 205
q0 130 98 206t252 76t250 -70q0 237 -56 298t-185 62q-128 1 -259 -71l-28 88q135 84 306 84z" />
    <glyph glyph-name="atilde" unicode="&#xe3;" horiz-adv-x="940" 
d="M360 1331q49 0 118 -47t120 -47t141 78l39 -55q-109 -111 -200 -111q-45 0 -114 47q-69 48 -122 48t-141 -70l-47 51q106 106 206 106zM408 88q172 0 282 145v154q-100 74 -220 74t-194 -49q-74 -48 -74 -138t60 -138q58 -48 146 -48zM468 940q171 0 250 -92t79 -277
v-571h-107v141q-113 -154 -315 -153q-129 0 -207 74t-78 205q0 130 98 206t252 76t250 -70q0 237 -56 298t-185 62q-128 1 -259 -71l-28 88q135 84 306 84z" />
    <glyph glyph-name="adieresis" unicode="&#xe4;" horiz-adv-x="940" 
d="M741 1265q0 -31 -19 -51t-47 -20q-27 0 -47 20t-20 51q0 32 20 50t47 18q28 0 47 -19t19 -49zM315 1265q0 -31 -19 -51t-47 -20q-27 0 -47 20t-20 51q0 32 20 50t47 18q28 0 47 -19t19 -49zM408 88q172 0 282 145v154q-100 74 -220 74t-194 -49q-74 -48 -74 -138t60 -138
q58 -48 146 -48zM468 940q171 0 250 -92t79 -277v-571h-107v141q-113 -154 -315 -153q-129 0 -207 74t-78 205q0 130 98 206t252 76t250 -70q0 237 -56 298t-185 62q-128 1 -259 -71l-28 88q135 84 306 84z" />
    <glyph glyph-name="aring" unicode="&#xe5;" horiz-adv-x="940" 
d="M317 1257q0 -61 42 -104q41 -43 103 -43t104 43t42 104t-42 105t-103 45q-61 0 -104 -44q-42 -45 -42 -106zM246 1257q0 89 62 151t154 62t154 -62q64 -62 64 -150t-64 -150q-64 -61 -154 -61q-91 0 -154 61q-62 61 -62 149zM408 88q172 0 282 145v154q-100 74 -220 74
t-194 -49q-74 -48 -74 -138t60 -138q58 -48 146 -48zM468 940q171 0 250 -92t79 -277v-571h-107v141q-113 -154 -315 -153q-129 0 -207 74t-78 205q0 130 98 206t252 76t250 -70q0 237 -56 298t-185 62q-128 1 -259 -71l-28 88q135 84 306 84z" />
    <glyph glyph-name="ae" unicode="&#xe6;" horiz-adv-x="1615" 
d="M408 88q172 0 282 145v201q-133 27 -236 27q-104 0 -178 -49q-74 -48 -74 -138t60 -138q58 -48 146 -48zM797 571v-45h618q-2 146 -88 230t-231 84q-211 0 -305 -170q6 -48 6 -99zM455 940q223 0 299 -145q125 145 352 145q180 0 299 -115t119 -301q0 -49 -6 -86h-721
v-182q100 -174 338 -174q190 0 299 113l34 -82q-124 -131 -356 -131t-369 163q-152 -158 -350 -157q-141 0 -222 74t-81 204q0 131 98 207t244 76t258 -27q10 162 -44 240t-189 78t-267 -72l-28 88q135 84 293 84z" />
    <glyph glyph-name="ccedilla" unicode="&#xe7;" horiz-adv-x="1003" 
d="M534 -346q68 0 108 26t40 68q0 96 -145 96h-13v142q-192 16 -310 145t-118 331t131 340t328 138q238 0 358 -115l-51 -86q-111 101 -276 101t-271 -109t-106 -275t108 -271q109 -103 281 -103t281 127l53 -78q-56 -72 -150 -111t-196 -38v-84q203 -6 202 -156
q0 -70 -62 -114t-166 -44t-202 60l33 55q75 -45 143 -45z" />
    <glyph glyph-name="egrave" unicode="&#xe8;" horiz-adv-x="1073" 
d="M586 1110l-238 291l84 63l221 -307zM550 840q-148 0 -237 -87q-90 -87 -104 -227h663q-2 146 -88 230t-234 84zM584 -18q-217 0 -353 131q-135 131 -135 344t124 348t343 135q180 0 299 -115t119 -301q0 -49 -6 -86h-760q7 -166 109 -261t280 -95t287 113l35 -82
q-125 -131 -342 -131z" />
    <glyph glyph-name="eacute" unicode="&#xe9;" horiz-adv-x="1073" 
d="M786 1403l-237 -293l-66 47l222 309zM550 840q-148 0 -237 -87q-90 -87 -104 -227h663q-2 146 -88 230t-234 84zM584 -18q-217 0 -353 131q-135 131 -135 344t124 348t343 135q180 0 299 -115t119 -301q0 -49 -6 -86h-760q7 -166 109 -261t280 -95t287 113l35 -82
q-125 -131 -342 -131z" />
    <glyph glyph-name="ecircumflex" unicode="&#xea;" horiz-adv-x="1073" 
d="M563 1448l262 -268l-51 -66l-215 215l-219 -213l-53 64l268 268h8zM550 840q-148 0 -237 -87q-90 -87 -104 -227h663q-2 146 -88 230t-234 84zM584 -18q-217 0 -353 131q-135 131 -135 344t124 348t343 135q180 0 299 -115t119 -301q0 -49 -6 -86h-760q7 -166 109 -261
t280 -95t287 113l35 -82q-125 -131 -342 -131z" />
    <glyph glyph-name="edieresis" unicode="&#xeb;" horiz-adv-x="1073" 
d="M823 1265q0 -31 -19 -51t-47 -20q-27 0 -47 20t-20 51q0 32 20 50t47 18q28 0 47 -19t19 -49zM397 1265q0 -31 -19 -51t-47 -20q-27 0 -47 20t-20 51q0 32 20 50t47 18q28 0 47 -19t19 -49zM550 840q-148 0 -237 -87q-90 -87 -104 -227h663q-2 146 -88 230t-234 84z
M584 -18q-217 0 -353 131q-135 131 -135 344t124 348t343 135q180 0 299 -115t119 -301q0 -49 -6 -86h-760q7 -166 109 -261t280 -95t287 113l35 -82q-125 -131 -342 -131z" />
    <glyph glyph-name="igrave" unicode="&#xec;" horiz-adv-x="534" 
d="M266 1110l-237 291l84 63l221 -307zM213 0v922h106v-922h-106z" />
    <glyph glyph-name="iacute" unicode="&#xed;" horiz-adv-x="534" 
d="M485 1403l-237 -293l-66 47l221 309zM213 0v922h106v-922h-106z" />
    <glyph glyph-name="icircumflex" unicode="&#xee;" horiz-adv-x="534" 
d="M274 1448l263 -268l-52 -66l-215 215l-219 -213l-53 64l268 268h8zM213 0v922h106v-922h-106z" />
    <glyph glyph-name="idieresis" unicode="&#xef;" horiz-adv-x="534" 
d="M481 1194q-27 0 -47 20t-20 51q0 32 19 50t47 18t47 -19t19 -49q0 -31 -18 -51q-20 -20 -47 -20zM55 1194q-27 0 -47 20t-20 51q0 32 19 50t47 18t47 -19t19 -49q0 -31 -18 -51q-20 -20 -47 -20zM213 0v922h106v-922h-106z" />
    <glyph glyph-name="eth" unicode="&#xf0;" horiz-adv-x="1161" 
d="M209 461q0 -167 104 -273q103 -106 269 -106t269 124t99 331q-20 121 -120 212t-256 91q-154 0 -260 -106t-105 -273zM1063 528q0 -252 -133 -399t-348 -147t-351 135q-135 135 -135 344t135 344t349 135q114 0 204 -57t140 -158q-51 270 -248 481l-260 -125l-33 95
l217 102q-104 90 -233 149l118 25q111 -51 205 -131l215 104l33 -94l-170 -82q141 -145 218 -335t77 -386z" />
    <glyph glyph-name="ntilde" unicode="&#xf1;" horiz-adv-x="1128" 
d="M455 1331q49 0 117 -47t120 -47q51 0 142 78l38 -55q-109 -111 -200 -111q-45 0 -114 47q-69 48 -122 48t-141 -70l-47 51q106 106 207 106zM162 0v922h106v-129q54 61 146 103t186 42q190 0 288 -99t97 -313v-526h-106v506q0 332 -304 332q-90 0 -174 -41t-133 -101
v-696h-106z" />
    <glyph glyph-name="ograve" unicode="&#xf2;" horiz-adv-x="1161" 
d="M608 1110l-237 291l84 63l221 -307zM209 461q0 -167 104 -273q103 -106 267 -106t267 105t103 273t-104 273q-104 107 -265 107t-267 -106t-105 -273zM96 461q0 209 135 344t349 135t348 -135q135 -135 135 -344t-135 -344t-348 -135t-349 135q-135 135 -135 344z" />
    <glyph glyph-name="oacute" unicode="&#xf3;" horiz-adv-x="1161" 
d="M791 1403l-238 -293l-66 47l222 309zM209 461q0 -167 104 -273q103 -106 267 -106t267 105t103 273t-104 273q-104 107 -265 107t-267 -106t-105 -273zM96 461q0 209 135 344t349 135t348 -135q135 -135 135 -344t-135 -344t-348 -135t-349 135q-135 135 -135 344z" />
    <glyph glyph-name="ocircumflex" unicode="&#xf4;" horiz-adv-x="1161" 
d="M586 1448l262 -268l-51 -66l-215 215l-220 -213l-53 64l269 268h8zM209 461q0 -167 104 -273q103 -106 267 -106t267 105t103 273t-104 273q-104 107 -265 107t-267 -106t-105 -273zM96 461q0 209 135 344t349 135t348 -135q135 -135 135 -344t-135 -344t-348 -135
t-349 135q-135 135 -135 344z" />
    <glyph glyph-name="otilde" unicode="&#xf5;" horiz-adv-x="1161" 
d="M471 1331q49 0 118 -47t119 -47t142 78l39 -55q-109 -111 -201 -111q-45 0 -114 47q-69 48 -122 48t-141 -70l-47 51q106 106 207 106zM209 461q0 -167 104 -273q103 -106 267 -106t267 105t103 273t-104 273q-104 107 -265 107t-267 -106t-105 -273zM96 461
q0 209 135 344t349 135t348 -135q135 -135 135 -344t-135 -344t-348 -135t-349 135q-135 135 -135 344z" />
    <glyph glyph-name="odieresis" unicode="&#xf6;" horiz-adv-x="1161" 
d="M866 1265q0 -31 -19 -51t-46 -20t-47 20t-21 51q-1 32 19 50t48 18t47 -19t19 -49zM440 1265q0 -31 -19 -51t-46 -20t-47 20t-21 51q-1 32 19 50t48 18t47 -19t19 -49zM209 461q0 -167 104 -273q103 -106 267 -106t267 105t103 273t-104 273q-104 107 -265 107t-267 -106
t-105 -273zM96 461q0 209 135 344t349 135t348 -135q135 -135 135 -344t-135 -344t-348 -135t-349 135q-135 135 -135 344z" />
    <glyph glyph-name="divide" unicode="&#xf7;" horiz-adv-x="1206" 
d="M145 690v94h914v-94h-914zM532 307q0 29 20 49t50 20q31 0 51 -20q21 -20 21 -49t-20 -51t-51 -20q-31 0 -51 21t-20 50zM532 1166q0 28 20 50t50 21q31 0 51 -22q21 -21 21 -49t-20 -50t-51 -22t-51 22t-20 50z" />
    <glyph glyph-name="oslash" unicode="&#xf8;" horiz-adv-x="1161" 
d="M950 461q0 125 -63 221l-537 -526q96 -74 245 -74t252 106t103 273zM574 840q-154 0 -260 -106t-105 -262q0 -154 76 -253l542 531q-99 90 -253 90zM96 470q0 200 135 335t337 135t337 -115l105 103l59 -66l-102 -102q96 -124 96 -316t-135 -327t-348 -135
q-176 0 -308 98l-108 -107l-62 68l105 102q-111 127 -111 327z" />
    <glyph glyph-name="ugrave" unicode="&#xf9;" horiz-adv-x="1114" 
d="M582 1110l-238 291l84 63l221 -307zM950 922v-922h-106v145q-54 -71 -150 -117t-200 -46q-352 0 -353 405v535h107v-512q0 -328 284 -328q90 0 176 48t136 112v680h106z" />
    <glyph glyph-name="uacute" unicode="&#xfa;" horiz-adv-x="1114" 
d="M770 1403l-238 -293l-65 47l221 309zM950 922v-922h-106v145q-54 -71 -150 -117t-200 -46q-352 0 -353 405v535h107v-512q0 -328 284 -328q90 0 176 48t136 112v680h106z" />
    <glyph glyph-name="ucircumflex" unicode="&#xfb;" horiz-adv-x="1114" 
d="M555 1448l262 -268l-51 -66l-215 215l-219 -213l-53 64l268 268h8zM950 922v-922h-106v145q-54 -71 -150 -117t-200 -46q-352 0 -353 405v535h107v-512q0 -328 284 -328q90 0 176 48t136 112v680h106z" />
    <glyph glyph-name="udieresis" unicode="&#xfc;" horiz-adv-x="1114" 
d="M769 1194q-27 0 -47 20t-20 51q0 32 20 50t47 18q28 0 47 -19q20 -19 20 -49q0 -31 -20 -51t-47 -20zM343 1194q-27 0 -47 20t-20 51q0 32 20 50t47 18q28 0 47 -19q20 -19 20 -49q0 -31 -20 -51t-47 -20zM950 922v-922h-106v145q-54 -71 -150 -117t-200 -46
q-352 0 -353 405v535h107v-512q0 -328 284 -328q90 0 176 48t136 112v680h106z" />
    <glyph glyph-name="yacute" unicode="&#xfd;" horiz-adv-x="985" 
d="M700 1403l-237 -293l-66 47l221 309zM248 -410q-88 0 -168 48l35 81q66 -31 108 -30q70 0 125 60t115 202l20 49l-454 922h127l315 -652l66 -143q10 35 51 147l248 648h120l-372 -922q-98 -240 -173 -325t-163 -85z" />
    <glyph glyph-name="thorn" unicode="&#xfe;" horiz-adv-x="1134" 
d="M578 840q-92 0 -178 -42t-132 -102v-530q127 -84 290 -84t264 108q102 108 102 278q0 168 -91 270t-255 102zM162 -410v1844h106v-629q56 59 148 97t190 38q197 0 314 -129q116 -129 116 -339t-131 -350t-331 -140t-306 77v-469h-106z" />
    <glyph glyph-name="ydieresis" unicode="&#xff;" horiz-adv-x="985" 
d="M778 1265q0 -31 -19 -51t-47 -20t-48 20t-19 51q-1 32 19 50t48 18t47 -19t19 -49zM352 1265q0 -31 -19 -51t-47 -20t-48 20t-19 51q-1 32 19 50t48 18t47 -19t19 -49zM248 -410q-88 0 -168 48l35 81q66 -31 108 -30q70 0 125 60t115 202l20 49l-454 922h127l315 -652
l66 -143q10 35 51 147l248 648h120l-372 -922q-98 -240 -173 -325t-163 -85z" />
    <glyph glyph-name="Amacron" unicode="&#x100;" horiz-adv-x="1427" 
d="M406 1593v88h614v-88h-614zM711 1290l-299 -696h596zM43 0l625 1446h92l624 -1446h-120l-209 487h-688l-209 -487h-115z" />
    <glyph glyph-name="amacron" unicode="&#x101;" horiz-adv-x="940" 
d="M215 1237v88h516v-88h-516zM408 88q172 0 282 145v154q-100 74 -220 74t-194 -49q-74 -48 -74 -138t60 -138q58 -48 146 -48zM468 940q171 0 250 -92t79 -277v-571h-107v141q-113 -154 -315 -153q-129 0 -207 74t-78 205q0 130 98 206t252 76t250 -70q0 237 -56 298
t-185 62q-128 1 -259 -71l-28 88q135 84 306 84z" />
    <glyph glyph-name="Abreve" unicode="&#x102;" horiz-adv-x="1427" 
d="M718 1632q175 0 288 137l43 -57q-49 -74 -137 -124t-200 -50t-203 55t-132 121l49 55q117 -137 292 -137zM711 1290l-299 -696h596zM43 0l625 1446h92l624 -1446h-120l-209 487h-688l-209 -487h-115z" />
    <glyph glyph-name="abreve" unicode="&#x103;" horiz-adv-x="940" 
d="M473 1262q131 0 238 131l41 -54q-120 -166 -294 -166t-278 166l49 56q113 -133 244 -133zM408 88q172 0 282 145v154q-100 74 -220 74t-194 -49q-74 -48 -74 -138t60 -138q58 -48 146 -48zM468 940q171 0 250 -92t79 -277v-571h-107v141q-113 -154 -315 -153
q-129 0 -207 74t-78 205q0 130 98 206t252 76t250 -70q0 237 -56 298t-185 62q-128 1 -259 -71l-28 88q135 84 306 84z" />
    <glyph glyph-name="Aogonek" unicode="&#x104;" horiz-adv-x="1427" 
d="M711 1290l-299 -696h596zM1224 -410q-91 0 -161 44t-70 140t75 158q75 63 187 86l-200 469h-688l-209 -487h-115l625 1446h92l624 -1446h-24q-100 0 -180 -55t-80 -131t47 -106t101 -30t93 19l33 -68q-59 -39 -150 -39z" />
    <glyph glyph-name="aogonek" unicode="&#x105;" horiz-adv-x="940" 
d="M408 88q172 0 282 145v154q-100 74 -220 74t-194 -49q-74 -48 -74 -138t60 -138q58 -48 146 -48zM661 -410q-91 0 -161 44t-70 140t75 158q75 63 185 86v123q-113 -154 -315 -153q-129 0 -207 74t-78 205q0 130 98 206t252 76t250 -70q0 237 -56 298t-184 62t-260 -71
l-28 88q135 84 306 84t250 -92t79 -277v-571q-101 0 -181 -55t-80 -131t48 -106q47 -30 101 -30t93 19l33 -68q-59 -39 -150 -39z" />
    <glyph glyph-name="Cacute" unicode="&#x106;" horiz-adv-x="1343" 
d="M1069 1688l-373 -177l-32 64l366 203zM829 -18q-323 0 -521 200t-198 526q0 324 193 534t510 210q272 0 434 -135l-53 -84q-147 113 -393 113t-409 -178t-163 -454q0 -278 169 -452t440 -174q225 0 391 135l45 -84q-74 -73 -195 -115t-250 -42z" />
    <glyph glyph-name="cacute" unicode="&#x107;" horiz-adv-x="1003" 
d="M770 1403l-238 -293l-65 47l221 309zM96 454q0 210 131 348t328 138q238 0 358 -115l-51 -86q-111 101 -276 101t-271 -109t-106 -275t108 -271q109 -103 281 -103t281 127l53 -78q-56 -72 -150 -111t-198 -38q-215 0 -352 131q-136 131 -136 341z" />
    <glyph glyph-name="Ccircumflex" unicode="&#x108;" horiz-adv-x="1343" 
d="M455 1571l344 201h8l348 -201l-47 -62l-305 166l-307 -166zM829 -18q-323 0 -521 200t-198 526q0 324 193 534t510 210q272 0 434 -135l-53 -84q-147 113 -393 113t-409 -178t-163 -454q0 -278 169 -452t440 -174q225 0 391 135l45 -84q-74 -73 -195 -115t-250 -42z" />
    <glyph glyph-name="ccircumflex" unicode="&#x109;" horiz-adv-x="1003" 
d="M573 1448l263 -268l-52 -66l-215 215l-219 -213l-53 64l268 268h8zM96 454q0 210 131 348t328 138q238 0 358 -115l-51 -86q-111 101 -276 101t-271 -109t-106 -275t108 -271q109 -103 281 -103t281 127l53 -78q-56 -72 -150 -111t-198 -38q-215 0 -352 131
q-136 131 -136 341z" />
    <glyph glyph-name="Cdotaccent" unicode="&#x10a;" horiz-adv-x="1343" 
d="M778 1575q-34 1 -56 21t-22 54t24 54t56 20t55 -20t23 -54t-23 -55q-24 -20 -57 -20zM829 -18q-323 0 -521 200t-198 526q0 324 193 534t510 210q272 0 434 -135l-53 -84q-147 113 -393 113t-409 -178t-163 -454q0 -278 169 -452t440 -174q225 0 391 135l45 -84
q-74 -73 -195 -115t-250 -42z" />
    <glyph glyph-name="cdotaccent" unicode="&#x10b;" horiz-adv-x="1003" 
d="M502 1278q0 33 22 51q23 19 52 19q28 0 50 -20t22 -51q0 -32 -21 -52q-20 -21 -51 -21q-30 0 -52 20t-22 54zM96 454q0 210 131 348t328 138q238 0 358 -115l-51 -86q-111 101 -276 101t-271 -109t-106 -275t108 -271q109 -103 281 -103t281 127l53 -78
q-56 -72 -150 -111t-198 -38q-215 0 -352 131q-136 131 -136 341z" />
    <glyph glyph-name="Ccaron" unicode="&#x10c;" horiz-adv-x="1343" 
d="M803 1516l-350 200l47 62l307 -170l305 170l43 -60l-344 -202h-8zM829 -18q-323 0 -521 200t-198 526q0 324 193 534t510 210q272 0 434 -135l-53 -84q-147 113 -393 113t-409 -178t-163 -454q0 -278 169 -452t440 -174q225 0 391 135l45 -84q-74 -73 -195 -115t-250 -42
z" />
    <glyph glyph-name="ccaron" unicode="&#x10d;" horiz-adv-x="1003" 
d="M571 1118l-266 271l53 63l217 -227l218 227l51 -63l-264 -271h-9zM96 454q0 210 131 348t328 138q238 0 358 -115l-51 -86q-111 101 -276 101t-271 -109t-106 -275t108 -271q109 -103 281 -103t281 127l53 -78q-56 -72 -150 -111t-198 -38q-215 0 -352 131
q-136 131 -136 341z" />
    <glyph glyph-name="Dcaron" unicode="&#x10e;" horiz-adv-x="1509" 
d="M686 1516l-350 200l47 62l307 -170l305 170l43 -60l-344 -202h-8zM582 102q334 0 516 178t182 449q0 272 -174 438t-516 166l-250 -6v-1221q233 -4 242 -4zM227 0v1434h23l344 6q209 0 367 -56q288 -103 392 -379q46 -124 46 -268q0 -325 -214 -533t-607 -208l-332 4h-19
z" />
    <glyph glyph-name="dcaron" unicode="&#x10f;" horiz-adv-x="1132" 
d="M1204 1339q0 54 -20 95h102q18 -32 18 -108t-43 -149q-44 -73 -110 -106l-47 49q100 76 100 219zM567 84q86 0 167 43t130 102v527q-124 84 -276 84t-266 -106t-113 -276q0 -170 99 -272t259 -102zM864 0v131q-130 -147 -326 -147t-319 129t-123 343t142 349t360 135
q158 0 266 -80v574h107v-1434h-107z" />
    <glyph glyph-name="Dcroat" unicode="&#x110;" horiz-adv-x="1552" 
d="M383 780h405v-100h-405v-574q233 -4 242 -4q334 0 516 178t182 449q0 272 -174 438t-516 166l-250 -6v-547zM270 0v680h-250v100h250v654h23l344 6q209 0 367 -56q288 -103 392 -379q46 -124 46 -268q0 -325 -214 -533t-607 -208l-332 4h-19z" />
    <glyph glyph-name="dcroat" unicode="&#x111;" horiz-adv-x="1132" 
d="M567 84q86 0 167 43t130 102v527q-124 84 -276 84t-266 -106t-113 -276q0 -170 99 -272t259 -102zM500 1116v88h364v230h107v-230h211v-88h-211v-1116h-107v131q-130 -147 -326 -147t-319 129t-123 343t142 349t360 135q158 0 266 -80v256h-364z" />
    <glyph glyph-name="Emacron" unicode="&#x112;" horiz-adv-x="1177" 
d="M315 1593v88h615v-88h-615zM227 0v1434h793v-107h-680v-547h618v-106h-618v-568h700v-106h-813z" />
    <glyph glyph-name="emacron" unicode="&#x113;" horiz-adv-x="1073" 
d="M285 1237v88h516v-88h-516zM550 840q-148 0 -237 -87q-90 -87 -104 -227h663q-2 146 -88 230t-234 84zM584 -18q-217 0 -353 131q-135 131 -135 344t124 348t343 135q180 0 299 -115t119 -301q0 -49 -6 -86h-760q7 -166 109 -261t280 -95t287 113l35 -82
q-125 -131 -342 -131z" />
    <glyph glyph-name="Edotaccent" unicode="&#x116;" horiz-adv-x="1177" 
d="M551 1650q0 34 23 54q24 20 56 20t56 -20t23 -54q0 -34 -24 -54q-25 -20 -57 -21q-32 0 -55 20q-22 21 -22 55zM227 0v1434h793v-107h-680v-547h618v-106h-618v-568h700v-106h-813z" />
    <glyph glyph-name="edotaccent" unicode="&#x117;" horiz-adv-x="1073" 
d="M469 1278q0 33 23 51q24 19 52 19t50 -20t20 -51q0 -32 -20 -52q-20 -21 -51 -21t-53 20t-21 54zM550 840q-148 0 -237 -87q-90 -87 -104 -227h663q-2 146 -88 230t-234 84zM584 -18q-217 0 -353 131q-135 131 -135 344t124 348t343 135q180 0 299 -115t119 -301
q0 -49 -6 -86h-760q7 -166 109 -261t280 -95t287 113l35 -82q-125 -131 -342 -131z" />
    <glyph glyph-name="Eogonek" unicode="&#x118;" horiz-adv-x="1177" 
d="M227 0v1434h793v-107h-680v-547h618v-106h-618v-568h700v-106q-100 0 -180 -55t-80 -131t47 -106t101 -30t94 19l33 -68q-59 -39 -151 -39t-161 44q-70 44 -69 143q0 154 196 223h-643z" />
    <glyph glyph-name="eogonek" unicode="&#x119;" horiz-adv-x="1073" 
d="M550 840q-148 0 -237 -87q-90 -87 -104 -227h663q-2 146 -88 230t-234 84zM614 -190q0 -70 48 -101t101 -31q54 0 93 19l33 -68q-59 -39 -151 -39t-160 44q-70 44 -70 143q0 123 143 209q-45 -4 -65 -4q-219 0 -355 131q-135 131 -135 344t124 348t343 135
q180 0 299 -115t119 -301q0 -49 -6 -86h-760q7 -166 109 -261t280 -95t287 113l35 -82q-66 -68 -162 -101q-150 -94 -150 -202z" />
    <glyph glyph-name="Ecaron" unicode="&#x11a;" horiz-adv-x="1177" 
d="M639 1516l-350 200l47 62l307 -170l305 170l43 -60l-344 -202h-8zM227 0v1434h793v-107h-680v-547h618v-106h-618v-568h700v-106h-813z" />
    <glyph glyph-name="ecaron" unicode="&#x11b;" horiz-adv-x="1073" 
d="M559 1118l-266 271l53 63l217 -227l217 227l51 -63l-264 -271h-8zM550 840q-148 0 -237 -87q-90 -87 -104 -227h663q-2 146 -88 230t-234 84zM584 -18q-217 0 -353 131q-135 131 -135 344t124 348t343 135q180 0 299 -115t119 -301q0 -49 -6 -86h-760q7 -166 109 -261
t280 -95t287 113l35 -82q-125 -131 -342 -131z" />
    <glyph glyph-name="Gcircumflex" unicode="&#x11c;" horiz-adv-x="1488" 
d="M455 1571l344 201h8l348 -201l-47 -62l-305 166l-307 -166zM831 588v106h527v-516q-92 -92 -244 -144t-293 -52q-323 0 -517 200t-194 526q0 324 194 534t503 210q270 0 442 -135l-51 -88q-137 117 -389 117t-416 -176t-164 -458q0 -280 165 -452t431 -172q119 0 239 41
t187 109v350h-420z" />
    <glyph glyph-name="gcircumflex" unicode="&#x11d;" horiz-adv-x="1003" 
d="M502 1448l262 -268l-51 -66l-215 215l-219 -213l-54 64l269 268h8zM231 614q0 -98 72 -164q73 -66 185 -65q112 0 184 66q72 65 72 163t-73 164t-184 66t-183 -66t-73 -164zM137 -134q0 -92 95 -144t257 -52t257 52q96 52 96 142t-96 145q-96 54 -256 54q-161 0 -257 -53
t-96 -144zM29 -135q0 106 74 177q75 71 208 99q-31 37 -31 89t35 92q-90 38 -141 116t-51 176q0 142 100 234q99 92 247 92t249 -70h2l262 70v-100l-186 -47q55 -82 55 -179q0 -139 -101 -232t-264 -93q-53 0 -92 8q-18 -27 -18 -70t26 -71q57 4 86 4q209 0 335 -77
t126 -217t-127 -216t-335 -76t-334 75t-125 216z" />
    <glyph glyph-name="Gbreve" unicode="&#x11e;" horiz-adv-x="1488" 
d="M824 1632q175 0 288 137l43 -57q-49 -74 -136 -124t-200 -50t-204 55t-132 121l49 55q117 -137 292 -137zM831 588v106h527v-516q-92 -92 -244 -144t-293 -52q-323 0 -517 200t-194 526q0 324 194 534t503 210q270 0 442 -135l-51 -88q-137 117 -389 117t-416 -176
t-164 -458q0 -280 165 -452t431 -172q119 0 239 41t187 109v350h-420z" />
    <glyph glyph-name="gbreve" unicode="&#x11f;" horiz-adv-x="1003" 
d="M500 1262q131 0 237 131l41 -54q-119 -166 -293 -166t-278 166l49 56q113 -133 244 -133zM231 614q0 -98 72 -164q73 -66 185 -65q112 0 184 66q72 65 72 163t-73 164t-184 66t-183 -66t-73 -164zM137 -134q0 -92 95 -144t257 -52t257 52q96 52 96 142t-96 145
q-96 54 -256 54q-161 0 -257 -53t-96 -144zM29 -135q0 106 74 177q75 71 208 99q-31 37 -31 89t35 92q-90 38 -141 116t-51 176q0 142 100 234q99 92 247 92t249 -70h2l262 70v-100l-186 -47q55 -82 55 -179q0 -139 -101 -232t-264 -93q-53 0 -92 8q-18 -27 -18 -70t26 -71
q57 4 86 4q209 0 335 -77t126 -217t-127 -216t-335 -76t-334 75t-125 216z" />
    <glyph glyph-name="Gdotaccent" unicode="&#x120;" horiz-adv-x="1488" 
d="M786 1575q-33 1 -55 21t-22 54t23 54q24 20 56 20t55 -20t23 -54t-23 -55q-24 -20 -57 -20zM831 588v106h527v-516q-92 -92 -244 -144t-293 -52q-323 0 -517 200t-194 526q0 324 194 534t503 210q270 0 442 -135l-51 -88q-137 117 -389 117t-416 -176t-164 -458
q0 -280 165 -452t431 -172q119 0 239 41t187 109v350h-420z" />
    <glyph glyph-name="gdotaccent" unicode="&#x121;" horiz-adv-x="1003" 
d="M420 1278q0 33 22 51q23 19 52 19q28 0 50 -20t22 -51q0 -32 -21 -52q-20 -21 -51 -21q-30 0 -52 20t-22 54zM231 614q0 -98 72 -164q73 -66 185 -65q112 0 184 66q72 65 72 163t-73 164t-184 66t-183 -66t-73 -164zM137 -134q0 -92 95 -144t257 -52t257 52q96 52 96 142
t-96 145q-96 54 -256 54q-161 0 -257 -53t-96 -144zM29 -135q0 106 74 177q75 71 208 99q-31 37 -31 89t35 92q-90 38 -141 116t-51 176q0 142 100 234q99 92 247 92t249 -70h2l262 70v-100l-186 -47q55 -82 55 -179q0 -139 -101 -232t-264 -93q-53 0 -92 8q-18 -27 -18 -70
t26 -71q57 4 86 4q209 0 335 -77t126 -217t-127 -216t-335 -76t-334 75t-125 216z" />
    <glyph glyph-name="Gcommaaccent" unicode="&#x122;" horiz-adv-x="1488" 
d="M741 -145l93 32q72 -14 71 -102q0 -152 -174 -199l-31 49q98 39 99 134q-1 68 -58 86zM831 588v106h527v-516q-92 -92 -244 -144t-293 -52q-323 0 -517 200t-194 526q0 324 194 534t503 210q270 0 442 -135l-51 -88q-137 117 -389 117t-416 -176t-164 -458
q0 -280 165 -452t431 -172q119 0 239 41t187 109v350h-420z" />
    <glyph glyph-name="gcommaaccent" unicode="&#x123;" horiz-adv-x="1003" 
d="M397 1233q0 152 174 199l31 -50q-98 -39 -98 -133q0 -68 57 -86l-92 -33q-72 14 -72 103zM231 614q0 -98 72 -164q73 -66 185 -65q112 0 184 66q72 65 72 163t-73 164t-184 66t-183 -66t-73 -164zM137 -134q0 -92 95 -144t257 -52t257 52q96 52 96 142t-96 145
q-96 54 -256 54q-161 0 -257 -53t-96 -144zM29 -135q0 106 74 177q75 71 208 99q-31 37 -31 89t35 92q-90 38 -141 116t-51 176q0 142 100 234q99 92 247 92t249 -70h2l262 70v-100l-186 -47q55 -82 55 -179q0 -139 -101 -232t-264 -93q-53 0 -92 8q-18 -27 -18 -70t26 -71
q57 4 86 4q209 0 335 -77t126 -217t-127 -216t-335 -76t-334 75t-125 216z" />
    <glyph glyph-name="Hcircumflex" unicode="&#x124;" horiz-adv-x="1574" 
d="M438 1571l344 201h9l348 -201l-47 -62l-306 166l-307 -166zM1235 0v678h-895v-678h-113v1434h113v-650h895v650h113v-1434h-113z" />
    <glyph glyph-name="hcircumflex" unicode="&#x125;" horiz-adv-x="1128" 
d="M-20 1571l344 201h8l348 -201l-47 -62l-305 166l-308 -166zM162 0v1434h106v-637q54 61 146 101t186 40q385 0 385 -414v-524h-106v508q0 330 -304 330q-90 0 -175 -41t-132 -101v-696h-106z" />
    <glyph glyph-name="Hbar" unicode="&#x126;" horiz-adv-x="1595" 
d="M350 784h895v283h-895v-283zM55 1067v100h183v267h112v-267h895v267h113v-267h182v-100h-182v-1067h-113v678h-895v-678h-112v1067h-183z" />
    <glyph glyph-name="hbar" unicode="&#x127;" horiz-adv-x="1159" 
d="M-66 1090v100h259v244h106v-244h354v-100h-354v-293q55 61 146 101t186 40q385 0 385 -414v-524h-107v508q0 330 -303 330q-90 0 -175 -41t-132 -101v-696h-106v1090h-259z" />
    <glyph glyph-name="Imacron" unicode="&#x12a;" horiz-adv-x="665" 
d="M29 1593v88h614v-88h-614zM276 0v1434h113v-1434h-113z" />
    <glyph glyph-name="imacron" unicode="&#x12b;" horiz-adv-x="534" 
d="M8 1237v88h516v-88h-516zM213 0v922h106v-922h-106z" />
    <glyph glyph-name="Iogonek" unicode="&#x12e;" horiz-adv-x="665" 
d="M253 -410q-91 0 -161 44t-70 138t73 158q73 63 181 86v1418h113v-1434h-10q-100 -4 -175 -58t-75 -129t47 -105q48 -30 102 -30t93 19l32 -68q-59 -39 -150 -39z" />
    <glyph glyph-name="iogonek" unicode="&#x12f;" horiz-adv-x="534" 
d="M336 1277q0 -32 -20 -52q-20 -21 -52 -21q-30 0 -52 20t-22 54q0 33 23 51q23 19 51 19t50 -20t22 -51zM184 -410q-92 0 -162 44t-69 140q0 96 75 158q75 63 185 86v904h106v-922h-10q-100 -4 -175 -58t-75 -129t47 -105q48 -30 102 -30t93 19l33 -68q-58 -39 -150 -39z
" />
    <glyph glyph-name="Idotaccent" unicode="&#x130;" horiz-adv-x="665" 
d="M336 1724q32 0 54 -20q24 -20 24 -54t-24 -54t-56 -21q-32 1 -56 21q-22 20 -22 54t24 54t56 20zM276 0v1434h113v-1434h-113z" />
    <glyph glyph-name="dotlessi" unicode="&#x131;" horiz-adv-x="534" 
d="M213 0v922h106v-922h-106z" />
    <glyph glyph-name="Jcircumflex" unicode="&#x134;" horiz-adv-x="739" 
d="M92 1571l344 201h8l349 -201l-48 -62l-305 166l-307 -166zM512 1434v-1119q0 -334 -287 -333q-123 0 -196 65l41 88q63 -47 155 -47q174 0 174 244v1102h113z" />
    <glyph glyph-name="jcircumflex" unicode="&#x135;" horiz-adv-x="532" 
d="M279 1448l262 -268l-52 -66l-215 215l-219 -213l-53 64l268 268h9zM326 922v-990q0 -358 -289 -358q-117 0 -189 57l33 86q63 -43 133 -43q205 0 205 267v981h107z" />
    <glyph glyph-name="Kcommaaccent" unicode="&#x136;" horiz-adv-x="1304" 
d="M725 -215q0 -152 -174 -199l-31 49q98 39 98 134q0 68 -57 86l92 32q72 -14 72 -102zM227 0v1434h113v-1434h-113zM1219 1434l-678 -678l706 -756h-145l-694 748l673 686h138z" />
    <glyph glyph-name="kcommaaccent" unicode="&#x137;" horiz-adv-x="968" 
d="M557 -215q0 -152 -174 -199l-31 49q98 39 99 134q-1 68 -58 86l92 32q72 -14 72 -102zM162 0v1434h106v-1434h-106zM889 922l-430 -433l469 -489h-144l-456 481l422 441h139z" />
    <glyph glyph-name="Lacute" unicode="&#x139;" horiz-adv-x="1130" 
d="M872 1688l-372 -177l-33 64l367 203zM227 0v1434h113v-1328h756v-106h-869z" />
    <glyph glyph-name="lacute" unicode="&#x13a;" horiz-adv-x="577" 
d="M549 1688l-373 -177l-33 64l367 203zM162 238v1196h106v-1139q0 -107 31 -157t101 -50t130 45l27 -84q-80 -61 -195 -61q-200 0 -200 250z" />
    <glyph glyph-name="Lcommaaccent" unicode="&#x13b;" horiz-adv-x="1130" 
d="M729 -215q0 -152 -174 -199l-31 49q98 39 99 134q-1 68 -58 86l92 32q72 -14 72 -102zM227 0v1434h113v-1328h756v-106h-869z" />
    <glyph glyph-name="lcommaaccent" unicode="&#x13c;" horiz-adv-x="577" 
d="M422 -215q0 -152 -174 -199l-31 49q98 39 98 134q0 68 -57 86l92 32q72 -14 72 -102zM162 238v1196h106v-1139q0 -107 31 -157t101 -50t130 45l27 -84q-80 -61 -195 -61q-200 0 -200 250z" />
    <glyph glyph-name="Lcaron" unicode="&#x13d;" horiz-adv-x="1130" 
d="M852 1326q0 -76 -44 -149t-110 -106l-47 49q100 76 101 219q-1 54 -21 95h103q18 -32 18 -108zM227 0v1434h113v-1328h756v-106h-869z" />
    <glyph glyph-name="lcaron" unicode="&#x13e;" horiz-adv-x="577" 
d="M610 1326q0 -76 -44 -149t-109 -106l-47 49q100 76 100 219q-1 54 -21 95h103q18 -32 18 -108zM162 238v1196h106v-1139q0 -107 31 -157t101 -50t130 45l27 -84q-80 -61 -195 -61q-200 0 -200 250z" />
    <glyph glyph-name="Ldot" unicode="&#x13f;" horiz-adv-x="1130" 
d="M774 764q0 32 24 54t56 22t54 -23t22 -53t-22 -56q-22 -24 -54 -24t-56 24t-24 56zM227 0v1434h113v-1328h756v-106h-869z" />
    <glyph glyph-name="ldot" unicode="&#x140;" horiz-adv-x="620" 
d="M459 647q0 33 22 51q23 18 52 18t51 -18q22 -20 20 -52q0 -32 -22 -52t-50 -20q-30 0 -52 20t-21 53zM162 238v1196h106v-1139q0 -107 31 -157t101 -50t130 45l27 -84q-80 -61 -195 -61q-200 0 -200 250z" />
    <glyph glyph-name="Lslash" unicode="&#x141;" horiz-adv-x="1150" 
d="M248 1434h112v-695l383 193v-111l-383 -194v-521h756v-106h-868v569l-193 -96v113l193 96v752z" />
    <glyph glyph-name="lslash" unicode="&#x142;" horiz-adv-x="638" 
d="M203 1434h106v-697l232 117v-111l-232 -116v-332q0 -107 31 -157q30 -50 100 -50t131 45l27 -84q-80 -61 -195 -61q-201 0 -200 250v333l-168 -84v113l168 84v750z" />
    <glyph glyph-name="Nacute" unicode="&#x143;" horiz-adv-x="1632" 
d="M1124 1688l-372 -177l-33 64l366 203zM1405 0h-90l-981 1233v-1233h-107v1434h90l981 -1237v1237h107v-1434z" />
    <glyph glyph-name="nacute" unicode="&#x144;" horiz-adv-x="1128" 
d="M780 1403l-237 -293l-66 47l221 309zM162 0v922h106v-129q54 61 146 103t186 42q190 0 288 -99t97 -313v-526h-106v506q0 332 -304 332q-90 0 -174 -41t-133 -101v-696h-106z" />
    <glyph glyph-name="Ncommaaccent" unicode="&#x145;" horiz-adv-x="1632" 
d="M899 -215q0 -152 -174 -199l-31 49q98 39 99 134q-1 68 -58 86l92 32q72 -14 72 -102zM1405 0h-90l-981 1233v-1233h-107v1434h90l981 -1237v1237h107v-1434z" />
    <glyph glyph-name="ncommaaccent" unicode="&#x146;" horiz-adv-x="1128" 
d="M549 -231q0 68 -57 86l92 32q72 -14 71 -102q0 -152 -174 -199l-30 49q98 39 98 134zM162 0v922h106v-129q54 61 146 103t186 42q190 0 288 -99t97 -313v-526h-106v506q0 332 -304 332q-90 0 -174 -41t-133 -101v-696h-106z" />
    <glyph glyph-name="Ncaron" unicode="&#x147;" horiz-adv-x="1632" 
d="M813 1516l-350 200l47 62l307 -170l305 170l43 -60l-344 -202h-8zM1405 0h-90l-981 1233v-1233h-107v1434h90l981 -1237v1237h107v-1434z" />
    <glyph glyph-name="ncaron" unicode="&#x148;" horiz-adv-x="1128" 
d="M559 1118l-266 271l53 63l217 -227l217 227l51 -63l-264 -271h-8zM162 0v922h106v-129q54 61 146 103t186 42q190 0 288 -99t97 -313v-526h-106v506q0 332 -304 332q-90 0 -174 -41t-133 -101v-696h-106z" />
    <glyph glyph-name="Omacron" unicode="&#x14c;" horiz-adv-x="1658" 
d="M528 1593v88h615v-88h-615zM1430 718q0 270 -174 448q-174 180 -428 180q-255 0 -427 -180t-172 -448q0 -270 173 -450t430 -180t428 180q170 180 170 450zM111 714q0 316 204 527q205 211 513 211t514 -208t206 -525t-206 -527t-513 -210t-513 207q-205 209 -205 525z
" />
    <glyph glyph-name="omacron" unicode="&#x14d;" horiz-adv-x="1161" 
d="M328 1237v88h516v-88h-516zM209 461q0 -167 104 -273q103 -106 267 -106t267 105t103 273t-104 273q-104 107 -265 107t-267 -106t-105 -273zM96 461q0 209 135 344t349 135t348 -135q135 -135 135 -344t-135 -344t-348 -135t-349 135q-135 135 -135 344z" />
    <glyph glyph-name="Ohungarumlaut" unicode="&#x150;" horiz-adv-x="1658" 
d="M950 1726l-323 -215l-47 45l284 222zM1329 1710l-346 -199l-45 50l319 217zM1430 718q0 270 -174 448q-174 180 -428 180q-255 0 -427 -180t-172 -448q0 -270 173 -450t430 -180t428 180q170 180 170 450zM111 714q0 316 204 527q205 211 513 211t514 -208t206 -525
t-206 -527t-513 -210t-513 207q-205 209 -205 525z" />
    <glyph glyph-name="ohungarumlaut" unicode="&#x151;" horiz-adv-x="1161" 
d="M651 1409l-229 -299l-66 47l217 309zM971 1399l-244 -289l-65 47l231 301zM209 461q0 -167 104 -273q103 -106 267 -106t267 105t103 273t-104 273q-104 107 -265 107t-267 -106t-105 -273zM96 461q0 209 135 344t349 135t348 -135q135 -135 135 -344t-135 -344
t-348 -135t-349 135q-135 135 -135 344z" />
    <glyph glyph-name="OE" unicode="&#x152;" horiz-adv-x="2140" 
d="M838 88q205 0 352 107v1040q-150 111 -375 111q-260 0 -423 -178t-163 -454q-1 -278 169 -452t440 -174zM1190 0v74q-152 -92 -361 -92q-323 0 -521 200t-198 526q0 324 193 534t510 210q227 0 377 -94v76h792v-107h-679v-547h618v-106h-618v-568h700v-106h-813z" />
    <glyph glyph-name="oe" unicode="&#x153;" horiz-adv-x="1726" 
d="M1202 840q-148 0 -238 -87t-102 -227h662q-2 145 -88 230q-86 84 -234 84zM574 82q156 0 260 90q-84 119 -84 289t79 291q-103 88 -257 88t-258 -106t-105 -273q0 -166 104 -273q105 -106 261 -106zM1243 -18q-209 0 -338 110q-129 -110 -333 -110t-341 135
q-135 135 -135 344t135 344t336 135t332 -109q121 109 308 109t307 -115t120 -301q0 -37 -8 -86h-758q6 -166 108 -261t280 -95q177 0 286 113l35 -82q-125 -131 -334 -131z" />
    <glyph glyph-name="Racute" unicode="&#x154;" horiz-adv-x="1292" 
d="M834 1688l-373 -177l-33 64l367 203zM565 1331q-90 0 -225 -4v-618h248q143 0 255 89t111 226q0 307 -389 307zM1073 1024q0 -150 -96 -260t-244 -139l502 -625h-139l-478 602h-278v-602h-113v1434l344 4q502 0 502 -414z" />
    <glyph glyph-name="racute" unicode="&#x155;" horiz-adv-x="673" 
d="M608 1403l-237 -293l-66 47l221 309zM162 0v922h106v-123q92 139 248 139q96 0 143 -35l-36 -100q-59 35 -129 35q-137 0 -226 -150v-688h-106z" />
    <glyph glyph-name="Rcommaaccent" unicode="&#x156;" horiz-adv-x="1292" 
d="M719 -215q0 -152 -174 -199l-31 49q98 39 98 134q0 68 -57 86l92 32q72 -14 72 -102zM565 1331q-90 0 -225 -4v-618h248q143 0 255 89t111 226q0 307 -389 307zM1073 1024q0 -150 -96 -260t-244 -139l502 -625h-139l-478 602h-278v-602h-113v1434l344 4q502 0 502 -414z
" />
    <glyph glyph-name="rcommaaccent" unicode="&#x157;" horiz-adv-x="673" 
d="M293 -231q0 68 -57 86l92 32q72 -14 71 -102q0 -152 -174 -199l-30 49q98 39 98 134zM162 0v922h106v-123q92 139 248 139q96 0 143 -35l-36 -100q-59 35 -129 35q-137 0 -226 -150v-688h-106z" />
    <glyph glyph-name="Rcaron" unicode="&#x158;" horiz-adv-x="1292" 
d="M573 1516l-350 200l47 62l308 -170l305 170l43 -60l-344 -202h-9zM565 1331q-90 0 -225 -4v-618h248q143 0 255 89t111 226q0 307 -389 307zM1073 1024q0 -150 -96 -260t-244 -139l502 -625h-139l-478 602h-278v-602h-113v1434l344 4q502 0 502 -414z" />
    <glyph glyph-name="rcaron" unicode="&#x159;" horiz-adv-x="673" 
d="M387 1118l-266 271l53 63l217 -227l217 227l51 -63l-264 -271h-8zM162 0v922h106v-123q92 139 248 139q96 0 143 -35l-36 -100q-59 35 -129 35q-137 0 -226 -150v-688h-106z" />
    <glyph glyph-name="Sacute" unicode="&#x15a;" horiz-adv-x="1118" 
d="M860 1688l-373 -177l-32 64l366 203zM889 356q0 157 -148 240q-67 37 -145 69q-78 31 -157 65t-145 78t-106 117q-41 73 -41 169q0 156 113 257t307 101q119 0 221 -39t164 -106l-61 -84q-123 123 -320 123q-141 0 -223 -69t-82 -183q0 -154 148 -235q66 -36 209 -90
t223 -107q162 -109 162 -291q0 -181 -131 -285t-326 -104q-133 0 -261 56t-179 150l67 78q60 -82 164 -130t226 -48t222 72t99 196z" />
    <glyph glyph-name="sacute" unicode="&#x15b;" horiz-adv-x="856" 
d="M645 1403l-237 -293l-66 47l221 309zM639 234q0 72 -52 110q-52 39 -127 62q-75 22 -151 50t-128 87t-52 161t82 170q82 66 215 66q190 0 289 -102l-45 -80q-94 88 -242 88q-84 0 -135 -43t-51 -108t52 -105t127 -65t151 -51t127 -82q52 -56 53 -146q0 -129 -96 -197
t-236 -67q-94 0 -188 41t-128 92l60 69q37 -47 117 -78q180 -70 298 13q60 43 60 115z" />
    <glyph glyph-name="Scircumflex" unicode="&#x15c;" horiz-adv-x="1118" 
d="M209 1571l344 201h8l348 -201l-47 -62l-305 166l-307 -166zM889 356q0 157 -148 240q-67 37 -145 69q-78 31 -157 65t-145 78t-106 117q-41 73 -41 169q0 156 113 257t307 101q119 0 221 -39t164 -106l-61 -84q-123 123 -320 123q-141 0 -223 -69t-82 -183
q0 -154 148 -235q66 -36 209 -90t223 -107q162 -109 162 -291q0 -181 -131 -285t-326 -104q-133 0 -261 56t-179 150l67 78q60 -82 164 -130t226 -48t222 72t99 196z" />
    <glyph glyph-name="scircumflex" unicode="&#x15d;" horiz-adv-x="856" 
d="M440 1448l262 -268l-51 -66l-215 215l-219 -213l-53 64l268 268h8zM639 234q0 72 -52 110q-52 39 -127 62q-75 22 -151 50t-128 87t-52 161t82 170q82 66 215 66q190 0 289 -102l-45 -80q-94 88 -242 88q-84 0 -135 -43t-51 -108t52 -105t127 -65t151 -51t127 -82
q52 -56 53 -146q0 -129 -96 -197t-236 -67q-94 0 -188 41t-128 92l60 69q37 -47 117 -78q180 -70 298 13q60 43 60 115z" />
    <glyph glyph-name="Scedilla" unicode="&#x15e;" horiz-adv-x="1118" 
d="M523 -346q64 0 105 25q40 26 40 69q0 96 -146 96h-12v140q-125 8 -239 63t-160 141l67 78q60 -82 164 -130t226 -48t222 72q99 72 99 196q0 157 -148 240q-67 37 -145 69q-78 31 -157 65t-145 78t-106 117q-41 73 -41 169q0 156 113 257t307 101q119 0 221 -39t164 -106
l-61 -84q-123 123 -320 123q-141 0 -223 -69t-82 -183q0 -154 148 -235q66 -36 209 -90t223 -107q162 -109 162 -304q0 -164 -125 -267t-312 -109v-84q209 -6 209 -156q0 -70 -63 -114t-170 -44t-209 62l35 57q86 -49 150 -49z" />
    <glyph glyph-name="scedilla" unicode="&#x15f;" horiz-adv-x="856" 
d="M384 -346q68 0 109 25q40 26 39 69q0 96 -145 96h-12v142q-86 8 -164 46t-107 83l60 69q37 -47 117 -78q180 -70 298 13q60 43 60 115t-52 110q-52 39 -127 62q-75 22 -151 50t-128 87t-52 161t82 170q82 66 215 66q190 0 289 -102l-45 -80q-94 88 -242 88
q-84 0 -135 -43t-51 -108t52 -105t127 -65t151 -51t127 -82q52 -56 53 -146q0 -125 -90 -193t-226 -71v-84q203 -6 203 -156q0 -70 -62 -114t-166 -44t-202 60l33 55q74 -45 142 -45z" />
    <glyph glyph-name="Scaron" unicode="&#x160;" horiz-adv-x="1118" 
d="M567 1516l-350 200l47 62l307 -170l306 170l43 -60l-345 -202h-8zM889 356q0 157 -148 240q-67 37 -145 69q-78 31 -157 65t-145 78t-106 117q-41 73 -41 169q0 156 113 257t307 101q119 0 221 -39t164 -106l-61 -84q-123 123 -320 123q-141 0 -223 -69t-82 -183
q0 -154 148 -235q66 -36 209 -90t223 -107q162 -109 162 -291q0 -181 -131 -285t-326 -104q-133 0 -261 56t-179 150l67 78q60 -82 164 -130t226 -48t222 72t99 196z" />
    <glyph glyph-name="scaron" unicode="&#x161;" horiz-adv-x="856" 
d="M424 1118l-266 271l53 63l217 -227l217 227l51 -63l-264 -271h-8zM639 234q0 72 -52 110q-52 39 -127 62q-75 22 -151 50t-128 87t-52 161t82 170q82 66 215 66q190 0 289 -102l-45 -80q-94 88 -242 88q-84 0 -135 -43t-51 -108t52 -105t127 -65t151 -51t127 -82
q52 -56 53 -146q0 -129 -96 -197t-236 -67q-94 0 -188 41t-128 92l60 69q37 -47 117 -78q180 -70 298 13q60 43 60 115z" />
    <glyph glyph-name="Tcedilla" unicode="&#x162;" horiz-adv-x="1214" 
d="M590 -346q64 0 105 26q40 26 40 68q0 96 -145 96h-12v156h-27v1327h-531v107h1174v-107h-530v-1327h-25v-102q209 -6 209 -156q0 -70 -64 -114t-170 -44t-208 62l34 57q86 -49 150 -49z" />
    <glyph glyph-name="tcedilla" unicode="&#x163;" horiz-adv-x="712" 
d="M343 -346q68 0 109 25q40 26 40 69q0 96 -146 96h-12v156q-193 49 -193 350v828h107v-256h370v-101h-370v-454q0 -279 207 -279q82 0 147 49l35 -84q-82 -66 -207 -65q-25 0 -35 2v-92q203 -6 203 -156q0 -70 -62 -114t-166 -44t-202 60l33 55q74 -45 142 -45z" />
    <glyph glyph-name="Tcaron" unicode="&#x164;" horiz-adv-x="1214" 
d="M602 1516l-350 200l47 62l307 -170l305 170l43 -60l-344 -202h-8zM20 1327v107h1174v-107h-530v-1327h-113v1327h-531z" />
    <glyph glyph-name="tcaron" unicode="&#x165;" horiz-adv-x="712" 
d="M618 1326q0 -76 -44 -149t-109 -106l-47 49q100 76 100 219q0 54 -20 95h102q18 -32 18 -108zM141 350v828h107v-256h370v-101h-370v-454q0 -279 207 -279q82 0 147 49l35 -84q-81 -65 -219 -65q-276 2 -277 362z" />
    <glyph glyph-name="Umacron" unicode="&#x16a;" horiz-adv-x="1538" 
d="M467 1593v88h614v-88h-614zM1331 1434v-834q1 -309 -153 -463q-154 -153 -402 -153t-408 162t-161 468v820h112v-799q0 -257 127 -401t333 -144t323 134t117 401v809h112z" />
    <glyph glyph-name="umacron" unicode="&#x16b;" horiz-adv-x="1114" 
d="M295 1237v88h516v-88h-516zM950 922v-922h-106v145q-54 -71 -150 -117t-200 -46q-352 0 -353 405v535h107v-512q0 -328 284 -328q90 0 176 48t136 112v680h106z" />
    <glyph glyph-name="Ubreve" unicode="&#x16c;" horiz-adv-x="1538" 
d="M771 1632q175 0 288 137l43 -57q-49 -74 -136 -124t-200 -50t-204 55t-132 121l49 55q117 -137 292 -137zM1331 1434v-834q1 -309 -153 -463q-154 -153 -402 -153t-408 162t-161 468v820h112v-799q0 -257 127 -401t333 -144t323 134t117 401v809h112z" />
    <glyph glyph-name="ubreve" unicode="&#x16d;" horiz-adv-x="1114" 
d="M559 1262q131 0 238 131l41 -54q-120 -166 -294 -166t-278 166l49 56q113 -133 244 -133zM950 922v-922h-106v145q-54 -71 -150 -117t-200 -46q-352 0 -353 405v535h107v-512q0 -328 284 -328q90 0 176 48t136 112v680h106z" />
    <glyph glyph-name="Uring" unicode="&#x16e;" horiz-adv-x="1538" 
d="M623 1608q0 -59 41 -91t105 -32t107 32q42 32 42 91t-41 88t-107 28q-147 1 -147 -116zM541 1609q0 89 63 134q62 45 164 45t167 -45t65 -134t-66 -139q-66 -49 -165 -49t-164 49q-64 50 -64 139zM1331 1434v-834q1 -309 -153 -463q-154 -153 -402 -153t-408 162
t-161 468v820h112v-799q0 -257 127 -401t333 -144t323 134t117 401v809h112z" />
    <glyph glyph-name="uring" unicode="&#x16f;" horiz-adv-x="1114" 
d="M408 1257q0 -61 42 -104t103 -43t103 43t42 104t-42 105t-103 45q-61 -1 -103 -45t-42 -105zM336 1257q0 89 62 151t154 62t154 -62q64 -62 64 -150t-63 -150q-63 -61 -155 -61t-154 61t-62 149zM950 922v-922h-106v145q-54 -71 -150 -117t-200 -46q-352 0 -353 405v535
h107v-512q0 -328 284 -328q90 0 176 48t136 112v680h106z" />
    <glyph glyph-name="Uhungarumlaut" unicode="&#x170;" horiz-adv-x="1538" 
d="M862 1726l-323 -215l-47 45l284 222zM1241 1710l-346 -199l-45 50l319 217zM1331 1434v-834q1 -309 -153 -463q-154 -153 -402 -153t-408 162t-161 468v820h112v-799q0 -257 127 -401t333 -144t323 134t117 401v809h112z" />
    <glyph glyph-name="uhungarumlaut" unicode="&#x171;" horiz-adv-x="1114" 
d="M625 1409l-230 -299l-65 47l217 309zM944 1399l-244 -289l-65 47l231 301zM950 922v-922h-106v145q-54 -71 -150 -117t-200 -46q-352 0 -353 405v535h107v-512q0 -328 284 -328q90 0 176 48t136 112v680h106z" />
    <glyph glyph-name="Uogonek" unicode="&#x172;" horiz-adv-x="1538" 
d="M1331 1434v-834q1 -262 -111 -413t-294 -189q-172 -72 -172 -188q0 -72 47 -102t101 -30t93 19l33 -68q-59 -39 -150 -39t-161 44t-70 143q0 129 162 207h-21q-260 0 -420 162t-161 468v820h112v-799q0 -257 127 -401t333 -144t323 134t117 401v809h112z" />
    <glyph glyph-name="uogonek" unicode="&#x173;" horiz-adv-x="1114" 
d="M814 -410q-92 0 -161 44t-69 140t74 158q75 63 186 86v127q-54 -71 -150 -117t-200 -46q-352 0 -353 405v535h107v-512q0 -328 284 -328q90 0 176 48t136 112v680h106v-922q-100 0 -180 -55t-80 -131t47 -106t101 -30t94 19l33 -68q-59 -39 -151 -39z" />
    <glyph glyph-name="Ydieresis" unicode="&#x178;" horiz-adv-x="1196" 
d="M762 1646q0 32 23 49q24 17 55 17q30 0 52 -18t22 -49t-22 -50q-22 -18 -54 -18t-54 18q-22 19 -22 51zM360 1577q-31 1 -53 19t-22 50t22 49q23 17 53 17t54 -18q22 -18 22 -49t-22 -50q-23 -18 -54 -18zM651 0h-112v627l-510 807h131l440 -701l442 701h125l-516 -807
v-627z" />
    <glyph glyph-name="Zacute" unicode="&#x179;" horiz-adv-x="1288" 
d="M938 1688l-373 -177l-33 64l367 203zM123 1327v107h1063v-72l-948 -1256h968v-106h-1124v72l944 1255h-903z" />
    <glyph glyph-name="zacute" unicode="&#x17a;" horiz-adv-x="985" 
d="M717 1403l-238 -293l-65 47l221 309zM127 821v101h762v-70l-639 -752h629v-100h-783v70l637 751h-606z" />
    <glyph glyph-name="Zdotaccent" unicode="&#x17b;" horiz-adv-x="1288" 
d="M634 1724q32 0 56 -20t23 -54q0 -34 -24 -54q-25 -20 -57 -21q-32 1 -54 21t-23 54q0 34 24 54q23 20 55 20zM123 1327v107h1063v-72l-948 -1256h968v-106h-1124v72l944 1255h-903z" />
    <glyph glyph-name="zdotaccent" unicode="&#x17c;" horiz-adv-x="985" 
d="M416 1278q0 33 22 51q23 19 52 19q28 0 50 -20t22 -51q0 -32 -21 -52q-20 -21 -51 -21q-30 0 -52 20t-22 54zM127 821v101h762v-70l-639 -752h629v-100h-783v70l637 751h-606z" />
    <glyph glyph-name="Zcaron" unicode="&#x17d;" horiz-adv-x="1288" 
d="M643 1516l-350 200l47 62l307 -170l305 170l43 -60l-344 -202h-8zM123 1327v107h1063v-72l-948 -1256h968v-106h-1124v72l944 1255h-903z" />
    <glyph glyph-name="zcaron" unicode="&#x17e;" horiz-adv-x="985" 
d="M496 1118l-267 271l54 63l217 -227l217 227l51 -63l-264 -271h-8zM127 821v101h762v-70l-639 -752h629v-100h-783v70l637 751h-606z" />
    <glyph glyph-name="longs" unicode="&#x17f;" horiz-adv-x="520" 
d="M190 0v1071q0 381 318 381q150 0 240 -78l-41 -82q-74 59 -183 60q-227 0 -227 -299v-1053h-107z" />
    <glyph glyph-name="uni018F" unicode="&#x18f;" horiz-adv-x="1593" 
d="M785 88q255 0 411 164t170 426h-1149q9 -252 161 -421t407 -169zM760 1346q-250 0 -402 -121l-45 84q163 143 471 143t504 -198t195 -528t-191 -537t-510 -207t-509 224t-173 578h1262q-18 260 -185 411t-417 151z" />
    <glyph glyph-name="florin" unicode="&#x192;" horiz-adv-x="1206" 
d="M1044 922v-101h-356l-158 -889q-32 -182 -106 -270t-206 -88t-202 57l33 86q63 -43 133 -43q106 0 162 67q55 67 80 204l156 876h-320v101h338l27 149q37 199 117 290q81 91 232 91t236 -78l-39 -82q-77 60 -185 60t-167 -70t-88 -229l-24 -131h337z" />
    <glyph glyph-name="uni01DD" unicode="&#x1dd;" horiz-adv-x="1073" 
d="M201 410q1 -158 87 -243t236 -85t242 92t96 236h-661zM508 940q217 0 342 -130t125 -344t-121 -349q-122 -135 -322 -135t-321 114t-121 301q0 51 8 101h758q-4 147 -99 244t-255 98q-92 0 -178 -32t-136 -81l-34 82q59 63 157 97t197 34z" />
    <glyph glyph-name="Scommaaccent" unicode="&#x218;" horiz-adv-x="1118" 
d="M485 -145l93 32q72 -14 71 -102q0 -152 -174 -199l-31 49q98 39 99 134q-1 68 -58 86zM889 356q0 157 -148 240q-67 37 -145 69q-78 31 -157 65t-145 78t-106 117q-41 73 -41 169q0 156 113 257t307 101q119 0 221 -39t164 -106l-61 -84q-123 123 -320 123
q-141 0 -223 -69t-82 -183q0 -154 148 -235q66 -36 209 -90t223 -107q162 -109 162 -291q0 -181 -131 -285t-326 -104q-133 0 -261 56t-179 150l67 78q60 -82 164 -130t226 -48t222 72t99 196z" />
    <glyph glyph-name="scommaaccent" unicode="&#x219;" horiz-adv-x="856" 
d="M362 -145l93 32q72 -14 71 -102q0 -152 -174 -199l-30 49q98 39 98 134q-1 68 -58 86zM639 234q0 72 -52 110q-52 39 -127 62q-75 22 -151 50t-128 87t-52 161t82 170q82 66 215 66q190 0 289 -102l-45 -80q-94 88 -242 88q-84 0 -135 -43t-51 -108t52 -105t127 -65
t151 -51t127 -82q52 -56 53 -146q0 -129 -96 -197t-236 -67q-94 0 -188 41t-128 92l60 69q37 -47 117 -78q180 -70 298 13q60 43 60 115z" />
    <glyph glyph-name="Tcommaaccent" unicode="&#x21a;" horiz-adv-x="1214" 
d="M592 -231q0 68 -57 86l92 32q72 -14 71 -102q0 -152 -174 -199l-30 49q98 39 98 134zM20 1327v107h1174v-107h-530v-1327h-113v1327h-531z" />
    <glyph glyph-name="tcommaaccent" unicode="&#x21b;" horiz-adv-x="712" 
d="M313 -145l93 32q72 -14 71 -102q0 -152 -174 -199l-31 49q98 39 99 134q-1 68 -58 86zM141 350v828h107v-256h370v-101h-370v-454q0 -279 207 -279q82 0 147 49l35 -84q-81 -65 -219 -65q-276 2 -277 362z" />
    <glyph glyph-name="uni0237" unicode="&#x237;" horiz-adv-x="532" 
d="M326 922v-990q0 -358 -289 -358q-117 0 -189 57l33 86q63 -43 133 -43q205 0 205 267v981h107z" />
    <glyph glyph-name="uni0259" unicode="&#x259;" horiz-adv-x="1073" 
d="M201 410q1 -158 87 -243t236 -85t242 92t96 236h-661zM508 940q217 0 342 -130t125 -344t-121 -349q-122 -135 -322 -135t-321 114t-121 301q0 51 8 101h758q-4 147 -99 244t-255 98q-92 0 -178 -32t-136 -81l-34 82q59 63 157 97t197 34z" />
    <glyph glyph-name="afii57929" unicode="&#x2bc;" horiz-adv-x="446" 
d="M223 1178q0 73 -41 114l88 58q53 -61 54 -150q0 -186 -152 -270l-49 51q100 59 100 197z" />
    <glyph glyph-name="circumflex" unicode="&#x2c6;" horiz-adv-x="784" 
d="M399 1448l263 -268l-52 -66l-215 215l-219 -213l-53 64l268 268h8z" />
    <glyph glyph-name="caron" unicode="&#x2c7;" horiz-adv-x="784" 
d="M389 1118l-266 271l53 63l217 -227l217 227l52 -63l-265 -271h-8z" />
    <glyph glyph-name="breve" unicode="&#x2d8;" horiz-adv-x="817" 
d="M416 1262q131 0 237 131l41 -54q-119 -166 -293 -166t-278 166l49 56q113 -133 244 -133z" />
    <glyph glyph-name="dotaccent" unicode="&#x2d9;" horiz-adv-x="391" 
d="M123 1278q0 33 22 51q23 19 52 19t51 -20t20 -51q0 -32 -22 -52q-22 -21 -50 -21q-30 0 -52 20t-21 54z" />
    <glyph glyph-name="ring" unicode="&#x2da;" horiz-adv-x="679" 
d="M195 1257q0 -61 42 -104t103 -43t103 43t42 104t-42 105t-103 45q-61 -1 -103 -45t-42 -105zM123 1257q0 89 62 151q61 62 153 62t156 -62t63 -150q0 -88 -63 -150q-62 -61 -154 -61t-155 61q-62 61 -62 149z" />
    <glyph glyph-name="ogonek" unicode="&#x2db;" horiz-adv-x="626" 
d="M354 -410q-92 0 -162 44t-69 151q0 107 113 175t253 69v-29q-100 0 -180 -55t-80 -131t47 -106q48 -30 102 -30t93 19l33 -68q-58 -39 -150 -39z" />
    <glyph glyph-name="tilde" unicode="&#x2dc;" horiz-adv-x="870" 
d="M330 1331q50 0 118 -47t119 -47t142 78l39 -55q-109 -111 -201 -111q-45 0 -114 47q-69 48 -122 48t-141 -70l-47 51q106 106 207 106z" />
    <glyph glyph-name="hungarumlaut" unicode="&#x2dd;" horiz-adv-x="860" 
d="M418 1409l-230 -299l-65 47l217 309zM737 1399l-243 -289l-66 47l231 301z" />
    <glyph glyph-name="gravecomb" unicode="&#x300;" horiz-adv-x="0" 
d="M-539 1110l-237 291l84 63l221 -307z" />
    <glyph glyph-name="acutecomb" unicode="&#x301;" horiz-adv-x="0" 
d="M-342 1403l-238 -293l-65 47l221 309z" />
    <glyph glyph-name="uni0394" unicode="&#x394;" horiz-adv-x="1462" 
d="M721 1257l-488 -1151h990zM70 0l620 1450h68l635 -1450h-1323z" />
    <glyph glyph-name="uni0394" unicode="&#x2206;" horiz-adv-x="1462" 
d="M721 1257l-488 -1151h990zM70 0l620 1450h68l635 -1450h-1323z" />
    <glyph glyph-name="uni03A9" unicode="&#x3a9;" horiz-adv-x="1660" 
d="M164 0v106h366q-174 60 -292 234t-119 401q0 309 205 510q204 201 508 201t508 -201t204 -510q0 -231 -119 -403t-295 -232h367v-106h-541v106q209 50 339 222t130 416t-168 422q-168 180 -427 180t-426 -180t-166 -443q0 -219 130 -394t337 -223v-106h-541z" />
    <glyph glyph-name="uni03A9" unicode="&#x2126;" horiz-adv-x="1660" 
d="M164 0v106h366q-174 60 -292 234t-119 401q0 309 205 510q204 201 508 201t508 -201t204 -510q0 -231 -119 -403t-295 -232h367v-106h-541v106q209 50 339 222t130 416t-168 422q-168 180 -427 180t-426 -180t-166 -443q0 -219 130 -394t337 -223v-106h-541z" />
    <glyph glyph-name="pi" unicode="&#x3c0;" horiz-adv-x="1312" 
d="M102 821v101h1100v-101h-205v-555q1 -96 21 -137t78 -41t121 45l26 -84q-80 -61 -186 -61q-166 0 -166 221v612h-473v-149q0 -268 -43 -422t-114 -206t-183 -52l-8 104q115 -2 177 120t64 429l2 176h-211z" />
    <glyph glyph-name="afii10023" unicode="&#x401;" horiz-adv-x="1177" 
d="M871 1577q-32 1 -54 19t-22 50t23 49q24 17 54 17t53 -18q21 -18 21 -49t-21 -50q-22 -18 -54 -18zM394 1712q30 0 52 -18t23 -49q0 -31 -23 -49q-24 -18 -54 -19q-30 1 -52 19t-23 50q0 32 23 49q24 17 54 17zM227 0v1434h793v-107h-680v-547h618v-106h-618v-568h700
v-106h-813z" />
    <glyph glyph-name="afii10051" unicode="&#x402;" horiz-adv-x="1556" 
d="M1446 418q0 -224 -93 -330t-253 -106q-60 0 -116 22t-79 43l41 88q63 -47 141 -47q246 0 246 336t-334 336q-100 0 -143 -18t-57 -22q-17 -6 -75 -39t-60 -38v-643h-113v1327h-531v107h1174v-107h-530v-577q170 117 358 116q424 1 424 -448z" />
    <glyph glyph-name="afii10052" unicode="&#x403;" horiz-adv-x="1030" 
d="M944 1688l-373 -177l-32 64l366 203zM227 0v1434h791v-107h-678v-1327h-113z" />
    <glyph glyph-name="afii10053" unicode="&#x404;" horiz-adv-x="1392" 
d="M985 784v-106h-762q13 -270 189 -430t444 -160q219 0 406 135l47 -92q-197 -150 -463 -149q-330 0 -533 200t-203 530q0 328 198 534t504 206t468 -143l-51 -84q-153 121 -401 121t-414 -154t-189 -408h760z" />
    <glyph glyph-name="afii10054" unicode="&#x405;" horiz-adv-x="1118" 
d="M889 356q0 157 -148 240q-67 37 -145 69q-78 31 -157 65t-145 78t-106 117q-41 73 -41 169q0 156 113 257t307 101q119 0 221 -39t164 -106l-61 -84q-123 123 -320 123q-141 0 -223 -69t-82 -183q0 -154 148 -235q66 -36 209 -90t223 -107q162 -109 162 -291
q0 -181 -131 -285t-326 -104q-133 0 -261 56t-179 150l67 78q60 -82 164 -130t226 -48t222 72t99 196z" />
    <glyph glyph-name="afii10055" unicode="&#x406;" horiz-adv-x="665" 
d="M276 0v1434h113v-1434h-113z" />
    <glyph glyph-name="afii10056" unicode="&#x407;" horiz-adv-x="665" 
d="M276 0v1434h113v-1434h-113zM485 1712q29 0 49 -18t19 -48q0 -30 -19 -50q-18 -20 -48 -19q-30 -1 -50 19t-20 50t20 48t49 18zM183 1577q-28 -1 -48 19t-20 50t20 48t48 18t48 -18q21 -18 21 -48t-20 -50t-49 -19z" />
    <glyph glyph-name="afii10057" unicode="&#x408;" horiz-adv-x="739" 
d="M512 1434v-1119q0 -334 -287 -333q-123 0 -196 65l41 88q63 -47 155 -47q174 0 174 244v1102h113z" />
    <glyph glyph-name="afii10058" unicode="&#x409;" horiz-adv-x="2115" 
d="M1466 772q-111 0 -211 -12v-651q184 -6 203 -7q209 0 319 88q109 88 109 252t-108 246q-108 84 -312 84zM1143 1327h-602l-25 -270q-70 -788 -244 -971q-57 -60 -106 -76t-111 -10l2 113q37 -2 69 9t78 69q46 57 83 161q85 239 127 795l20 287h821v-566q147 10 218 11
q266 0 399 -112q133 -111 133 -323t-147 -330t-412 -118l-303 4v1327z" />
    <glyph glyph-name="afii10059" unicode="&#x40a;" horiz-adv-x="2187" 
d="M1958 430q0 317 -420 315q-109 0 -211 -12v-624q190 -6 203 -7q208 0 318 85t110 243zM1214 0v729h-874v-729h-113v1434h113v-598h874v598h113v-592q147 10 217 10q266 0 400 -109t133 -315q1 -206 -147 -318q-148 -114 -412 -114l-250 4h-54z" />
    <glyph glyph-name="afii10060" unicode="&#x40b;" horiz-adv-x="1556" 
d="M20 1327v107h1174v-107h-530v-579q162 118 360 118t310 -112t112 -346v-408h-113v383q0 377 -325 377q-160 0 -344 -117v-643h-113v1327h-531z" />
    <glyph glyph-name="afii10061" unicode="&#x40c;" horiz-adv-x="1304" 
d="M981 1688l-373 -177l-33 64l367 203zM227 0v1434h113v-1434h-113zM1219 1434l-678 -678l706 -756h-145l-694 748l673 686h138z" />
    <glyph glyph-name="afii10062" unicode="&#x40e;" horiz-adv-x="1335" 
d="M688 1518q-136 0 -233 64q-98 64 -125 163h106q72 -145 256 -146q88 0 158 40t90 106h107q-19 -99 -121 -163t-238 -64zM471 0q-100 0 -160 47l41 96q57 -39 115 -39q117 0 203 181l26 57l-661 1092h127l590 -979l434 979h114l-499 -1110q-76 -170 -153 -247t-177 -77z
" />
    <glyph glyph-name="afii10145" unicode="&#x40f;" horiz-adv-x="1548" 
d="M227 0v1434h113v-1328h868v1328h113v-1434h-496v-322h-106v322h-492z" />
    <glyph glyph-name="afii10017" unicode="&#x410;" horiz-adv-x="1427" 
d="M711 1290l-299 -696h596zM43 0l625 1446h92l624 -1446h-120l-209 487h-688l-209 -487h-115z" />
    <glyph glyph-name="afii10018" unicode="&#x411;" horiz-adv-x="1249" 
d="M578 748q-131 0 -238 -13v-629q203 -6 225 -6q207 0 314 86q106 86 106 240t-103 238t-304 84zM227 1434h791v-107h-678v-485q125 12 242 12q250 0 383 -110t133 -316t-144 -320t-405 -114l-322 6v1434z" />
    <glyph glyph-name="afii10019" unicode="&#x412;" horiz-adv-x="1263" 
d="M600 1333q-88 0 -260 -6v-545h278q139 0 233 76q93 76 93 205q0 270 -344 270zM612 682h-272v-573q229 -8 266 -9q188 0 291 78q102 78 102 220q-1 142 -101 212q-100 72 -286 72zM604 1440q453 0 453 -355q0 -135 -79 -221t-200 -114v-5q158 -18 246 -107t88 -237
q0 -205 -139 -306t-359 -101t-387 8v1430q319 8 377 8z" />
    <glyph glyph-name="afii10020" unicode="&#x413;" horiz-adv-x="1030" 
d="M227 0v1434h791v-107h-678v-1327h-113z" />
    <glyph glyph-name="afii10021" unicode="&#x414;" horiz-adv-x="1521" 
d="M1145 106v1221h-586l-16 -262q-27 -391 -99 -639t-131 -320h832zM35 -274v380h153q70 88 148 352t100 689l15 287h806v-1328h195v-380h-106v274h-1205v-274h-106z" />
    <glyph glyph-name="afii10022" unicode="&#x415;" horiz-adv-x="1177" 
d="M227 0v1434h793v-107h-680v-547h618v-106h-618v-568h700v-106h-813z" />
    <glyph glyph-name="afii10024" unicode="&#x416;" horiz-adv-x="1880" 
d="M692 748l-612 686h133l604 -686l-627 -748h-133zM883 0v1434h112v-1434h-112zM1800 1434l-612 -684l635 -750h-133l-627 748l604 686h133z" />
    <glyph glyph-name="afii10025" unicode="&#x417;" horiz-adv-x="1173" 
d="M543 -18q-139 0 -267 61t-186 150l64 75q70 -82 178 -131t203 -49q170 0 272 87t102 223t-82 210q-82 72 -223 72h-178v106h166q102 0 182 83t80 209t-84 197t-217 71q-213 0 -356 -164l-66 71q75 91 187 145t243 54q184 0 295 -98t111 -273q1 -102 -57 -196t-160 -142
v-6q128 -18 200 -112t72 -224q0 -193 -137 -306t-342 -113z" />
    <glyph glyph-name="afii10026" unicode="&#x418;" horiz-adv-x="1632" 
d="M227 0v1434h113v-1250l965 1250h100v-1434h-113v1249l-964 -1249h-101z" />
    <glyph glyph-name="afii10027" unicode="&#x419;" horiz-adv-x="1632" 
d="M818 1518q-136 0 -234 64t-125 163h106q74 -145 256 -146q88 0 158 40t90 106h107q-20 -99 -122 -163q-100 -64 -236 -64zM227 0v1434h113v-1250l965 1250h100v-1434h-113v1249l-964 -1249h-101z" />
    <glyph glyph-name="afii10028" unicode="&#x41a;" horiz-adv-x="1304" 
d="M227 0v1434h113v-1434h-113zM1219 1434l-678 -678l706 -756h-145l-694 748l673 686h138z" />
    <glyph glyph-name="afii10029" unicode="&#x41b;" horiz-adv-x="1482" 
d="M1143 0v1327h-602l-25 -270q-70 -788 -244 -971q-57 -60 -106 -76t-111 -10l2 113q37 -2 69 9t78 69q46 57 83 161q85 239 127 795l20 287h821v-1434h-112z" />
    <glyph glyph-name="afii10030" unicode="&#x41c;" horiz-adv-x="1810" 
d="M227 0v1434h115l578 -787l555 787h108v-1434h-113v1257l-550 -774h-19l-561 768v-1251h-113z" />
    <glyph glyph-name="afii10031" unicode="&#x41d;" horiz-adv-x="1574" 
d="M1235 0v678h-895v-678h-113v1434h113v-650h895v650h113v-1434h-113z" />
    <glyph glyph-name="afii10032" unicode="&#x41e;" horiz-adv-x="1658" 
d="M1430 718q0 270 -174 448q-174 180 -428 180q-255 0 -427 -180t-172 -448q0 -270 173 -450t430 -180t428 180q170 180 170 450zM111 714q0 316 204 527q205 211 513 211t514 -208t206 -525t-206 -527t-513 -210t-513 207q-205 209 -205 525z" />
    <glyph glyph-name="afii10033" unicode="&#x41f;" horiz-adv-x="1568" 
d="M1229 0v1327h-889v-1327h-113v1434h1114v-1434h-112z" />
    <glyph glyph-name="afii10034" unicode="&#x420;" horiz-adv-x="1198" 
d="M588 1331q-113 0 -248 -4v-643q133 -10 233 -10q190 0 293 91q102 91 102 241t-92 237q-93 88 -288 88zM578 567q-129 0 -238 8v-575h-113v1434l351 4q391 0 485 -274q25 -73 24 -158q0 -184 -129 -312t-380 -127z" />
    <glyph glyph-name="afii10035" unicode="&#x421;" horiz-adv-x="1343" 
d="M829 -18q-323 0 -521 200t-198 526q0 324 193 534t510 210q272 0 434 -135l-53 -84q-147 113 -393 113t-409 -178t-163 -454q0 -278 169 -452t440 -174q225 0 391 135l45 -84q-74 -73 -195 -115t-250 -42z" />
    <glyph glyph-name="afii10036" unicode="&#x422;" horiz-adv-x="1214" 
d="M20 1327v107h1174v-107h-530v-1327h-113v1327h-531z" />
    <glyph glyph-name="afii10037" unicode="&#x423;" horiz-adv-x="1335" 
d="M471 0q-100 0 -160 47l41 96q57 -39 115 -39q117 0 203 181l26 57l-661 1092h127l590 -979l434 979h114l-499 -1110q-76 -170 -153 -247t-177 -77z" />
    <glyph glyph-name="afii10038" unicode="&#x424;" horiz-adv-x="1699" 
d="M786 1200q-264 0 -420 -122t-157 -342q0 -220 157 -341t416 -121h9v926h-5zM911 1200h-8v-926h15q262 0 418 119t155 342q0 223 -156 344t-424 121zM791 -16v186h-11q-311 0 -500 151q-190 151 -190 417t190 417q190 150 508 150h3v145h112v-145h4q324 0 513 -151
q190 -151 190 -417q0 -267 -190 -417t-502 -150h-15v-186h-112z" />
    <glyph glyph-name="afii10039" unicode="&#x425;" horiz-adv-x="1351" 
d="M1276 1434l-526 -705l544 -729h-135l-483 643l-486 -643h-133l547 729l-524 705h133l465 -619l463 619h135z" />
    <glyph glyph-name="afii10040" unicode="&#x426;" horiz-adv-x="1595" 
d="M227 0v1434h113v-1328h879v1328h112v-1328h195v-380h-107v274h-1192z" />
    <glyph glyph-name="afii10041" unicode="&#x427;" horiz-adv-x="1302" 
d="M1075 1434v-1434h-112v657q-174 -121 -408 -120q-188 1 -307 113t-119 345v439h113v-414q0 -190 91 -284t264 -93q173 0 366 121v670h112z" />
    <glyph glyph-name="afii10042" unicode="&#x428;" horiz-adv-x="2033" 
d="M227 0v1434h113v-1328h621v1328h112v-1328h621v1328h112v-1434h-1579z" />
    <glyph glyph-name="afii10043" unicode="&#x429;" horiz-adv-x="2070" 
d="M227 0v1434h113v-1328h621v1328h112v-1328h621v1328h112v-1328h195v-380h-107v274h-1667z" />
    <glyph glyph-name="afii10044" unicode="&#x42a;" horiz-adv-x="1363" 
d="M709 772q-125 0 -226 -12v-651q184 -6 217 -7q209 0 322 88t113 252q1 164 -109 248q-110 82 -317 82zM371 1327h-365v107h477v-566q147 10 232 11q270 0 404 -112q134 -111 134 -323q1 -212 -149 -330t-416 -118l-317 4v1327z" />
    <glyph glyph-name="afii10045" unicode="&#x42b;" horiz-adv-x="1697" 
d="M227 1434h113v-566q147 10 217 11q266 0 399 -112q134 -113 134 -323t-148 -329t-412 -119l-303 4v1434zM551 772q-109 0 -211 -12v-651q190 -6 203 -7q209 0 319 88t109 252q1 164 -107 248q-108 82 -313 82zM1358 0v1434h112v-1434h-112z" />
    <glyph glyph-name="afii10046" unicode="&#x42c;" horiz-adv-x="1220" 
d="M227 1434h113v-566q147 10 231 11q271 0 405 -112q134 -111 134 -323t-150 -330t-415 -118l-318 4v1434zM565 772q-123 0 -225 -12v-651q190 -6 217 -7q209 0 322 88t113 252t-110 248q-110 82 -317 82z" />
    <glyph glyph-name="afii10047" unicode="&#x42d;" horiz-adv-x="1392" 
d="M406 678v106h761q-20 260 -188 411q-169 151 -419 151t-402 -121l-47 84q162 143 470 143q309 0 505 -198t196 -526t-199 -538q-199 -209 -524 -208q-279 0 -475 149l51 92q190 -135 437 -135t414 163t181 427h-761z" />
    <glyph glyph-name="afii10048" unicode="&#x42e;" horiz-adv-x="2203" 
d="M821 718q0 -270 164 -450t418 -180t413 178q158 178 158 450t-162 451t-414 179t-414 -178q-163 -178 -163 -450zM227 0v1434h113v-650h365q23 288 214 478t486 190t491 -207t197 -526q0 -319 -197 -529q-198 -210 -494 -208q-296 0 -491 196t-209 500h-362v-678h-113z
" />
    <glyph glyph-name="afii10049" unicode="&#x42f;" horiz-adv-x="1259" 
d="M920 668v659q-172 6 -226 6q-193 0 -295 -97q-102 -96 -102 -234t87 -227t202 -107h334zM1032 0h-112v561h-320l-407 -561h-130l426 578q-131 42 -221 150t-90 253q0 201 137 330t400 129l317 -6v-1434z" />
    <glyph glyph-name="afii10065" unicode="&#x430;" horiz-adv-x="940" 
d="M408 88q172 0 282 145v154q-100 74 -220 74t-194 -49q-74 -48 -74 -138t60 -138q58 -48 146 -48zM468 940q171 0 250 -92t79 -277v-571h-107v141q-113 -154 -315 -153q-129 0 -207 74t-78 205q0 130 98 206t252 76t250 -70q0 237 -56 298t-185 62q-128 1 -259 -71l-28 88
q135 84 306 84z" />
    <glyph glyph-name="afii10066" unicode="&#x431;" horiz-adv-x="1136" 
d="M566 82q157 0 259 106q103 106 103 266t-93 260q-93 101 -249 101t-254 -86q-100 -86 -125 -199q0 -208 101 -328t258 -120zM564 -18q-210 0 -340 152t-130 415q0 604 338 743q88 36 192 52t164 34q62 18 103 76l59 -80q-44 -68 -114 -92t-179 -39q-109 -16 -192 -53
q-238 -102 -264 -524h4q47 114 157 182t240 67q203 0 321 -127q117 -128 117 -330t-133 -339t-343 -137z" />
    <glyph glyph-name="afii10067" unicode="&#x432;" horiz-adv-x="985" 
d="M471 827q-100 0 -203 -4v-311h244q100 0 158 44q57 44 57 118q0 153 -256 153zM489 424h-221v-326q119 -4 207 -4q287 0 287 170q-1 160 -273 160zM874 254q0 -260 -411 -260l-301 6v922l297 6q190 0 285 -58t96 -180q0 -78 -49 -137t-138 -74v-4q221 -35 221 -221z" />
    <glyph glyph-name="afii10068" unicode="&#x433;" horiz-adv-x="722" 
d="M162 0v922h555v-101h-449v-821h-106z" />
    <glyph glyph-name="afii10069" unicode="&#x434;" horiz-adv-x="1075" 
d="M780 100v721h-381l-12 -200q-14 -185 -56 -327t-83 -194h532zM20 -233v333h115q49 64 93 212t57 350l14 260h588v-822h153v-333h-100v233h-819v-233h-101z" />
    <glyph glyph-name="afii10070" unicode="&#x435;" horiz-adv-x="1073" 
d="M550 840q-148 0 -237 -87q-90 -87 -104 -227h663q-2 146 -88 230t-234 84zM584 -18q-217 0 -353 131q-135 131 -135 344t124 348t343 135q180 0 299 -115t119 -301q0 -49 -6 -86h-760q7 -166 109 -261t280 -95t287 113l35 -82q-125 -131 -342 -131z" />
    <glyph glyph-name="afii10072" unicode="&#x436;" horiz-adv-x="1341" 
d="M430 479l-369 443h132l356 -443l-377 -479h-129zM614 0v922h107v-922h-107zM1274 922l-369 -443l393 -479h-129l-383 479l359 443h129z" />
    <glyph glyph-name="afii10073" unicode="&#x437;" horiz-adv-x="937" 
d="M446 -18q-98 0 -208 34t-154 88l55 82q55 -52 137 -78t154 -26q129 0 207 50t78 130q1 80 -57 121t-156 41h-156v88h146q78 0 133 49t55 123t-62 115t-172 41q-164 0 -288 -103l-43 82q117 121 346 121q160 0 246 -64t86 -178q0 -162 -166 -221v-4q96 -9 148 -71t52 -146
q0 -127 -105 -201q-106 -73 -276 -73z" />
    <glyph glyph-name="afii10074" unicode="&#x438;" horiz-adv-x="1150" 
d="M162 0v922h106v-768l615 768h106v-922h-106v768l-615 -768h-106z" />
    <glyph glyph-name="afii10075" unicode="&#x439;" horiz-adv-x="1150" 
d="M303 1401h96q-1 -76 53 -128t136 -52t133 52t51 128h96q0 -113 -78 -188t-205 -75q-128 0 -205 74t-77 189zM162 0v922h106v-768l615 768h106v-922h-106v768l-615 -768h-106z" />
    <glyph glyph-name="afii10076" unicode="&#x43a;" horiz-adv-x="991" 
d="M162 0v922h106v-922h-106zM913 922l-454 -441l491 -481h-143l-477 475l446 447h137z" />
    <glyph glyph-name="afii10077" unicode="&#x43b;" horiz-adv-x="1079" 
d="M811 0v815h-389l-12 -201q-28 -383 -128 -516q-48 -61 -96 -84t-108 -22l-8 104q94 0 159 140q64 131 78 399l15 287h596v-922h-107z" />
    <glyph glyph-name="afii10078" unicode="&#x43c;" horiz-adv-x="1273" 
d="M162 0v922h100l383 -514l369 514h96v-922h-106v760l-359 -498h-6l-371 498v-760h-106z" />
    <glyph glyph-name="afii10079" unicode="&#x43d;" horiz-adv-x="1134" 
d="M866 0v418h-598v-418h-106v922h106v-404h598v404h107v-922h-107z" />
    <glyph glyph-name="afii10080" unicode="&#x43e;" horiz-adv-x="1161" 
d="M209 461q0 -167 104 -273q103 -106 267 -106t267 105t103 273t-104 273q-104 107 -265 107t-267 -106t-105 -273zM96 461q0 209 135 344t349 135t348 -135q135 -135 135 -344t-135 -344t-348 -135t-349 135q-135 135 -135 344z" />
    <glyph glyph-name="afii10081" unicode="&#x43f;" horiz-adv-x="1124" 
d="M856 0v821h-588v-821h-106v922h801v-922h-107z" />
    <glyph glyph-name="afii10082" unicode="&#x440;" horiz-adv-x="1134" 
d="M578 840q-92 0 -178 -42t-132 -102v-530q127 -84 290 -84t264 108q102 108 102 278q0 168 -91 270t-255 102zM162 -410v1332h106v-123q52 61 146 101t192 40q197 0 314 -129q116 -129 116 -339t-131 -350t-331 -140t-306 77v-469h-106z" />
    <glyph glyph-name="afii10083" unicode="&#x441;" horiz-adv-x="1003" 
d="M96 454q0 210 131 348t328 138q238 0 358 -115l-51 -86q-111 101 -276 101t-271 -109t-106 -275t108 -271q109 -103 281 -103t281 127l53 -78q-56 -72 -150 -111t-198 -38q-215 0 -352 131q-136 131 -136 341z" />
    <glyph glyph-name="afii10084" unicode="&#x442;" horiz-adv-x="892" 
d="M27 815v107h839v-107h-366v-815h-107v815h-366z" />
    <glyph glyph-name="afii10085" unicode="&#x443;" horiz-adv-x="985" 
d="M248 -410q-88 0 -168 48l35 81q66 -31 108 -30q70 0 125 60t115 202l20 49l-454 922h127l315 -652l66 -143q10 35 51 147l248 648h120l-372 -922q-98 -240 -173 -325t-163 -85z" />
    <glyph glyph-name="afii10086" unicode="&#x444;" horiz-adv-x="1361" 
d="M768 840h-35v-758h27q184 0 288 104q103 104 103 268q1 164 -103 276q-104 110 -280 110zM592 840q-176 0 -280 -108t-103 -274q0 -164 105 -270t288 -106h25v758h-35zM627 -410v392h-31q-229 0 -365 134q-135 134 -135 338t136 345t362 141h33v494h106v-494h35
q221 0 358 -136q138 -136 138 -345t-132 -343t-364 -134h-35v-392h-106z" />
    <glyph glyph-name="afii10087" unicode="&#x445;" horiz-adv-x="1013" 
d="M930 922l-346 -447l366 -475h-131l-315 408l-316 -408h-125l367 471l-346 451h131l293 -381l297 381h125z" />
    <glyph glyph-name="afii10088" unicode="&#x446;" horiz-adv-x="1144" 
d="M162 0v922h106v-822h582v822h106v-822h154v-333h-100v233h-848z" />
    <glyph glyph-name="afii10089" unicode="&#x447;" horiz-adv-x="972" 
d="M811 922v-922h-106v389q-115 -78 -277 -78q-324 0 -324 346v265h113v-256q0 -254 240 -254q147 0 248 73v437h106z" />
    <glyph glyph-name="afii10090" unicode="&#x448;" horiz-adv-x="1443" 
d="M162 0v922h106v-822h400v822h106v-822h400v822h106v-922h-1118z" />
    <glyph glyph-name="afii10091" unicode="&#x449;" horiz-adv-x="1468" 
d="M162 0v922h106v-822h400v822h106v-822h400v822h106v-822h154v-333h-101v233h-1171z" />
    <glyph glyph-name="afii10092" unicode="&#x44a;" horiz-adv-x="1024" 
d="M557 512h-160v-412h158q145 0 209 52t63 155q0 205 -270 205zM6 821v101h391v-310h178q365 0 365 -303q0 -135 -89 -222t-290 -87h-270v821h-285z" />
    <glyph glyph-name="afii10093" unicode="&#x44b;" horiz-adv-x="1271" 
d="M1004 0v922h106v-922h-106zM410 512h-142v-412h140q147 0 209 52t63 155q0 205 -270 205zM162 0v922h106v-310h160q365 0 365 -303q0 -135 -88 -222t-289 -87h-254z" />
    <glyph glyph-name="afii10094" unicode="&#x44c;" horiz-adv-x="894" 
d="M428 512h-160v-412h158q144 0 208 52t64 155q0 205 -270 205zM162 0v922h106v-310h178q365 0 365 -303q0 -135 -89 -222t-290 -87h-270z" />
    <glyph glyph-name="afii10095" unicode="&#x44d;" horiz-adv-x="1005" 
d="M311 426v88h486q-15 156 -117 241t-272 85t-285 -115l-47 80q59 63 154 99t190 36q215 0 351 -131t136 -341t-131 -348t-327 -138q-242 0 -363 112l51 80q104 -92 303 -92q150 0 249 94t110 250h-488z" />
    <glyph glyph-name="afii10096" unicode="&#x44e;" horiz-adv-x="1536" 
d="M625 461q0 -165 97 -269t251 -104t250 103t96 269t-96 270t-250 104t-251 -104t-97 -269zM162 0v922h112v-398h234q20 184 145 300t324 116t330 -135t131 -344t-131 -344t-332 -135t-328 122t-141 314h-232v-418h-112z" />
    <glyph glyph-name="afii10097" unicode="&#x44f;" horiz-adv-x="976" 
d="M522 821q-132 0 -194 -53t-62 -137t64 -135t135 -52h244v377h-187zM541 922h274v-922h-106v344h-230l-264 -344h-131l291 369q-88 14 -155 85q-66 72 -66 188t92 198t295 82z" />
    <glyph glyph-name="afii10071" unicode="&#x451;" horiz-adv-x="1073" 
d="M827 1265q0 -31 -19 -51t-47 -20q-27 0 -47 20t-20 51q0 32 20 50t47 18q28 0 47 -19t19 -49zM401 1265q0 -31 -19 -51t-47 -20q-27 0 -47 20t-20 51q0 32 20 50t47 18q28 0 47 -19t19 -49zM550 840q-148 0 -237 -87q-90 -87 -104 -227h663q-2 146 -88 230t-234 84z
M584 -18q-217 0 -353 131q-135 131 -135 344t124 348t343 135q180 0 299 -115t119 -301q0 -49 -6 -86h-760q7 -166 109 -261t280 -95t287 113l35 -82q-125 -131 -342 -131z" />
    <glyph glyph-name="afii10099" unicode="&#x452;" horiz-adv-x="1230" 
d="M6 987v88h287v359h106v-359h406v-88h-406v-364q57 61 147 100t183 39q387 0 387 -412q0 -240 -94 -448t-270 -312h-121q197 125 288 323t91 411q0 338 -303 338q-89 0 -175 -41t-133 -101v-520h-106v987h-287z" />
    <glyph glyph-name="afii10100" unicode="&#x453;" horiz-adv-x="722" 
d="M682 1403l-238 -293l-65 47l221 309zM162 0v922h555v-101h-449v-821h-106z" />
    <glyph glyph-name="afii10101" unicode="&#x454;" horiz-adv-x="1003" 
d="M692 514v-88h-489q12 -162 120 -253q109 -91 277 -91t272 92l46 -80q-120 -112 -338 -112t-351 134t-133 348t136 345t352 131q94 0 189 -36t155 -99l-47 -80q-115 115 -284 115t-272 -86t-120 -240h487z" />
    <glyph glyph-name="afii10102" unicode="&#x455;" horiz-adv-x="856" 
d="M639 234q0 72 -52 110q-52 39 -127 62q-75 22 -151 50t-128 87t-52 161t82 170q82 66 215 66q190 0 289 -102l-45 -80q-94 88 -242 88q-84 0 -135 -43t-51 -108t52 -105t127 -65t151 -51t127 -82q52 -56 53 -146q0 -129 -96 -197t-236 -67q-94 0 -188 41t-128 92l60 69
q37 -47 117 -78q180 -70 298 13q60 43 60 115z" />
    <glyph glyph-name="afii10103" unicode="&#x456;" horiz-adv-x="534" 
d="M340 1277q0 -32 -20 -52q-20 -21 -52 -21q-31 0 -52 20t-21 54q0 33 22 51q23 19 51 19t50 -20t22 -51zM213 0v922h106v-922h-106z" />
    <glyph glyph-name="afii10104" unicode="&#x457;" horiz-adv-x="565" 
d="M227 0v922h107v-922h-107zM354 1263q0 28 18 45t45 17q26 0 43 -17t17 -45t-17 -45q-17 -18 -43 -18q-27 0 -45 18t-18 45zM90 1263q0 28 18 45t44 17q25 0 43 -17t18 -45t-18 -45q-18 -18 -43 -18q-26 0 -44 18t-18 45z" />
    <glyph glyph-name="afii10105" unicode="&#x458;" horiz-adv-x="540" 
d="M199 1278q0 33 22 51q23 19 51 19t51 -20q21 -20 21 -51q0 -32 -20 -52q-20 -21 -52 -21t-52 20q-21 20 -21 54zM326 922v-990q0 -358 -289 -358q-117 0 -189 57l33 86q63 -43 133 -43q205 0 205 267v981h107z" />
    <glyph glyph-name="afii10106" unicode="&#x459;" horiz-adv-x="1519" 
d="M1053 512h-135v-412h133q145 0 209 52t63 155q0 205 -270 205zM811 0v815h-389l-12 -201q-28 -383 -128 -516q-48 -61 -96 -84t-108 -22l-8 104q94 0 159 140q64 131 78 399l15 287h596v-310h153q365 0 365 -303q0 -135 -89 -222t-290 -87h-246z" />
    <glyph glyph-name="afii10107" unicode="&#x45a;" horiz-adv-x="1574" 
d="M1108 483h-135v-383h133q150 0 211 46t61 146t-63 145q-64 46 -207 46zM162 0v922h106v-375h598v375h107v-338h153q365 0 365 -289q0 -295 -379 -295h-246v446h-598v-446h-106z" />
    <glyph glyph-name="afii10108" unicode="&#x45b;" horiz-adv-x="1230" 
d="M6 987v88h287v359h106v-359h406v-88h-406v-364q57 61 147 100t183 39q387 0 387 -414v-348h-106v332q0 330 -303 330q-89 0 -175 -41t-133 -101v-520h-106v987h-287z" />
    <glyph glyph-name="afii10109" unicode="&#x45c;" horiz-adv-x="991" 
d="M719 1403l-238 -293l-65 47l221 309zM162 0v922h106v-922h-106zM913 922l-454 -441l491 -481h-143l-477 475l446 447h137z" />
    <glyph glyph-name="afii10110" unicode="&#x45e;" horiz-adv-x="985" 
d="M221 1401h96q-1 -76 53 -128t136 -52t133 52t51 128h96q0 -113 -78 -188t-205 -75q-128 0 -205 74t-77 189zM248 -410q-88 0 -168 48l35 81q66 -31 108 -30q70 0 125 60t115 202l20 49l-454 922h127l315 -652l66 -143q10 35 51 147l248 648h120l-372 -922
q-98 -240 -173 -325t-163 -85z" />
    <glyph glyph-name="afii10193" unicode="&#x45f;" horiz-adv-x="1103" 
d="M162 0v922h106v-822h568v822h106v-922h-340v-268h-100v268h-340z" />
    <glyph glyph-name="afii10146" unicode="&#x462;" horiz-adv-x="1294" 
d="M639 748q-125 0 -225 -13v-626q184 -6 217 -7q434 0 434 336q0 310 -426 310zM301 1090h-289v106h289v238h113v-238h338v-106h-338v-246q147 10 231 10q539 0 539 -414q0 -220 -148 -332t-418 -112l-317 4v1090z" />
    <glyph glyph-name="afii10194" unicode="&#x463;" horiz-adv-x="1019" 
d="M571 475h-174v-375h172q137 0 196 48q58 48 58 141q0 186 -252 186zM6 821v101h285v512h106v-512h328v-101h-328v-246h174q365 0 365 -292q0 -283 -379 -283h-266v821h-285z" />
    <glyph glyph-name="afii10147" unicode="&#x472;" horiz-adv-x="1658" 
d="M565 862q119 0 283 -89t258 -89t178 38t139 87q-31 237 -197 387t-407 150q-243 0 -413 -174t-177 -439q164 129 336 129zM574 762q-98 0 -188 -44q-91 -44 -150 -97q32 -233 198 -383t408 -150t412 174q169 174 176 436q-162 -115 -316 -114q-118 0 -280 89t-260 89z
M111 714q0 316 204 527q205 211 513 211t514 -208t206 -525t-206 -527t-513 -210t-513 207q-205 209 -205 525z" />
    <glyph glyph-name="afii10195" unicode="&#x473;" horiz-adv-x="1161" 
d="M811 432q70 0 139 49q-8 158 -111 258q-103 101 -251 101t-250 -84q-100 -84 -123 -221q82 53 167 53t222 -78t207 -78zM794 332q-78 0 -212 78q-135 78 -214 77q-79 0 -159 -65q11 -152 115 -246t250 -94t243 80q98 80 125 211q-70 -41 -148 -41zM96 461q0 209 135 344
t349 135t348 -135q135 -135 135 -344t-135 -344t-348 -135t-349 135q-135 135 -135 344z" />
    <glyph glyph-name="afii10148" unicode="&#x474;" horiz-adv-x="1345" 
d="M1096 1040l-377 -1052h-80l-616 1446h120l539 -1270l332 954q80 227 157 288q78 60 215 21l-18 -98q-96 37 -148 -25t-124 -264z" />
    <glyph glyph-name="afii10196" unicode="&#x475;" horiz-adv-x="980" 
d="M791 623l-248 -635h-74l-446 934h124l279 -580q35 -78 82 -197l72 203l131 340q68 176 131 221t180 6l-18 -98q-68 35 -112 -12t-101 -182z" />
    <glyph glyph-name="afii10050" unicode="&#x490;" horiz-adv-x="1030" 
d="M227 0v1434h684v268h107v-375h-678v-1327h-113z" />
    <glyph glyph-name="afii10098" unicode="&#x491;" horiz-adv-x="722" 
d="M162 0v922h454v227h101v-328h-449v-821h-106z" />
    <glyph glyph-name="uni1E9E" unicode="&#x1e9e;" horiz-adv-x="1269" 
d="M1034 336q0 153 -192 327q-111 97 -256 197l278 408q-86 78 -223 78t-219 -81t-82 -245v-1026h-113v1032q0 211 115 319q114 107 312 107t352 -156l-285 -401q197 -135 315 -273t117 -292q0 -154 -102 -252q-102 -96 -234 -96q-176 0 -311 122l55 86q43 -35 66 -52
q68 -50 164 -50q95 0 169 68t74 180z" />
    <glyph glyph-name="uni2010" unicode="&#x2010;" horiz-adv-x="817" 
d="M174 506v100h469v-100h-469z" />
    <glyph glyph-name="uni2011" unicode="&#x2011;" horiz-adv-x="817" 
d="M174 506v100h469v-100h-469z" />
    <glyph glyph-name="figuredash" unicode="&#x2012;" horiz-adv-x="1208" 
d="M193 678v94h823v-94h-823z" />
    <glyph glyph-name="endash" unicode="&#x2013;" horiz-adv-x="1208" 
d="M193 506v94h823v-94h-823z" />
    <glyph glyph-name="emdash" unicode="&#x2014;" horiz-adv-x="1630" 
d="M193 506v94h1245v-94h-1245z" />
    <glyph glyph-name="afii00208" unicode="&#x2015;" horiz-adv-x="1630" 
d="M193 506v94h1245v-94h-1245z" />
    <glyph glyph-name="quoteleft" unicode="&#x2018;" horiz-adv-x="487" 
d="M162 1225q0 186 151 270l49 -49q-100 -63 -100 -197q0 -71 41 -116l-88 -56q-53 57 -53 148z" />
    <glyph glyph-name="quoteright" unicode="&#x2019;" horiz-adv-x="487" 
d="M225 1321q0 74 -41 115l88 57q53 -61 54 -150q0 -186 -152 -270l-49 51q100 59 100 197z" />
    <glyph glyph-name="quotesinglbase" unicode="&#x201a;" horiz-adv-x="487" 
d="M225 -41q0 74 -41 115l88 57q53 -61 54 -149q0 -186 -152 -271l-49 51q100 59 100 197z" />
    <glyph glyph-name="quotedblleft" unicode="&#x201c;" horiz-adv-x="755" 
d="M162 1225q0 186 151 270l49 -49q-100 -63 -100 -197q0 -71 41 -116l-88 -56q-53 57 -53 148zM430 1225q0 186 152 270l49 -49q-100 -63 -101 -197q0 -71 41 -116l-88 -56q-53 57 -53 148z" />
    <glyph glyph-name="quotedblright" unicode="&#x201d;" horiz-adv-x="755" 
d="M225 1321q0 74 -41 115l88 57q53 -61 54 -150q0 -186 -152 -270l-49 51q100 59 100 197zM594 1343q0 -186 -152 -270l-49 51q100 59 101 197q0 74 -41 115l88 57q53 -61 53 -150z" />
    <glyph glyph-name="quotedblbase" unicode="&#x201e;" horiz-adv-x="755" 
d="M225 -41q0 74 -41 115l88 57q53 -61 54 -149q0 -186 -152 -271l-49 51q100 59 100 197zM594 -18q0 -186 -152 -271l-49 51q100 59 101 197q0 74 -41 115l88 57q53 -61 53 -149z" />
    <glyph glyph-name="dagger" unicode="&#x2020;" horiz-adv-x="886" 
d="M82 864v94h311v476h101v-476h311v-94h-311v-1069h-101v1069h-311z" />
    <glyph glyph-name="daggerdbl" unicode="&#x2021;" horiz-adv-x="886" 
d="M82 864v94h311v476h101v-476h311v-94h-311v-438h311v-94h-311v-537h-101v537h-311v94h311v438h-311z" />
    <glyph glyph-name="bullet" unicode="&#x2022;" horiz-adv-x="380" 
d="M70 537q0 49 35 85q36 36 85 36t85 -36t36 -85t-36 -85t-85 -36t-85 36q-35 36 -35 85z" />
    <glyph glyph-name="ellipsis" unicode="&#x2026;" horiz-adv-x="1720" 
d="M168 76q0 32 24 54t56 22t54 -23t22 -53t-22 -56q-22 -24 -54 -24t-57 24q-23 25 -23 56zM782 76q0 32 24 54t56 22t54 -23t22 -53t-22 -56q-22 -24 -54 -24t-56 24t-24 56zM1397 76q-1 32 23 54t57 22t55 -23t20 -53q0 -30 -22 -56q-22 -24 -54 -24t-56 24
q-23 25 -23 56z" />
    <glyph glyph-name="perthousand" unicode="&#x2030;" horiz-adv-x="2588" 
d="M1032 324q0 -108 75 -176t178 -68t177 68t74 176t-75 177t-177 69t-177 -70q-75 -68 -75 -176zM932 326q0 145 100 238t252 93t252 -93t100 -238q0 -146 -100 -240t-252 -94t-252 94t-100 240zM205 1108q0 -108 75 -176t178 -68t177 69t74 176t-75 176t-177 69t-177 -69
t-75 -177zM104 1110q0 144 100 238t253 94q152 0 252 -93t100 -239t-100 -240t-252 -94q-153 0 -253 94t-100 240zM309 27l1067 1425l64 -45l-1067 -1425zM1880 324q0 -108 75 -176t178 -68t177 68t74 176t-75 177t-177 69t-177 -70q-75 -68 -75 -176zM1780 326
q0 145 100 238t252 93t252 -93t100 -238q0 -146 -100 -240t-252 -94t-252 94t-100 240z" />
    <glyph glyph-name="guilsinglleft" unicode="&#x2039;" horiz-adv-x="679" 
d="M473 76l-369 432v8l373 428l70 -61l-320 -371l316 -371z" />
    <glyph glyph-name="guilsinglright" unicode="&#x203a;" horiz-adv-x="679" 
d="M575 508l-368 -432l-72 65l318 371l-320 371l70 61l372 -428v-8z" />
    <glyph glyph-name="fraction" unicode="&#x2044;" horiz-adv-x="393" 
d="M-369 27l1067 1425l64 -45l-1067 -1425z" />
    <glyph glyph-name="uni2070" unicode="&#x2070;" horiz-adv-x="763" 
d="M190 1075q0 -133 52 -209t141 -75q190 0 190 284q0 135 -49 210t-143 75q-95 0 -143 -76t-48 -209zM90 1074q0 163 76 265q76 103 216 103t216 -102t76 -265q0 -162 -75 -264t-216 -102t-217 101t-76 264z" />
    <glyph glyph-name="uni2074" unicode="&#x2074;" horiz-adv-x="690" 
d="M434 717v178h-399v59l366 480h93l-359 -463h299v207h88v-207h127v-76h-127v-178h-88z" />
    <glyph glyph-name="uni2075" unicode="&#x2075;" horiz-adv-x="673" 
d="M590 1434v-76h-332l-33 -213q53 14 103 14q122 0 194 -58t72 -162q0 -105 -78 -169t-194 -63q-188 0 -267 118l54 52q63 -94 198 -95q82 0 134 44q53 44 53 112t-58 110t-150 42t-141 -17l48 361h397z" />
    <glyph glyph-name="uni2076" unicode="&#x2076;" horiz-adv-x="755" 
d="M575 937q0 65 -49 109t-131 44q-81 0 -135 -38t-74 -85q2 -76 58 -130q56 -55 142 -55q87 0 138 45t51 110zM188 1047q74 112 250 112q98 0 168 -61q70 -62 70 -160t-81 -165t-215 -67t-214 78q-80 76 -80 195q0 184 137 315t322 150l20 -66q-139 -20 -243 -107
t-134 -224z" />
    <glyph glyph-name="uni2077" unicode="&#x2077;" horiz-adv-x="614" 
d="M41 1352v82h530v-56l-327 -661h-105l322 635h-420z" />
    <glyph glyph-name="uni2078" unicode="&#x2078;" horiz-adv-x="776" 
d="M389 707q-125 0 -209 53t-84 131t45 127t123 65v4q-61 15 -100 63t-39 120t75 122q74 52 188 52t189 -51t74 -136q0 -55 -38 -102t-107 -68v-2q78 -10 126 -58t48 -130t-83 -136t-208 -54zM406 1051h-31q-76 0 -130 -38q-55 -38 -55 -96q0 -59 56 -97t141 -38
q84 0 141 38q58 38 58 98t-52 97q-52 36 -128 36zM371 1120h35q59 0 105 36t46 89t-50 88t-120 35t-119 -35t-49 -88q1 -53 47 -89t105 -36z" />
    <glyph glyph-name="uni2079" unicode="&#x2079;" horiz-adv-x="755" 
d="M370 1368q-88 0 -139 -45t-51 -109t49 -112q49 -47 131 -47t136 38q53 38 71 85q-2 80 -56 135q-53 55 -141 55zM565 1104q-63 -119 -245 -119q-98 -1 -170 63q-70 64 -70 163t80 166t214 67t214 -78t80 -205q0 -195 -132 -319t-339 -135l-15 67q162 16 271 110t112 220z
" />
    <glyph glyph-name="uni207A" unicode="&#x207a;" horiz-adv-x="737" 
d="M96 1047v75h232v232h75v-232h238v-75h-238v-232h-75v232h-232z" />
    <glyph glyph-name="uni207B" unicode="&#x207b;" horiz-adv-x="737" 
d="M96 1047v75h545v-75h-545z" />
    <glyph glyph-name="uni207C" unicode="&#x207c;" horiz-adv-x="737" 
d="M96 1182v75h545v-75h-545zM96 911v76h545v-76h-545z" />
    <glyph glyph-name="uni207D" unicode="&#x207d;" horiz-adv-x="399" 
d="M156 1071q0 -115 58 -218t165 -169l-57 -55q-133 74 -197 194q-63 121 -64 248q0 268 263 440l51 -53q-219 -150 -219 -387z" />
    <glyph glyph-name="uni207E" unicode="&#x207e;" horiz-adv-x="399" 
d="M244 1069q0 115 -58 217q-57 102 -166 170l58 55q133 -75 196 -195t64 -247q0 -266 -262 -440l-51 53q219 147 219 387z" />
    <glyph glyph-name="uni2080" unicode="&#x2080;" horiz-adv-x="763" 
d="M190 358q0 -132 52 -208t141 -76q190 0 190 284q0 135 -49 210t-143 75q-95 0 -143 -76t-48 -209zM90 357q0 163 76 265t216 103q140 0 216 -102q76 -103 76 -265t-75 -264t-216 -102t-217 101t-76 264z" />
    <glyph glyph-name="uni2081" unicode="&#x2081;" horiz-adv-x="489" 
d="M324 721v-721h-95v608l-135 -90l-39 66l203 137h66z" />
    <glyph glyph-name="uni2082" unicode="&#x2082;" horiz-adv-x="694" 
d="M80 0v70l63 45q66 45 82 58q17 13 73 56t78 69t68 78t45 120q1 67 -39 107t-106 40t-116 -35t-58 -94l-82 27q14 86 87 135t181 49t171 -60q62 -60 63 -153q0 -203 -383 -430h422v-82h-549z" />
    <glyph glyph-name="uni2083" unicode="&#x2083;" horiz-adv-x="700" 
d="M336 -10q-205 0 -273 137l58 49q57 -108 214 -106q75 0 125 39t50 95t-46 91t-122 35h-74v69h66q59 0 102 38t43 93t-42 86t-113 31q-135 0 -189 -98l-49 51q63 127 256 127q111 0 174 -48q64 -47 64 -119t-39 -120t-107 -67v-2q82 -7 129 -57t47 -115q0 -93 -78 -151
t-196 -58z" />
    <glyph glyph-name="uni2084" unicode="&#x2084;" horiz-adv-x="690" 
d="M434 0v178h-399v60l366 479h93l-359 -463h299v207h88v-207h127v-76h-127v-178h-88z" />
    <glyph glyph-name="uni2085" unicode="&#x2085;" horiz-adv-x="673" 
d="M590 717v-76h-332l-33 -213q53 14 103 14q122 0 194 -58t72 -162t-78 -168t-194 -64q-188 0 -267 119l54 51q63 -94 198 -94q82 0 134 44q53 44 53 112t-58 109t-150 41t-141 -16l48 361h397z" />
    <glyph glyph-name="uni2086" unicode="&#x2086;" horiz-adv-x="755" 
d="M386 66q87 0 138 45t51 109t-49 109q-49 44 -131 44q-81 0 -135 -38t-74 -85q2 -76 58 -130t142 -54zM86 262q0 184 137 316t322 149l20 -65q-139 -20 -243 -108t-134 -224q32 47 92 80t138 32q118 0 188 -61t70 -159t-81 -166q-81 -66 -215 -66t-214 76t-80 196z" />
    <glyph glyph-name="uni2087" unicode="&#x2087;" horiz-adv-x="614" 
d="M41 635v82h530v-55l-327 -662h-105l322 635h-420z" />
    <glyph glyph-name="uni2088" unicode="&#x2088;" horiz-adv-x="776" 
d="M389 -10q-125 0 -209 53t-84 131t45 127t123 66v4q-61 16 -100 63t-39 119t75 123q74 51 188 51t189 -51t74 -135q0 -55 -38 -103t-107 -67v-2q78 -11 126 -59t48 -130t-83 -136t-208 -54zM406 334h-31q-76 0 -130 -38q-55 -38 -55 -96t56 -96t141 -38q84 0 141 38
q58 38 58 98t-52 96t-128 36zM371 403h35q59 0 105 36t46 89t-50 88t-120 35t-119 -35t-49 -88q1 -53 47 -89t105 -36z" />
    <glyph glyph-name="uni2089" unicode="&#x2089;" horiz-adv-x="755" 
d="M370 651q-88 0 -139 -45q-51 -46 -51 -110t49 -111t131 -47t136 38q53 38 71 85q-2 80 -56 135q-53 55 -141 55zM565 387q-63 -119 -245 -119q-98 0 -170 64q-70 64 -70 162q0 100 80 166t214 67q134 0 214 -78t80 -205q0 -196 -132 -320t-339 -134l-15 67
q162 15 271 109t112 221z" />
    <glyph glyph-name="uni208A" unicode="&#x208a;" horiz-adv-x="737" 
d="M96 330v76h232v231h75v-231h238v-76h-238v-232h-75v232h-232z" />
    <glyph glyph-name="uni208B" unicode="&#x208b;" horiz-adv-x="737" 
d="M96 330v76h545v-76h-545z" />
    <glyph glyph-name="uni208C" unicode="&#x208c;" horiz-adv-x="737" 
d="M96 465v76h545v-76h-545zM96 195v75h545v-75h-545z" />
    <glyph glyph-name="uni208D" unicode="&#x208d;" horiz-adv-x="399" 
d="M156 354q0 -115 58 -218t165 -169l-57 -55q-133 74 -197 194q-63 121 -64 248q0 268 263 441l51 -54q-219 -150 -219 -387z" />
    <glyph glyph-name="uni208E" unicode="&#x208e;" horiz-adv-x="399" 
d="M244 352q0 115 -58 217q-57 102 -166 170l58 56q133 -74 196 -195t64 -248q0 -266 -262 -440l-51 53q219 147 219 387z" />
    <glyph glyph-name="Euro" unicode="&#x20ac;" horiz-adv-x="1206" 
d="M891 1452q170 0 280 -59l-41 -99q-102 51 -237 52q-195 0 -338 -108t-203 -290h686l-30 -88h-678q-22 -130 -6 -252h618l-29 -88h-571q53 -200 208 -316t368 -116q133 0 212 43l21 -104q-74 -45 -242 -45q-264 0 -449 144t-241 394h-178l35 88h129q-6 51 -6 113t10 139
h-170l35 88h155q63 228 237 366t425 138z" />
    <glyph glyph-name="uni20B4" unicode="&#x20b4;" horiz-adv-x="1228" 
d="M1022 176q-126 -194 -414 -194q-144 0 -259 88q-114 88 -113 239q0 121 77 213h-155v88h221q51 49 177 128t175 124h-573v88h645q59 92 57 186t-69 151q-68 58 -166 59q-184 0 -301 -117l-56 80q125 143 357 143q164 0 260 -84t96 -208t-72 -210h162v-88h-219
q-53 -53 -177 -130t-173 -122h569v-88h-649q-80 -84 -80 -196t87 -175q87 -62 212 -63q207 0 322 162z" />
    <glyph glyph-name="uni20B6" unicode="&#x20b6;" horiz-adv-x="1228" 
d="M639 1331q-113 0 -248 -4v-590h234q195 0 295 77t100 220q0 297 -381 297zM1139 1042q0 -178 -127 -286t-383 -107h-238v-252h371v-88h-371v-309h-112v309h-230v88h230v252h-230v88h230v697l350 4q510 0 510 -396z" />
    <glyph glyph-name="uni20B6" unicode="&#x20cf;" horiz-adv-x="1228" 
d="M639 1331q-113 0 -248 -4v-590h234q195 0 295 77t100 220q0 297 -381 297zM1139 1042q0 -178 -127 -286t-383 -107h-238v-252h371v-88h-371v-309h-112v309h-230v88h230v252h-230v88h230v697l350 4q510 0 510 -396z" />
    <glyph glyph-name="uni20B6" unicode="&#x20ce;" horiz-adv-x="1228" 
d="M639 1331q-113 0 -248 -4v-590h234q195 0 295 77t100 220q0 297 -381 297zM1139 1042q0 -178 -127 -286t-383 -107h-238v-252h371v-88h-371v-309h-112v309h-230v88h230v252h-230v88h230v697l350 4q510 0 510 -396z" />
    <glyph glyph-name="uni20B6" unicode="&#x20cd;" horiz-adv-x="1228" 
d="M639 1331q-113 0 -248 -4v-590h234q195 0 295 77t100 220q0 297 -381 297zM1139 1042q0 -178 -127 -286t-383 -107h-238v-252h371v-88h-371v-309h-112v309h-230v88h230v252h-230v88h230v697l350 4q510 0 510 -396z" />
    <glyph glyph-name="uni20B6" unicode="&#x20cc;" horiz-adv-x="1228" 
d="M639 1331q-113 0 -248 -4v-590h234q195 0 295 77t100 220q0 297 -381 297zM1139 1042q0 -178 -127 -286t-383 -107h-238v-252h371v-88h-371v-309h-112v309h-230v88h230v252h-230v88h230v697l350 4q510 0 510 -396z" />
    <glyph glyph-name="uni20B6" unicode="&#x20cb;" horiz-adv-x="1228" 
d="M639 1331q-113 0 -248 -4v-590h234q195 0 295 77t100 220q0 297 -381 297zM1139 1042q0 -178 -127 -286t-383 -107h-238v-252h371v-88h-371v-309h-112v309h-230v88h230v252h-230v88h230v697l350 4q510 0 510 -396z" />
    <glyph glyph-name="uni20B6" unicode="&#x20ca;" horiz-adv-x="1228" 
d="M639 1331q-113 0 -248 -4v-590h234q195 0 295 77t100 220q0 297 -381 297zM1139 1042q0 -178 -127 -286t-383 -107h-238v-252h371v-88h-371v-309h-112v309h-230v88h230v252h-230v88h230v697l350 4q510 0 510 -396z" />
    <glyph glyph-name="uni20B6" unicode="&#x20c9;" horiz-adv-x="1228" 
d="M639 1331q-113 0 -248 -4v-590h234q195 0 295 77t100 220q0 297 -381 297zM1139 1042q0 -178 -127 -286t-383 -107h-238v-252h371v-88h-371v-309h-112v309h-230v88h230v252h-230v88h230v697l350 4q510 0 510 -396z" />
    <glyph glyph-name="uni20B6" unicode="&#x20c8;" horiz-adv-x="1228" 
d="M639 1331q-113 0 -248 -4v-590h234q195 0 295 77t100 220q0 297 -381 297zM1139 1042q0 -178 -127 -286t-383 -107h-238v-252h371v-88h-371v-309h-112v309h-230v88h230v252h-230v88h230v697l350 4q510 0 510 -396z" />
    <glyph glyph-name="uni20B6" unicode="&#x20c7;" horiz-adv-x="1228" 
d="M639 1331q-113 0 -248 -4v-590h234q195 0 295 77t100 220q0 297 -381 297zM1139 1042q0 -178 -127 -286t-383 -107h-238v-252h371v-88h-371v-309h-112v309h-230v88h230v252h-230v88h230v697l350 4q510 0 510 -396z" />
    <glyph glyph-name="uni20B6" unicode="&#x20c6;" horiz-adv-x="1228" 
d="M639 1331q-113 0 -248 -4v-590h234q195 0 295 77t100 220q0 297 -381 297zM1139 1042q0 -178 -127 -286t-383 -107h-238v-252h371v-88h-371v-309h-112v309h-230v88h230v252h-230v88h230v697l350 4q510 0 510 -396z" />
    <glyph glyph-name="uni20B6" unicode="&#x20c5;" horiz-adv-x="1228" 
d="M639 1331q-113 0 -248 -4v-590h234q195 0 295 77t100 220q0 297 -381 297zM1139 1042q0 -178 -127 -286t-383 -107h-238v-252h371v-88h-371v-309h-112v309h-230v88h230v252h-230v88h230v697l350 4q510 0 510 -396z" />
    <glyph glyph-name="uni20B6" unicode="&#x20c4;" horiz-adv-x="1228" 
d="M639 1331q-113 0 -248 -4v-590h234q195 0 295 77t100 220q0 297 -381 297zM1139 1042q0 -178 -127 -286t-383 -107h-238v-252h371v-88h-371v-309h-112v309h-230v88h230v252h-230v88h230v697l350 4q510 0 510 -396z" />
    <glyph glyph-name="uni20B6" unicode="&#x20c3;" horiz-adv-x="1228" 
d="M639 1331q-113 0 -248 -4v-590h234q195 0 295 77t100 220q0 297 -381 297zM1139 1042q0 -178 -127 -286t-383 -107h-238v-252h371v-88h-371v-309h-112v309h-230v88h230v252h-230v88h230v697l350 4q510 0 510 -396z" />
    <glyph glyph-name="uni20B6" unicode="&#x20c2;" horiz-adv-x="1228" 
d="M639 1331q-113 0 -248 -4v-590h234q195 0 295 77t100 220q0 297 -381 297zM1139 1042q0 -178 -127 -286t-383 -107h-238v-252h371v-88h-371v-309h-112v309h-230v88h230v252h-230v88h230v697l350 4q510 0 510 -396z" />
    <glyph glyph-name="uni20B6" unicode="&#x20c1;" horiz-adv-x="1228" 
d="M639 1331q-113 0 -248 -4v-590h234q195 0 295 77t100 220q0 297 -381 297zM1139 1042q0 -178 -127 -286t-383 -107h-238v-252h371v-88h-371v-309h-112v309h-230v88h230v252h-230v88h230v697l350 4q510 0 510 -396z" />
    <glyph glyph-name="uni20B6" unicode="&#x20c0;" horiz-adv-x="1228" 
d="M639 1331q-113 0 -248 -4v-590h234q195 0 295 77t100 220q0 297 -381 297zM1139 1042q0 -178 -127 -286t-383 -107h-238v-252h371v-88h-371v-309h-112v309h-230v88h230v252h-230v88h230v697l350 4q510 0 510 -396z" />
    <glyph glyph-name="uni20B6" unicode="&#x20bf;" horiz-adv-x="1228" 
d="M639 1331q-113 0 -248 -4v-590h234q195 0 295 77t100 220q0 297 -381 297zM1139 1042q0 -178 -127 -286t-383 -107h-238v-252h371v-88h-371v-309h-112v309h-230v88h230v252h-230v88h230v697l350 4q510 0 510 -396z" />
    <glyph glyph-name="uni20B6" unicode="&#x20be;" horiz-adv-x="1228" 
d="M639 1331q-113 0 -248 -4v-590h234q195 0 295 77t100 220q0 297 -381 297zM1139 1042q0 -178 -127 -286t-383 -107h-238v-252h371v-88h-371v-309h-112v309h-230v88h230v252h-230v88h230v697l350 4q510 0 510 -396z" />
    <glyph glyph-name="uni20B6" unicode="&#x20bd;" horiz-adv-x="1228" 
d="M639 1331q-113 0 -248 -4v-590h234q195 0 295 77t100 220q0 297 -381 297zM1139 1042q0 -178 -127 -286t-383 -107h-238v-252h371v-88h-371v-309h-112v309h-230v88h230v252h-230v88h230v697l350 4q510 0 510 -396z" />
    <glyph glyph-name="uni20B6" unicode="&#x20bc;" horiz-adv-x="1228" 
d="M639 1331q-113 0 -248 -4v-590h234q195 0 295 77t100 220q0 297 -381 297zM1139 1042q0 -178 -127 -286t-383 -107h-238v-252h371v-88h-371v-309h-112v309h-230v88h230v252h-230v88h230v697l350 4q510 0 510 -396z" />
    <glyph glyph-name="uni20B6" unicode="&#x20bb;" horiz-adv-x="1228" 
d="M639 1331q-113 0 -248 -4v-590h234q195 0 295 77t100 220q0 297 -381 297zM1139 1042q0 -178 -127 -286t-383 -107h-238v-252h371v-88h-371v-309h-112v309h-230v88h230v252h-230v88h230v697l350 4q510 0 510 -396z" />
    <glyph glyph-name="uni20B6" unicode="&#x20ba;" horiz-adv-x="1228" 
d="M639 1331q-113 0 -248 -4v-590h234q195 0 295 77t100 220q0 297 -381 297zM1139 1042q0 -178 -127 -286t-383 -107h-238v-252h371v-88h-371v-309h-112v309h-230v88h230v252h-230v88h230v697l350 4q510 0 510 -396z" />
    <glyph glyph-name="uni20B6" unicode="&#x20b9;" horiz-adv-x="1228" 
d="M639 1331q-113 0 -248 -4v-590h234q195 0 295 77t100 220q0 297 -381 297zM1139 1042q0 -178 -127 -286t-383 -107h-238v-252h371v-88h-371v-309h-112v309h-230v88h230v252h-230v88h230v697l350 4q510 0 510 -396z" />
    <glyph glyph-name="uni20B6" unicode="&#x20b7;" horiz-adv-x="1228" 
d="M639 1331q-113 0 -248 -4v-590h234q195 0 295 77t100 220q0 297 -381 297zM1139 1042q0 -178 -127 -286t-383 -107h-238v-252h371v-88h-371v-309h-112v309h-230v88h230v252h-230v88h230v697l350 4q510 0 510 -396z" />
    <glyph glyph-name="afii61352" unicode="&#x2116;" horiz-adv-x="2387" 
d="M1599 444v101h570v-101h-570zM1632 1014q0 -108 75 -176t178 -68t177 69t74 176t-75 176t-177 69t-177 -69t-75 -177zM1532 1016q0 145 100 238q100 94 252 94t252 -94t100 -238q0 -146 -100 -240t-252 -94t-252 94t-100 240zM1364 0h-90l-940 1233v-1233h-107v1434h90
l940 -1237v1237h107v-1434z" />
    <glyph glyph-name="trademark" unicode="&#x2122;" horiz-adv-x="1703" 
d="M27 1335v99h643v-99h-273v-547h-100v547h-270zM782 788v646h92l295 -338l283 338h90v-646h-102v517l-273 -328h-4l-280 328v-517h-101z" />
    <glyph glyph-name="arrowleft" unicode="&#x2190;" horiz-adv-x="1316" 
d="M1235 614v-106h-950l452 -453l-75 -75l-580 579l580 578l75 -74l-450 -449h948z" />
    <glyph glyph-name="arrowup" unicode="&#x2191;" horiz-adv-x="1320" 
d="M713 0h-107v948l-448 -450l-76 75l577 580l580 -580l-74 -75l-452 452v-950z" />
    <glyph glyph-name="arrowright" unicode="&#x2192;" horiz-adv-x="1316" 
d="M82 508v106h948l-450 449l75 74l580 -578l-580 -579l-75 75l452 453h-950z" />
    <glyph glyph-name="arrowdown" unicode="&#x2193;" horiz-adv-x="1320" 
d="M606 1112h107v-950l452 452l74 -75l-580 -580l-577 580l76 75l448 -450v948z" />
    <glyph glyph-name="partialdiff" unicode="&#x2202;" horiz-adv-x="1193" 
d="M602 840q-164 0 -278 -123t-115 -279q0 -156 93 -256t243 -100q182 0 298 157t134 361q-115 240 -375 240zM532 -18q-190 0 -313 123t-123 325t144 356t358 154q150 0 249 -69t136 -158q0 262 -137 441t-432 202l16 96q314 -14 490 -212t176 -511t-152 -530t-412 -217z
" />
    <glyph glyph-name="product" unicode="&#x220f;" horiz-adv-x="1798" 
d="M1458 -410v1737h-1118v-1737h-113v1844h1344v-1844h-113z" />
    <glyph glyph-name="summation" unicode="&#x2211;" horiz-adv-x="1288" 
d="M82 1434h1124v-107h-962l610 -815l-616 -815h968v-107h-1124v72l641 850l-641 850v72z" />
    <glyph glyph-name="minus" unicode="&#x2212;" horiz-adv-x="1206" 
d="M145 690v94h914v-94h-914z" />
    <glyph glyph-name="uni2215" unicode="&#x2215;" horiz-adv-x="649" 
d="M-61 -393l688 1845l84 -31l-686 -1847z" />
    <glyph glyph-name="radical" unicode="&#x221a;" horiz-adv-x="1202" 
d="M6 815v107h301l373 -742l281 1254h544v-107h-450l-307 -1339h-86l-429 827h-227z" />
    <glyph glyph-name="infinity" unicode="&#x221e;" horiz-adv-x="1511" 
d="M428 907q-96 0 -156 -61q-60 -60 -61 -150t67 -146t151 -56t143 51t126 149q-53 72 -85 109t-83 71t-102 33zM1300 699q0 83 -55 145t-147 63q-92 0 -156 -52t-133 -150q80 -104 145 -158q66 -53 154 -53t140 61t52 144zM1124 399q-122 -1 -204 59t-166 167
q-78 -109 -154 -167t-188 -58t-207 81q-94 82 -94 211t88 219t223 90q98 0 173 -58t159 -167q76 106 155 166q80 59 207 59t206 -87t79 -213t-78 -214t-199 -88z" />
    <glyph glyph-name="integral" unicode="&#x222b;" horiz-adv-x="686" 
d="M297 -47q0 -340 -223 -373q-31 -4 -97 -4q-92 6 -157 55l33 86q63 -43 133 -43q112 0 158 73t46 210v1114q0 336 252 375q53 8 99 2q123 -4 207 -74l-41 -82q-74 54 -157 58q-253 11 -253 -297v-1100z" />
    <glyph glyph-name="approxequal" unicode="&#x2248;" horiz-adv-x="1206" 
d="M379 1036q83 0 239 -74t243 -75q87 0 181 94l45 -74q-121 -115 -237 -114q-84 1 -238 75t-229 74q-109 0 -215 -106l-51 69q131 131 262 131zM379 684q83 0 239 -75t243 -75t181 95l45 -74q-121 -115 -237 -115q-84 0 -238 75t-229 75q-109 -1 -215 -107l-51 70
q131 131 262 131z" />
    <glyph glyph-name="notequal" unicode="&#x2260;" horiz-adv-x="1206" 
d="M145 866v95h484l184 491l84 -31l-172 -460h334v-95h-369l-96 -258h465v-94h-500l-197 -532l-86 30l187 502h-318v94h353l96 258h-449z" />
    <glyph glyph-name="lessequal" unicode="&#x2264;" horiz-adv-x="1206" 
d="M991 358l-860 537v45l860 533v-117l-710 -438l710 -443v-117zM131 543v102l860 -534v-105z" />
    <glyph glyph-name="greaterequal" unicode="&#x2265;" horiz-adv-x="1206" 
d="M1073 895l-858 -537v117l711 443l-711 438v117l858 -533v-45zM1073 645v-102l-858 -537v105z" />
    <glyph glyph-name="lozenge" unicode="&#x25ca;" horiz-adv-x="962" 
d="M207 512l274 -420l275 440l-275 418zM440 -12l-342 522l344 549h80l342 -527l-344 -544h-80z" />
    <glyph glyph-name="spade" unicode="&#x2660;" horiz-adv-x="1294" 
d="M1171 408q0 -86 -61 -150t-178 -63q-162 0 -268 147q57 -244 219 -342h-471q150 106 215 336q-104 -141 -265 -141q-119 0 -179 63t-60 152q0 129 172 325t352 309q180 -114 352 -310t172 -326z" />
    <glyph glyph-name="club" unicode="&#x2663;" horiz-adv-x="1253" 
d="M362 780q0 109 78 187q78 77 187 77t187 -78t77 -186q0 -14 -4 -39q102 -8 173 -84q70 -75 70 -181t-78 -184t-199 -77q-122 0 -200 109q63 -236 209 -324h-471q129 90 205 319q-82 -104 -200 -104t-196 78t-77 183q0 105 70 181t172 84q-3 12 -3 39z" />
    <glyph glyph-name="heart" unicode="&#x2665;" horiz-adv-x="1329" 
d="M123 758q0 110 62 188t186 78q180 0 295 -213q111 213 292 213q120 0 184 -78t64 -186q0 -158 -175 -386t-365 -374q-190 144 -366 372t-177 386z" />
    <glyph glyph-name="diamond" unicode="&#x2666;" horiz-adv-x="1193" 
d="M1071 510q-223 -223 -475 -549q-211 279 -473 549q221 231 473 551q246 -313 475 -551z" />
    <glyph glyph-name="uniF350" unicode="&#xf350;" horiz-adv-x="1175" 
d="M584 944l-230 -498h459zM35 0l506 1083h94l506 -1083h-121l-158 342h-555l-157 -342h-115z" />
    <glyph glyph-name="uniF351" unicode="&#xf351;" horiz-adv-x="1038" 
d="M485 543q-100 0 -190 -8v-431l188 -4q322 0 322 230q-1 213 -320 213zM182 1075h670v-106h-557v-330q84 8 201 8q206 0 314 -82q108 -83 108 -241t-117 -244t-330 -86l-289 6v1075z" />
    <glyph glyph-name="uniF352" unicode="&#xf352;" horiz-adv-x="1048" 
d="M510 975q-80 0 -215 -6v-371h229q104 0 176 52t72 138q0 187 -262 187zM522 498h-227v-389q172 -8 219 -9q301 0 301 209q0 89 -76 139t-217 50zM512 1081q373 0 373 -266q-1 -100 -63 -168t-160 -86v-2q130 -14 198 -79t68 -175q0 -155 -115 -233t-305 -78t-326 8v1071
q254 8 330 8z" />
    <glyph glyph-name="uniF353" unicode="&#xf353;" horiz-adv-x="851" 
d="M182 0v1075h658v-106h-545v-969h-113z" />
    <glyph glyph-name="uniF354" unicode="&#xf354;" horiz-adv-x="1245" 
d="M920 106v863h-449l-14 -183q-19 -276 -75 -451t-103 -229h641zM27 -203v309h127q55 66 116 258t80 496l12 215h670v-969h158v-309h-107v203h-950v-203h-106z" />
    <glyph glyph-name="uniF355" unicode="&#xf355;" horiz-adv-x="985" 
d="M182 0v1075h664v-106h-551v-371h502v-106h-502v-386h567v-106h-680z" />
    <glyph glyph-name="uniF356" unicode="&#xf356;" horiz-adv-x="1548" 
d="M547 561l-484 514h138l475 -514l-494 -561h-137zM719 0v1075h112v-1075h-112zM1487 1075l-486 -510l504 -565h-137l-491 561l473 514h137z" />
    <glyph glyph-name="uniF357" unicode="&#xf357;" horiz-adv-x="978" 
d="M457 -16q-119 0 -228 49t-157 117l63 73q55 -61 145 -97t175 -36q137 0 214 60t77 152q0 93 -64 143q-63 50 -176 51h-160v104h150q80 0 142 57t62 143t-63 135q-63 48 -168 48q-184 0 -299 -121l-66 74q127 154 365 154q156 0 250 -76t94 -209q0 -80 -44 -149t-124 -97
v-6q97 -14 155 -86t58 -168q0 -145 -112 -230t-289 -85z" />
    <glyph glyph-name="uniF358" unicode="&#xf358;" horiz-adv-x="1331" 
d="M182 0v1075h113v-897l754 897h100v-1075h-113v897l-753 -897h-101z" />
    <glyph glyph-name="uniF359" unicode="&#xf359;" horiz-adv-x="1331" 
d="M375 1360h100q0 -74 49 -114q48 -40 134 -40t134 40t48 114h100q0 -111 -76 -173q-76 -63 -208 -63t-206 62q-75 62 -75 174zM182 0v1075h113v-897l754 897h100v-1075h-113v897l-753 -897h-101z" />
    <glyph glyph-name="uniF35A" unicode="&#xf35a;" horiz-adv-x="1083" 
d="M182 0v1075h113v-1075h-113zM1018 1075l-539 -506l561 -569h-153l-547 561l530 514h148z" />
    <glyph glyph-name="uniF35B" unicode="&#xf35b;" horiz-adv-x="1210" 
d="M918 0v969h-467l-19 -203q-46 -507 -158 -653q-55 -74 -108 -97t-123 -16l2 109q31 -2 57 6t62 51q123 143 166 694l16 215h684v-1075h-112z" />
    <glyph glyph-name="uniF35C" unicode="&#xf35c;" horiz-adv-x="1482" 
d="M182 0v1075h115l457 -565l438 565h108v-1075h-112v905l-434 -553h-17l-442 547v-899h-113z" />
    <glyph glyph-name="uniF35D" unicode="&#xf35d;" horiz-adv-x="1296" 
d="M1001 0v496h-706v-496h-113v1075h113v-473h706v473h113v-1075h-113z" />
    <glyph glyph-name="uniF35E" unicode="&#xf35e;" horiz-adv-x="1331" 
d="M1124 537q0 193 -132 319t-328 127q-196 -1 -326 -127q-131 -126 -131 -318t132 -320t331 -128q198 0 326 127t128 320zM88 534q0 240 164 398t413 158t413 -156t165 -396q0 -240 -165 -397q-166 -157 -414 -157t-412 156t-164 394z" />
    <glyph glyph-name="uniF35F" unicode="&#xf35f;" horiz-adv-x="1294" 
d="M999 0v969h-704v-969h-113v1075h930v-1075h-113z" />
    <glyph glyph-name="uniF360" unicode="&#xf360;" horiz-adv-x="985" 
d="M485 973q-96 0 -190 -4v-459q123 -8 180 -8q147 0 225 64t78 174q0 108 -70 170t-223 63zM897 740q0 -148 -105 -246t-311 -99q-92 0 -186 6v-401h-113v1075l293 4q227 0 325 -95q98 -96 97 -244z" />
    <glyph glyph-name="uniF361" unicode="&#xf361;" horiz-adv-x="1095" 
d="M88 529q0 245 155 403t416 158q213 0 355 -103l-53 -84q-127 80 -316 80t-313 -125q-124 -126 -125 -324q0 -198 130 -321q131 -123 327 -123t327 98l45 -86q-59 -55 -158 -87t-206 -31q-264 0 -424 150t-160 395z" />
    <glyph glyph-name="uniF362" unicode="&#xf362;" horiz-adv-x="991" 
d="M16 969v106h959v-106h-424v-969h-113v969h-422z" />
    <glyph glyph-name="uniF363" unicode="&#xf363;" horiz-adv-x="1085" 
d="M380 0q-82 0 -134 37l41 96q47 -29 92 -29q84 0 151 129l23 39l-526 803h139l444 -690l334 690h117l-406 -827q-61 -128 -127 -188t-148 -60z" />
    <glyph glyph-name="uniF364" unicode="&#xf364;" horiz-adv-x="1388" 
d="M190 551q0 -154 121 -243t320 -89h4v668h-2q-203 0 -323 -91t-120 -245zM752 887h-4v-668h8q202 0 322 88t120 244t-120 246t-326 90zM635 -12v129h-4q-254 -1 -407 115t-152 321q0 205 152 319t411 117v98h113v-98h2q262 0 414 -115q152 -114 153 -320q0 -206 -154 -322
t-405 -115h-10v-129h-113z" />
    <glyph glyph-name="uniF365" unicode="&#xf365;" horiz-adv-x="1103" 
d="M1047 1075l-422 -528l438 -547h-139l-373 461l-371 -461h-139l438 547l-420 528h140l354 -442l354 442h140z" />
    <glyph glyph-name="uniF366" unicode="&#xf366;" horiz-adv-x="1310" 
d="M182 0v1075h113v-969h690v969h113v-969h157v-309h-104v203h-969z" />
    <glyph glyph-name="uniF367" unicode="&#xf367;" horiz-adv-x="1077" 
d="M219 772q0 -274 282 -272q140 0 281 84v491h113v-1075h-113v479q-133 -86 -305 -86t-271 84t-100 260v338h113v-303z" />
    <glyph glyph-name="uniF368" unicode="&#xf368;" horiz-adv-x="1660" 
d="M182 0v1075h113v-969h477v969h113v-969h481v969h113v-1075h-1297z" />
    <glyph glyph-name="uniF369" unicode="&#xf369;" horiz-adv-x="1691" 
d="M182 0v1075h113v-969h477v969h113v-969h481v969h113v-969h157v-309h-106v203h-1348z" />
    <glyph glyph-name="uniF36A" unicode="&#xf36a;" horiz-adv-x="1114" 
d="M580 567q-74 0 -172 -6v-455q98 -4 174 -4q156 0 240 62t85 180q1 223 -327 223zM295 969h-289v106h402v-407q104 6 180 6q221 0 330 -86q108 -86 108 -247t-123 -253t-342 -92l-266 4v969z" />
    <glyph glyph-name="uniF36B" unicode="&#xf36b;" horiz-adv-x="1396" 
d="M182 1075h113v-407q102 6 168 6q217 0 325 -86t107 -247q0 -161 -122 -253t-335 -92l-256 4v1075zM457 567q-68 0 -162 -6v-455q98 -4 156 -4q326 0 325 242q0 109 -82 166t-237 57zM1102 0v1075h112v-1075h-112z" />
    <glyph glyph-name="uniF36C" unicode="&#xf36c;" horiz-adv-x="1001" 
d="M182 1075h113v-407q102 6 178 6q221 0 331 -86t110 -247t-124 -253t-344 -92l-264 4v1075zM795 344q0 223 -330 223q-76 0 -170 -6v-455l164 -4q162 0 249 62t87 180z" />
    <glyph glyph-name="uniF36D" unicode="&#xf36d;" horiz-adv-x="1134" 
d="M328 496v106h602q-18 180 -144 280t-328 101q-204 0 -327 -88l-47 84q139 111 389 111t412 -150t162 -398t-163 -402q-164 -154 -414 -154t-404 112l49 92q147 -98 348 -98t327 110t142 294h-604z" />
    <glyph glyph-name="uniF36E" unicode="&#xf36e;" horiz-adv-x="1773" 
d="M1567 539q0 195 -123 319t-317 125q-193 -1 -315 -125t-122 -318t122 -321t318 -127t316 126q121 126 121 321zM182 0v1075h113v-473h280q20 213 170 350q149 138 389 138t396 -154t156 -396t-156 -399q-156 -155 -396 -155t-394 141q-153 141 -167 369h-278v-496h-113z
" />
    <glyph glyph-name="uniF36F" unicode="&#xf36f;" horiz-adv-x="1052" 
d="M758 508v461q-135 6 -189 6q-153 0 -231 -69t-78 -164q0 -94 68 -158t155 -76h275zM870 0h-112v401h-262l-314 -401h-133l330 420q-100 37 -169 117t-69 188q0 156 113 256t328 100l288 -6v-1075z" />
    <glyph glyph-name="uniF371" unicode="&#xf371;" horiz-adv-x="985" 
d="M623 1352q0 29 19 47t46 18t46 -18q20 -18 20 -47t-18 -47q-18 -19 -47 -19q-28 0 -47 18t-19 48zM262 1352q0 29 20 47t46 18q27 0 46 -18t19 -46t-19 -47q-19 -20 -46 -20q-26 0 -46 18t-20 48zM182 0v1075h664v-106h-551v-371h502v-106h-502v-386h567v-106h-680z" />
    <glyph glyph-name="uniF372" unicode="&#xf372;" horiz-adv-x="1269" 
d="M1182 319q0 -334 -285 -333q-51 0 -98 17t-68 36l41 88q47 -35 113 -35q184 0 184 223q0 233 -254 234q-117 0 -195 -47q-55 -30 -69 -37v-465h-113v969h-422v106h959v-106h-424v-394q157 80 301 80t237 -81t93 -255z" />
    <glyph glyph-name="uniF373" unicode="&#xf373;" horiz-adv-x="851" 
d="M713 1473l-256 -269l-56 58l246 290zM182 0v1075h658v-106h-545v-969h-113z" />
    <glyph glyph-name="uniF374" unicode="&#xf374;" horiz-adv-x="1134" 
d="M805 600v-106h-604q14 -188 148 -294q135 -106 329 -108q194 0 346 98l45 -92q-154 -113 -379 -112q-272 0 -437 150t-165 399q0 247 162 401t412 154t387 -111l-52 -84q-123 88 -327 88t-326 -102q-123 -102 -141 -281h602z" />
    <glyph glyph-name="uniF375" unicode="&#xf375;" horiz-adv-x="968" 
d="M506 90q102 0 178 50t76 133q0 81 -67 131t-161 79t-188 62t-161 99t-67 178t98 190q97 78 284 78q96 0 199 -36t153 -89l-53 -84q-53 47 -139 75t-185 27q-98 0 -168 -48q-69 -48 -69 -124t66 -123t161 -75q94 -27 189 -61t162 -104t67 -187q0 -118 -110 -198
q-110 -79 -257 -79t-260 43t-172 114l65 78q133 -129 359 -129z" />
    <glyph glyph-name="uniF376" unicode="&#xf376;" horiz-adv-x="548" 
d="M217 0v1075h113v-1075h-113z" />
    <glyph glyph-name="uniF377" unicode="&#xf377;" horiz-adv-x="569" 
d="M227 0v1075h113v-1075h-113zM356 1351q0 28 20 45t44 17q25 0 43 -17t18 -45t-18 -45q-18 -18 -43 -18q-24 0 -44 18t-20 45zM92 1351q0 28 18 45t45 17q26 0 43 -17t17 -45t-17 -45q-17 -18 -43 -18q-27 0 -45 18t-18 45z" />
    <glyph glyph-name="uniF378" unicode="&#xf378;" horiz-adv-x="612" 
d="M430 1075v-833q0 -256 -242 -256q-106 0 -168 53l39 88q51 -35 123 -35q137 0 135 166v817h113z" />
    <glyph glyph-name="uniF379" unicode="&#xf379;" horiz-adv-x="1716" 
d="M1190 567q-63 0 -160 -6v-455l154 -4q326 0 325 242q1 109 -81 166t-238 57zM918 969h-465l-21 -203q-50 -560 -201 -705q-47 -45 -90 -56t-98 -5l2 113q31 -2 57 6t62 50q123 140 166 691l16 215h684v-407q98 6 166 6q217 0 325 -86q107 -86 107 -248t-121 -253
t-338 -91l-251 4v969z" />
    <glyph glyph-name="uniF37A" unicode="&#xf37a;" horiz-adv-x="1785" 
d="M1579 334q0 102 -83 158t-239 55q-75 0 -159 -8v-433l153 -4q328 0 328 232zM985 532h-690v-532h-113v1075h113v-436h690v436h113v-430q102 6 166 6q218 0 326 -83q108 -84 108 -240t-122 -244t-337 -88l-254 4v532z" />
    <glyph glyph-name="uniF37B" unicode="&#xf37b;" horiz-adv-x="1269" 
d="M16 969v106h959v-106h-424v-402q123 82 285 82t254 -83t92 -261v-305h-113v279q0 264 -248 264q-137 0 -270 -80v-463h-113v969h-422z" />
    <glyph glyph-name="uniF37C" unicode="&#xf37c;" horiz-adv-x="1083" 
d="M766 1473l-256 -269l-55 58l245 290zM182 0v1075h113v-1075h-113zM1018 1075l-539 -506l561 -569h-153l-547 561l530 514h148z" />
    <glyph glyph-name="uniF37E" unicode="&#xf37e;" horiz-adv-x="1085" 
d="M274 1360h101q0 -74 49 -114t134 -40t133 40t48 114h101q0 -111 -76 -173q-76 -63 -208 -63t-207 62t-75 174zM380 0q-82 0 -134 37l41 96q47 -29 92 -29q84 0 151 129l23 39l-526 803h139l444 -690l334 690h117l-406 -827q-61 -128 -127 -188t-148 -60z" />
    <glyph glyph-name="uniF37F" unicode="&#xf37f;" horiz-adv-x="1277" 
d="M182 0v1075h113v-969h688v969h113v-1075h-404v-240h-106v240h-404z" />
    <glyph glyph-name="uniF381" unicode="&#xf381;" horiz-adv-x="1036" 
d="M500 549q-74 0 -170 -6v-443l164 -4q336 0 335 236q1 217 -329 217zM217 811h-211v94h211v170h113v-170h278v-94h-278v-168q100 6 178 6q440 0 440 -315q0 -166 -123 -252t-344 -86l-264 4v811z" />
    <glyph glyph-name="uniF389" unicode="&#xf389;" horiz-adv-x="1331" 
d="M936 498q94 0 186 86q-16 174 -145 286t-310 113q-181 0 -308 -107q-126 -108 -148 -278q105 84 213 84t263 -92t249 -92zM428 582q-117 0 -219 -97q18 -171 147 -283q130 -112 312 -112t307 108t145 277q-104 -78 -202 -78q-98 1 -254 93q-154 92 -236 92zM88 534
q0 240 164 398t413 158t413 -156t165 -396q0 -240 -165 -397q-166 -157 -414 -157t-412 156t-164 394z" />
    <glyph glyph-name="uniF38A" unicode="&#xf38a;" horiz-adv-x="1095" 
d="M1057 1087q43 0 88 -14v-92q-77 27 -131 -23t-105 -178l-313 -788h-82l-500 1083h127l418 -925l258 677q53 139 107 199t133 61z" />
    <glyph glyph-name="uniF393" unicode="&#xf393;" horiz-adv-x="858" 
d="M182 0v1075h557v197h107v-303h-551v-969h-113z" />
    <glyph glyph-name="uniF3CF" unicode="&#xf3cf;" horiz-adv-x="1953" 
d="M1300 303v100h476v-100h-476zM1538 930q-80 0 -138 -47t-57 -122t59 -122t138 -47t136 47t56 122t-56 122q-58 47 -138 47zM1243 762q0 112 84 184t212 72t211 -72t83 -184t-83 -186q-83 -72 -211 -72t-212 72t-84 186zM1116 0h-90l-737 889v-889h-107v1075h90l738 -891
v891h106v-1075z" />
    <glyph glyph-name="uniF3D0" unicode="&#xf3d0;" horiz-adv-x="811" 
d="M123 1360h100q0 -74 49 -114q48 -40 134 -40t134 40t48 114h100q0 -111 -76 -173q-76 -63 -208 -63t-206 62q-75 62 -75 174z" />
    <glyph glyph-name="uniF400" unicode="&#xf400;" horiz-adv-x="0" 
d="M-342 1403l-238 -293l-65 47l221 309z" />
    <glyph glyph-name="uniF401" unicode="&#xf401;" horiz-adv-x="0" 
d="M-528 1688l-373 -177l-33 64l367 203z" />
    <glyph glyph-name="uniF406" unicode="&#xf406;" horiz-adv-x="917" 
d="M464 1632q175 0 288 137l43 -57q-49 -74 -137 -124t-200 -50t-203 55t-132 121l49 55q117 -137 292 -137z" />
    <glyph glyph-name="uniF407" unicode="&#xf407;" horiz-adv-x="688" 
d="M308 -346q64 0 105 25q40 26 40 69q0 96 -146 96h-12v156h61v-102q209 -6 209 -156q0 -70 -63 -114t-170 -44t-209 62l35 57q86 -49 150 -49z" />
    <glyph glyph-name="uniF408" unicode="&#xf408;" horiz-adv-x="946" 
d="M123 1571l344 201h8l348 -201l-47 -62l-305 166l-307 -166z" />
    <glyph glyph-name="uniF409" unicode="&#xf409;" horiz-adv-x="450" 
d="M328 -215q0 -152 -174 -199l-31 49q98 39 98 134q0 68 -57 86l92 32q72 -14 72 -102z" />
    <glyph glyph-name="uniF40A" unicode="&#xf40a;" horiz-adv-x="446" 
d="M223 1358q0 74 -41 115l88 57q53 -61 54 -150q0 -186 -152 -270l-49 51q100 59 100 197z" />
    <glyph glyph-name="uniF40B" unicode="&#xf40b;" horiz-adv-x="403" 
d="M123 1650q0 34 23 54q24 20 56 20t56 -20t23 -54q0 -34 -24 -54q-25 -20 -57 -21q-32 0 -55 20q-22 21 -22 55z" />
    <glyph glyph-name="uniF40C" unicode="&#xf40c;" horiz-adv-x="704" 
d="M205 1608q0 -59 41 -91q40 -32 106 -32t107 32t41 91t-41 88t-107 28q-147 1 -147 -116zM123 1609q0 89 63 134q62 45 164 45t167 -45t65 -134t-66 -139t-165 -49q-99 0 -164 49q-64 50 -64 139z" />
    <glyph glyph-name="uniF40D" unicode="&#xf40d;" horiz-adv-x="933" 
d="M307 1720q63 0 165 -45t155 -45q88 0 151 68l33 -68q-80 -94 -190 -94q-55 0 -161 45t-168 45q-64 0 -132 -55l-37 67q84 82 184 82z" />
    <glyph glyph-name="uniF40E" unicode="&#xf40e;" horiz-adv-x="626" 
d="M354 -410q-92 0 -162 44t-69 151q0 107 113 175t253 69v-29q-100 0 -180 -55t-80 -131t47 -106q48 -30 102 -30t93 19l33 -68q-58 -39 -150 -39z" />
    <glyph glyph-name="uniF410" unicode="&#xf410;" horiz-adv-x="0" 
d="M-694 1511l-375 177l41 90l364 -203z" />
    <glyph glyph-name="uniF416" unicode="&#xf416;" horiz-adv-x="450" 
d="M328 -215q0 -152 -174 -199l-31 49q98 39 98 134q0 68 -57 86l92 32q72 -14 72 -102z" />
    <glyph glyph-name="uniF418" unicode="&#xf418;" horiz-adv-x="446" 
d="M223 965q0 73 -41 114l88 58q53 -61 54 -150q0 -186 -152 -270l-49 51q100 59 100 197z" />
    <glyph glyph-name="uniF447" unicode="&#xf447;" horiz-adv-x="991" 
d="M472 -346q68 0 109 25q40 26 40 69q0 96 -146 96h-12v156h-25v969h-422v106h959v-106h-424v-969h-27v-102q203 -6 203 -156q0 -70 -62 -114t-166 -44t-202 60l33 55q74 -45 142 -45z" />
    <glyph glyph-name="uniF44E" unicode="&#xf44e;" horiz-adv-x="1275" 
d="M632 90q196 0 312 113t125 291h-872q4 -172 121 -288q118 -116 314 -116zM610 983q-190 0 -313 -88l-45 84q141 111 362 111q262 0 418 -150t156 -398t-155 -404q-155 -154 -413 -154t-407 170t-133 446h985q-14 178 -139 280q-126 102 -316 103z" />
    <glyph glyph-name="uniF639" unicode="&#xf639;" horiz-adv-x="1206" 
d="M262 717q0 -299 84 -466t260 -167q336 0 336 633t-340 633t-340 -633zM150 717q0 337 112 535t340 198q229 0 341 -199t112 -535t-110 -535q-110 -197 -339 -197t-343 198q-113 199 -113 535z" />
    <glyph glyph-name="uniF63A" unicode="&#xf63a;" horiz-adv-x="1206" 
d="M176 0v88q106 104 164 162t172 187q113 128 175 220q167 249 167 429q0 102 -71 180t-189 78t-204 -67q-85 -67 -105 -194l-90 35q23 156 136 244q114 88 257 88q184 0 281 -105q173 -188 39 -495q-58 -135 -134 -243q-76 -107 -180 -225t-162 -173t-117 -109h715v-100
h-854z" />
    <glyph glyph-name="uniF63B" unicode="&#xf63b;" horiz-adv-x="1206" 
d="M205 1217q89 235 402 235q157 0 258 -96t102 -264q1 -115 -59 -209t-169 -138v-6q131 -18 207 -118t76 -230q0 -185 -123 -297t-311 -112q-143 0 -255 61t-165 186l63 74q101 -215 373 -215q129 0 217 87t88 217t-88 209t-223 79h-123v106h111q104 0 186 84t82 210
t-74 196t-200 70q-219 0 -312 -197z" />
    <glyph glyph-name="uniF63C" unicode="&#xf63c;" horiz-adv-x="1206" 
d="M791 0v379h-666v72l627 983h122l-608 -949h525v437h106v-437h211v-106h-211v-379h-106z" />
    <glyph glyph-name="uniF63D" unicode="&#xf63d;" horiz-adv-x="1206" 
d="M1001 1434v-107h-530l-61 -467q63 18 139 19q201 0 328 -119t127 -322q0 -204 -130 -330t-315 -126q-125 0 -235 57t-172 170l63 76q53 -93 149 -145t197 -52q141 0 236 99q94 99 94 249q1 150 -105 248t-278 98q-125 0 -217 -37l88 689h622z" />
    <glyph glyph-name="uniF63E" unicode="&#xf63e;" horiz-adv-x="1206" 
d="M623 88q131 0 223 100t92 246t-88 245t-236 99t-241 -83q-92 -83 -121 -187q0 -176 96 -298t275 -122zM139 490q0 206 63 376q111 304 385 482q120 78 242 104l45 -80q-223 -54 -397 -244t-215 -483q47 102 142 168t231 66q184 0 300 -123t116 -319q0 -195 -128 -325
t-298 -130q-229 0 -358 151q-128 151 -128 357z" />
    <glyph glyph-name="uniF63F" unicode="&#xf63f;" horiz-adv-x="1206" 
d="M201 1327v107h827v-66l-545 -1368h-118l532 1327h-696z" />
    <glyph glyph-name="uniF640" unicode="&#xf640;" horiz-adv-x="1206" 
d="M604 -18q-190 0 -325 106t-136 283q0 131 80 231t211 131v6q-102 31 -172 128t-69 212q0 166 118 270q119 103 292 103t292 -103t119 -270q0 -109 -67 -203t-181 -135v-6q131 -16 214 -115t83 -241q0 -182 -134 -290q-135 -107 -325 -107zM633 684h-53q-132 0 -228 -85
t-96 -212t101 -213t249 -86t247 83t97 218q0 135 -91 215t-226 80zM573 791h64q102 1 183 81t81 201t-89 197t-211 76t-209 -77t-87 -197t83 -200t185 -81z" />
    <glyph glyph-name="uniF641" unicode="&#xf641;" horiz-adv-x="1206" 
d="M594 1346q-132 0 -232 -100t-100 -239t90 -241t238 -102t240 77q91 77 120 179q0 178 -90 302t-266 124zM1063 920q0 -392 -197 -644t-506 -294l-36 84q258 47 424 234t192 482q-43 -98 -138 -158t-227 -61q-188 0 -307 127q-118 128 -118 316t135 317t307 129
q229 0 350 -150t121 -382z" />
    <glyph glyph-name="uniF643" unicode="&#xf643;" horiz-adv-x="1206" 
d="M190 513q0 -177 113 -301t299 -124t299 124t113 301t-114 300t-298 123t-298 -123t-114 -300zM78 512q0 217 143 374q143 156 381 156t381 -156t143 -374q0 -217 -143 -374q-143 -156 -381 -156t-381 156t-143 374z" />
    <glyph glyph-name="uniF644" unicode="&#xf644;" horiz-adv-x="1206" 
d="M694 1040v-1040h-112v899l-240 -178l-39 94l320 225h71z" />
    <glyph glyph-name="uniF645" unicode="&#xf645;" horiz-adv-x="1206" 
d="M176 0v82q226 90 426 224q252 169 252 377q0 111 -70 183t-187 72t-207 -64t-116 -188l-73 62q27 137 140 217q114 80 243 79q190 0 283 -97t94 -253q0 -88 -42 -175q-73 -150 -224 -260q-152 -110 -263 -153h598v-106h-854z" />
    <glyph glyph-name="uniF646" unicode="&#xf646;" horiz-adv-x="1206" 
d="M205 807q89 235 402 235q157 0 258 -96t102 -264q1 -115 -59 -209t-169 -137v-6q131 -18 207 -118t76 -230q0 -186 -123 -298t-313 -112q-143 0 -254 61t-164 187l63 74q104 -214 373 -216q129 0 217 88t88 217q0 131 -88 209t-223 78h-123v107h111q104 0 186 84t82 210
q0 125 -74 195t-200 70q-219 0 -312 -197z" />
    <glyph glyph-name="uniF647" unicode="&#xf647;" horiz-adv-x="1206" 
d="M791 -410v410h-666v72l610 952h123l-590 -918h523v437h106v-437h211v-106h-211v-410h-106z" />
    <glyph glyph-name="uniF648" unicode="&#xf648;" horiz-adv-x="1206" 
d="M1001 1024v-106h-530l-61 -467q63 18 141 18q199 0 326 -119q127 -120 127 -322t-130 -329t-315 -127q-123 0 -233 57t-174 170l63 76q53 -94 149 -145t197 -52q141 0 235 100t95 250t-105 247t-278 98q-121 0 -217 -37l88 688h622z" />
    <glyph glyph-name="uniF649" unicode="&#xf649;" horiz-adv-x="1206" 
d="M623 88q131 0 223 100t92 246t-88 245t-236 99t-241 -83q-92 -83 -121 -187q0 -176 96 -298t275 -122zM139 490q0 206 63 376q111 304 385 482q120 78 242 104l45 -80q-223 -54 -397 -244t-215 -483q47 102 142 168t231 66q184 0 300 -123t116 -319q0 -195 -128 -325
t-298 -130q-229 0 -358 151q-128 151 -128 357z" />
    <glyph glyph-name="uniF64A" unicode="&#xf64a;" horiz-adv-x="1206" 
d="M201 918v106h827v-66l-545 -1368h-118l532 1328h-696z" />
    <glyph glyph-name="uniF64B" unicode="&#xf64b;" horiz-adv-x="1206" 
d="M604 -18q-190 0 -325 106t-136 283q0 131 80 231t211 131v6q-102 31 -172 128t-69 212q0 166 118 270q119 103 292 103t292 -103t119 -270q0 -109 -67 -203t-181 -135v-6q129 -16 213 -115t84 -241q0 -182 -134 -290q-135 -107 -325 -107zM633 684h-53q-132 0 -228 -85
t-96 -213t100 -213t248 -85t247 83t99 218t-91 215t-226 80zM571 791h64q102 1 184 81t82 201t-89 197t-212 76t-209 -76t-86 -197t82 -201t184 -81z" />
    <glyph glyph-name="uniF64C" unicode="&#xf64c;" horiz-adv-x="1206" 
d="M596 936q-134 0 -234 -99t-100 -239t90 -242t240 -102t241 77q90 77 117 179q0 178 -90 302t-264 124zM1063 510q0 -391 -197 -643t-504 -295l-38 84q258 47 424 234t192 483q-43 -99 -138 -159t-227 -60q-188 0 -307 127q-118 127 -118 315t135 318q135 128 307 128
q229 0 350 -150t121 -382z" />
    <glyph glyph-name="uniF66D" unicode="&#xf66d;" horiz-adv-x="1175" 
d="M594 1350q131 0 237 131l41 -54q-119 -166 -293 -166t-278 166l49 56q113 -133 244 -133zM584 944l-230 -498h459zM35 0l506 1083h94l506 -1083h-121l-158 342h-555l-157 -342h-115z" />
    <glyph glyph-name="uniF66E" unicode="&#xf66e;" horiz-adv-x="1175" 
d="M330 1325v88h516v-88h-516zM584 944l-230 -498h459zM35 0l506 1083h94l506 -1083h-121l-158 342h-555l-157 -342h-115z" />
    <glyph glyph-name="uniF66F" unicode="&#xf66f;" horiz-adv-x="1175" 
d="M584 944l-230 -498h459zM978 -410q-91 0 -161 44q-69 44 -69 140t76 160t188 84l-150 324h-555l-157 -342h-115l506 1083h94l506 -1083h-27q-100 0 -180 -55t-80 -131t47 -106t101 -30t94 19l32 -68q-59 -39 -150 -39z" />
    <glyph glyph-name="uniF671" unicode="&#xf671;" horiz-adv-x="1095" 
d="M850 1473l-256 -269l-55 58l245 290zM88 529q0 245 155 403t416 158q213 0 355 -103l-53 -84q-127 80 -316 80t-313 -125q-124 -126 -125 -324q0 -198 130 -321q131 -123 327 -123t327 98l45 -86q-59 -55 -158 -87t-206 -31q-264 0 -424 150t-160 395z" />
    <glyph glyph-name="uniF672" unicode="&#xf672;" horiz-adv-x="1095" 
d="M631 1212l-281 236l53 63l232 -194l231 194l52 -63l-279 -236h-8zM88 529q0 245 155 403t416 158q213 0 355 -103l-53 -84q-127 80 -316 80t-313 -125q-124 -126 -125 -324q0 -198 130 -321q131 -123 327 -123t327 98l45 -86q-59 -55 -158 -87t-206 -31q-264 0 -424 150
t-160 395z" />
    <glyph glyph-name="uniF673" unicode="&#xf673;" horiz-adv-x="1095" 
d="M641 1507l291 -233l-51 -66l-244 197l-248 -195l-53 64l297 233h8zM88 529q0 245 155 403t416 158q213 0 355 -103l-53 -84q-127 80 -316 80t-313 -125q-124 -126 -125 -324q0 -198 130 -321q131 -123 327 -123t327 98l45 -86q-59 -55 -158 -87t-206 -31q-264 0 -424 150
t-160 395z" />
    <glyph glyph-name="uniF674" unicode="&#xf674;" horiz-adv-x="1095" 
d="M629 1292q-31 0 -53 20t-21 54q0 33 23 51q24 19 52 19t50 -20t20 -50q0 -30 -20 -52t-51 -22zM88 529q0 245 155 403t416 158q213 0 355 -103l-53 -84q-127 80 -316 80t-313 -125q-124 -126 -125 -324q0 -198 130 -321q131 -123 327 -123t327 98l45 -86
q-59 -55 -158 -87t-206 -31q-264 0 -424 150t-160 395z" />
    <glyph glyph-name="uniF675" unicode="&#xf675;" horiz-adv-x="1232" 
d="M555 1212l-281 236l54 63l231 -194l232 194l51 -63l-279 -236h-8zM485 973q-63 0 -190 -4v-863q176 -4 184 -4q260 0 404 124q143 124 143 320t-135 311q-136 116 -406 116zM182 0v1075h19l288 4q332 0 494 -146t162 -386q0 -239 -174 -395t-496 -156l-278 4h-15z" />
    <glyph glyph-name="uniF676" unicode="&#xf676;" horiz-adv-x="1263" 
d="M532 973q-6 0 -208 -6v-367h325v-100h-325v-394l194 -4q258 0 398 125t140 319t-131 311q-133 116 -393 116zM211 0v500h-195v100h195v475h20l301 4q322 1 483 -149t161 -384t-171 -392t-481 -158l-297 4h-16z" />
    <glyph glyph-name="uniF678" unicode="&#xf678;" horiz-adv-x="985" 
d="M514 1212l-281 236l54 63l231 -194l232 194l51 -63l-279 -236h-8zM182 0v1075h664v-106h-551v-371h502v-106h-502v-386h567v-106h-680z" />
    <glyph glyph-name="uniF679" unicode="&#xf679;" horiz-adv-x="985" 
d="M584 1366q0 -30 -22 -52t-52 -22t-50 20q-22 20 -22 54q0 33 23 51q23 19 51 19t50 -20t22 -50zM182 0v1075h664v-106h-551v-371h502v-106h-502v-386h567v-106h-680z" />
    <glyph glyph-name="uniF67A" unicode="&#xf67a;" horiz-adv-x="985" 
d="M250 1325v88h516v-88h-516zM182 0v1075h664v-106h-551v-371h502v-106h-502v-386h567v-106h-680z" />
    <glyph glyph-name="uniF67C" unicode="&#xf67c;" horiz-adv-x="985" 
d="M182 0v1075h664v-106h-551v-371h502v-106h-502v-386h567v-106h-18q-100 -4 -175 -58t-75 -129t47 -105t101 -30t94 19l32 -68q-59 -39 -150 -39t-161 44t-70 143q0 154 197 223h-502z" />
    <glyph glyph-name="uniF67D" unicode="&#xf67d;" horiz-adv-x="1214" 
d="M635 1350q131 0 237 131l41 -54q-119 -166 -293 -166t-278 166l49 56q113 -133 244 -133zM672 434v101h438v-404q-74 -67 -199 -107t-237 -40q-266 0 -426 150t-160 395t158 403t394 158t382 -103l-51 -90q-115 86 -311 86t-324 -124q-129 -125 -129 -325t130 -322
t339 -122t328 103v241h-332z" />
    <glyph glyph-name="uniF67E" unicode="&#xf67e;" horiz-adv-x="1214" 
d="M662 1507l290 -233l-51 -66l-244 197l-247 -195l-54 64l297 233h9zM672 434v101h438v-404q-74 -67 -199 -107t-237 -40q-266 0 -426 150t-160 395t158 403t394 158t382 -103l-51 -90q-115 86 -311 86t-324 -124q-129 -125 -129 -325t130 -322t339 -122t328 103v241h-332z
" />
    <glyph glyph-name="uniF67F" unicode="&#xf67f;" horiz-adv-x="1214" 
d="M748 -215q0 -152 -175 -199l-30 49q98 39 98 134q0 68 -57 86l92 32q72 -14 72 -102zM672 434v101h438v-404q-74 -67 -199 -107t-237 -40q-266 0 -426 150t-160 395t158 403t394 158t382 -103l-51 -90q-115 86 -311 86t-324 -124q-129 -125 -129 -325t130 -322t339 -122
t328 103v241h-332z" />
    <glyph glyph-name="uniF680" unicode="&#xf680;" horiz-adv-x="1214" 
d="M713 1366q-1 -30 -21 -52t-51 -22t-53 20t-21 54q0 33 23 51q24 19 52 19t50 -20t21 -50zM672 434v101h438v-404q-74 -67 -199 -107t-237 -40q-266 0 -426 150t-160 395t158 403t394 158t382 -103l-51 -90q-115 86 -311 86t-324 -124q-129 -125 -129 -325t130 -322
t339 -122t328 103v241h-332z" />
    <glyph glyph-name="uniF681" unicode="&#xf681;" horiz-adv-x="1294" 
d="M295 602h706v197h-706v-197zM61 799v100h121v176h113v-176h706v176h113v-176h119v-100h-119v-799h-113v496h-706v-496h-113v799h-121z" />
    <glyph glyph-name="uniF682" unicode="&#xf682;" horiz-adv-x="1296" 
d="M653 1507l291 -233l-51 -66l-244 197l-248 -195l-53 64l297 233h8zM1001 0v496h-706v-496h-113v1075h113v-473h706v473h113v-1075h-113z" />
    <glyph glyph-name="uniF685" unicode="&#xf685;" horiz-adv-x="548" 
d="M16 1325v88h516v-88h-516zM217 0v1075h113v-1075h-113z" />
    <glyph glyph-name="uniF686" unicode="&#xf686;" horiz-adv-x="548" 
d="M188 -410q-92 0 -162 44t-69 140q0 96 75 158q75 63 185 86v1057h113v-1075h-17q-100 -4 -175 -58t-75 -129q-1 -75 47 -105t102 -30t93 19l33 -68q-58 -39 -150 -39z" />
    <glyph glyph-name="uniF688" unicode="&#xf688;" horiz-adv-x="612" 
d="M367 1507l290 -233l-51 -66l-244 197l-247 -195l-54 64l297 233h9zM430 1075v-833q0 -256 -242 -256q-106 0 -168 53l39 88q51 -35 123 -35q137 0 135 166v817h113z" />
    <glyph glyph-name="uniF689" unicode="&#xf689;" horiz-adv-x="1083" 
d="M510 -231q0 68 -57 86l92 32q72 -14 71 -102q0 -152 -174 -199l-30 49q98 39 98 134zM182 0v1075h113v-1075h-113zM1018 1075l-539 -506l561 -569h-153l-547 561l530 514h148z" />
    <glyph glyph-name="uniF68A" unicode="&#xf68a;" horiz-adv-x="927" 
d="M629 1473l-256 -269l-56 58l246 290zM182 0v1075h113v-962h598v-113h-711z" />
    <glyph glyph-name="uniF68B" unicode="&#xf68b;" horiz-adv-x="927" 
d="M743 968q0 -76 -44 -150q-44 -73 -109 -105l-47 49q100 76 100 219q0 53 -20 94h102q18 -31 18 -107zM182 0v1075h113v-962h598v-113h-711z" />
    <glyph glyph-name="uniF68C" unicode="&#xf68c;" horiz-adv-x="927" 
d="M625 -215q0 -152 -174 -199l-31 49q98 39 98 134q0 68 -57 86l92 32q72 -14 72 -102zM182 0v1075h113v-962h598v-113h-711z" />
    <glyph glyph-name="uniF68D" unicode="&#xf68d;" horiz-adv-x="927" 
d="M629 598q-1 32 23 54t57 22t55 -23t20 -53q0 -30 -22 -56q-22 -24 -54 -24t-56 24t-23 56zM182 0v1075h113v-962h598v-113h-711z" />
    <glyph glyph-name="uniF68E" unicode="&#xf68e;" horiz-adv-x="1331" 
d="M897 1473l-256 -269l-55 58l245 290zM1149 0h-90l-770 889v-889h-107v1075h90l770 -891v891h107v-1075z" />
    <glyph glyph-name="uniF68F" unicode="&#xf68f;" horiz-adv-x="1331" 
d="M662 1212l-281 236l53 63l232 -194l231 194l51 -63l-278 -236h-8zM1149 0h-90l-770 889v-889h-107v1075h90l770 -891v891h107v-1075z" />
    <glyph glyph-name="uniF690" unicode="&#xf690;" horiz-adv-x="1331" 
d="M569 -145l93 32q72 -14 71 -102q0 -152 -174 -199l-31 49q98 39 99 134q-1 68 -58 86zM1149 0h-90l-770 889v-889h-107v1075h90l770 -891v891h107v-1075z" />
    <glyph glyph-name="uniF692" unicode="&#xf692;" horiz-adv-x="1331" 
d="M731 1497l-235 -291l-60 39l217 309zM1051 1487l-265 -281l-51 39l238 301zM1124 537q0 193 -132 319t-328 127q-196 -1 -326 -127q-131 -126 -131 -318t132 -320t331 -128q198 0 326 127t128 320zM88 534q0 240 164 398t413 158t413 -156t165 -396q0 -240 -165 -397
q-166 -157 -414 -157t-412 156t-164 394z" />
    <glyph glyph-name="uniF693" unicode="&#xf693;" horiz-adv-x="1331" 
d="M408 1325v88h516v-88h-516zM1124 537q0 193 -132 319t-328 127q-196 -1 -326 -127q-131 -126 -131 -318t132 -320t331 -128q198 0 326 127t128 320zM88 534q0 240 164 398t413 158t413 -156t165 -396q0 -240 -165 -397q-166 -157 -414 -157t-412 156t-164 394z" />
    <glyph glyph-name="uniF695" unicode="&#xf695;" horiz-adv-x="1058" 
d="M702 1473l-256 -269l-55 58l246 290zM469 973q-88 0 -174 -4v-437h194q111 0 195 62t84 162q0 217 -299 217zM887 756q0 -117 -73 -198t-185 -105l379 -453h-144l-352 426h-217v-426h-113v1075l283 4q422 0 422 -323z" />
    <glyph glyph-name="uniF696" unicode="&#xf696;" horiz-adv-x="1058" 
d="M463 1212l-281 236l54 63l231 -194l231 194l52 -63l-279 -236h-8zM469 973q-88 0 -174 -4v-437h194q111 0 195 62t84 162q0 217 -299 217zM887 756q0 -117 -73 -198t-185 -105l379 -453h-144l-352 426h-217v-426h-113v1075l283 4q422 0 422 -323z" />
    <glyph glyph-name="uniF697" unicode="&#xf697;" horiz-adv-x="1058" 
d="M625 -215q0 -152 -174 -199l-31 49q98 39 98 134q0 68 -57 86l92 32q72 -14 72 -102zM469 973q-88 0 -174 -4v-437h194q111 0 195 62t84 162q0 217 -299 217zM887 756q0 -117 -73 -198t-185 -105l379 -453h-144l-352 426h-217v-426h-113v1075l283 4q422 0 422 -323z" />
    <glyph glyph-name="uniF698" unicode="&#xf698;" horiz-adv-x="968" 
d="M725 1473l-256 -269l-55 58l245 290zM506 90q102 0 178 50t76 133q0 81 -67 131t-161 79t-188 62t-161 99t-67 178t98 190q97 78 284 78q96 0 199 -36t153 -89l-53 -84q-53 47 -139 75t-185 27q-98 0 -168 -48q-69 -48 -69 -124t66 -123t161 -75q94 -27 189 -61t162 -104
t67 -187q0 -118 -110 -198q-110 -79 -257 -79t-260 43t-172 114l65 78q133 -129 359 -129z" />
    <glyph glyph-name="uniF699" unicode="&#xf699;" horiz-adv-x="968" 
d="M460 -346q68 0 108 26t40 68q0 96 -145 96h-12v142q-119 8 -217 49t-152 106l65 78q133 -129 359 -129q102 0 178 50t76 132t-67 132t-161 79t-188 62t-161 99t-67 178t98 190q97 78 284 78q96 0 199 -36t153 -89l-53 -84q-53 47 -139 75t-185 27q-98 0 -168 -48
q-69 -48 -69 -124t66 -123t161 -75q94 -27 189 -61t162 -104t67 -186q1 -118 -105 -196t-264 -82v-86q203 -6 203 -156q-1 -70 -63 -114t-166 -44t-201 60l32 55q75 -45 143 -45z" />
    <glyph glyph-name="uniF69A" unicode="&#xf69a;" horiz-adv-x="968" 
d="M489 1507l291 -233l-51 -66l-244 197l-247 -195l-54 64l297 233h8zM506 90q102 0 178 50t76 133q0 81 -67 131t-161 79t-188 62t-161 99t-67 178t98 190q97 78 284 78q96 0 199 -36t153 -89l-53 -84q-53 47 -139 75t-185 27q-98 0 -168 -48q-69 -48 -69 -124t66 -123
t161 -75q94 -27 189 -61t162 -104t67 -187q0 -118 -110 -198q-110 -79 -257 -79t-260 43t-172 114l65 78q133 -129 359 -129z" />
    <glyph glyph-name="uniF69B" unicode="&#xf69b;" horiz-adv-x="968" 
d="M590 -215q0 -152 -174 -199l-31 49q98 39 98 134q0 68 -57 86l92 32q72 -14 72 -102zM506 90q102 0 178 50t76 133q0 81 -67 131t-161 79t-188 62t-161 99t-67 178t98 190q97 78 284 78q96 0 199 -36t153 -89l-53 -84q-53 47 -139 75t-185 27q-98 0 -168 -48
q-69 -48 -69 -124t66 -123t161 -75q94 -27 189 -61t162 -104t67 -187q0 -118 -110 -198q-110 -79 -257 -79t-260 43t-172 114l65 78q133 -129 359 -129z" />
    <glyph glyph-name="uniF69D" unicode="&#xf69d;" horiz-adv-x="991" 
d="M494 1212l-281 236l53 63l232 -194l231 194l51 -63l-278 -236h-8zM16 969v106h959v-106h-424v-969h-113v969h-422z" />
    <glyph glyph-name="uniF69E" unicode="&#xf69e;" horiz-adv-x="991" 
d="M598 -215q0 -152 -174 -199l-31 49q98 39 99 134q-1 68 -58 86l92 32q72 -14 72 -102zM16 969v106h959v-106h-424v-969h-113v969h-422z" />
    <glyph glyph-name="uniF69F" unicode="&#xf69f;" horiz-adv-x="1255" 
d="M635 1350q131 0 237 131l41 -54q-119 -166 -293 -166t-278 166l49 56q113 -133 244 -133zM1090 1075v-626q0 -231 -127 -347t-330 -116t-336 123t-133 350v616h112v-594q0 -182 98 -285q98 -104 262 -104q163 0 252 96t89 285v602h113z" />
    <glyph glyph-name="uniF6A0" unicode="&#xf6a0;" horiz-adv-x="1255" 
d="M696 1497l-235 -291l-60 39l217 309zM1016 1487l-264 -281l-52 39l238 301zM1090 1075v-626q0 -231 -127 -347t-330 -116t-336 123t-133 350v616h112v-594q0 -182 98 -285q98 -104 262 -104q163 0 252 96t89 285v602h113z" />
    <glyph glyph-name="uniF6A1" unicode="&#xf6a1;" horiz-adv-x="1255" 
d="M369 1325v88h516v-88h-516zM1090 1075v-626q0 -231 -127 -347t-330 -116t-336 123t-133 350v616h112v-594q0 -182 98 -285q98 -104 262 -104q163 0 252 96t89 285v602h113z" />
    <glyph glyph-name="uniF6A2" unicode="&#xf6a2;" horiz-adv-x="1255" 
d="M1090 1075v-626q0 -172 -73 -281t-198 -154q-178 -100 -178 -204q0 -72 47 -102q48 -30 102 -30t93 19l32 -68q-59 -39 -150 -39t-161 44t-70 132t49 135q48 48 132 89q-49 -4 -72 -4q-213 0 -346 123t-133 350v616h112v-594q0 -182 98 -285q98 -104 262 -104
q163 0 252 96t89 285v602h113z" />
    <glyph glyph-name="uniF6A3" unicode="&#xf6a3;" horiz-adv-x="1255" 
d="M483 1340q0 -62 42 -104q41 -42 103 -42t104 42t42 104t-42 106t-103 43q-61 0 -104 -43q-42 -44 -42 -106zM412 1339q0 89 62 151t154 62t154 -62q64 -62 64 -150t-64 -149t-154 -61q-92 0 -154 60t-62 149zM1090 1075v-626q0 -231 -127 -347t-330 -116t-336 123
t-133 350v616h112v-594q0 -182 98 -285q98 -104 262 -104q163 0 252 96t89 285v602h113z" />
    <glyph glyph-name="uniF6AB" unicode="&#xf6ab;" horiz-adv-x="1052" 
d="M760 1473l-256 -269l-55 58l245 290zM100 969v106h871v-74l-738 -895h754v-106h-919v74l735 895h-703z" />
    <glyph glyph-name="uniF6AC" unicode="&#xf6ac;" horiz-adv-x="1052" 
d="M527 1292q-30 0 -51 20t-21 54q0 33 22 51q23 19 51 19t51 -20q21 -20 21 -50t-22 -52t-51 -22zM100 969v106h871v-74l-738 -895h754v-106h-919v74l735 895h-703z" />
    <glyph glyph-name="uniF6AD" unicode="&#xf6ad;" horiz-adv-x="548" 
d="M277 1292q-31 0 -53 20t-21 54q0 33 22 51q23 19 52 19t51 -20t20 -50q0 -30 -20 -52t-51 -22zM217 0v1075h113v-1075h-113z" />
    <glyph glyph-name="uniF6BA" unicode="&#xf6ba;" horiz-adv-x="817" 
d="M174 674v100h469v-100h-469z" />
    <glyph glyph-name="uniF6BB" unicode="&#xf6bb;" horiz-adv-x="1208" 
d="M193 678v94h823v-94h-823z" />
    <glyph glyph-name="uniF6BC" unicode="&#xf6bc;" horiz-adv-x="1630" 
d="M193 678v94h1245v-94h-1245z" />
    <glyph glyph-name="uniF6C3" unicode="&#xf6c3;" horiz-adv-x="450" 
d="M328 -215q0 -152 -174 -199l-31 49q98 39 98 134q0 68 -57 86l92 32q72 -14 72 -102z" />
    <glyph glyph-name="uniF6C9" unicode="&#xf6c9;" horiz-adv-x="651" 
d="M528 1688l-372 -177l-33 64l366 203z" />
    <glyph glyph-name="uniF6CA" unicode="&#xf6ca;" horiz-adv-x="948" 
d="M473 1516l-350 200l47 62l307 -170l305 170l43 -60l-344 -202h-8z" />
    <glyph glyph-name="uniF6CB" unicode="&#xf6cb;" horiz-adv-x="874" 
d="M678 1712q30 0 52 -18t22 -49t-22 -49t-54 -19q-32 1 -54 19t-22 50t24 49t54 17zM123 1646q0 32 22 49q23 17 54 17t53 -18t22 -49t-22 -50q-24 -18 -54 -18t-53 18q-22 19 -22 51z" />
    <glyph glyph-name="uniF6CE" unicode="&#xf6ce;" horiz-adv-x="651" 
d="M498 1511l-375 177l41 90l364 -203z" />
    <glyph glyph-name="uniF6CF" unicode="&#xf6cf;" horiz-adv-x="995" 
d="M494 1726l-324 -215l-47 45l285 222zM872 1710l-346 -199l-45 50l320 217z" />
    <glyph glyph-name="uniF6D0" unicode="&#xf6d0;" horiz-adv-x="860" 
d="M123 1593v88h614v-88h-614z" />
    <glyph glyph-name="uniF6D1" unicode="&#xf6d1;" horiz-adv-x="962" 
d="M482 1518q-136 0 -234 64t-125 163h106q74 -145 256 -146q88 0 158 40t90 106h107q-20 -99 -122 -163q-100 -64 -236 -64z" />
    <glyph glyph-name="uniF6D4" unicode="&#xf6d4;" horiz-adv-x="811" 
d="M123 1401h96q0 -76 53 -128q54 -52 136 -52t133 52t51 128h96q0 -113 -78 -188t-206 -75t-204 74q-77 74 -77 189z" />
    <glyph glyph-name="uniF6DC" unicode="&#xf6dc;" horiz-adv-x="1206" 
d="M702 1446v-1446h-106v1290l-236 -190l-57 86l326 260h73z" />
    <glyph glyph-name="uniF6DE" unicode="&#xf6de;" horiz-adv-x="1222" 
d="M143 506v94h934v-94h-934z" />
    <glyph glyph-name="uniF6F4" unicode="&#xf6f4;" horiz-adv-x="817" 
d="M416 1350q131 0 237 131l41 -54q-119 -166 -293 -166t-278 166l49 56q113 -133 244 -133z" />
    <glyph glyph-name="uniF6F5" unicode="&#xf6f5;" horiz-adv-x="813" 
d="M403 1212l-280 236l53 63l232 -194l231 194l51 -63l-278 -236h-9z" />
    <glyph glyph-name="uniF6F6" unicode="&#xf6f6;" horiz-adv-x="841" 
d="M428 1507l291 -233l-51 -66l-244 197l-248 -195l-53 64l297 233h8z" />
    <glyph glyph-name="uniF6F7" unicode="&#xf6f7;" horiz-adv-x="391" 
d="M196 1292q-30 0 -52 20t-21 54q0 33 22 51q23 19 52 19t51 -20t20 -50q0 -30 -22 -52q-20 -22 -50 -22z" />
    <glyph glyph-name="uniF6F8" unicode="&#xf6f8;" horiz-adv-x="860" 
d="M418 1497l-236 -291l-59 39l217 309zM737 1487l-264 -281l-51 39l237 301z" />
    <glyph glyph-name="uniF6F9" unicode="&#xf6f9;" horiz-adv-x="927" 
d="M182 1075h113v-500l244 121v-110l-244 -123v-350h598v-113h-711v406l-141 -70v113l141 69v557z" />
    <glyph glyph-name="uniF6FA" unicode="&#xf6fa;" horiz-adv-x="1753" 
d="M668 90q166 0 284 86v723q-116 84 -306 84t-314 -125q-124 -126 -125 -324q0 -198 128 -321t333 -123zM952 0v59q-127 -76 -293 -75q-255 0 -413 152t-158 395t154 401t409 158q170 0 301 -74v59h664v-106h-551v-371h500v-106h-500v-386h567v-106h-680z" />
    <glyph glyph-name="uniF6FB" unicode="&#xf6fb;" horiz-adv-x="626" 
d="M354 -410q-92 0 -162 44t-69 151q0 107 113 175t253 69v-29q-100 0 -180 -55t-80 -131t47 -106q48 -30 102 -30t93 19l33 -68q-58 -39 -150 -39z" />
    <glyph glyph-name="uniF6FC" unicode="&#xf6fc;" horiz-adv-x="679" 
d="M340 1489q-61 1 -103 -43t-42 -106t42 -104t103 -42t103 42t42 104t-42 106t-103 43zM123 1339q0 89 62 151q61 62 153 62t156 -62t63 -150q0 -88 -63 -149q-62 -61 -154 -61t-154 60t-63 149z" />
    <glyph glyph-name="uniF6FD" unicode="&#xf6fd;" horiz-adv-x="968" 
d="M479 1212l-280 236l53 63l231 -194l232 194l51 -63l-279 -236h-8zM506 90q102 0 178 50t76 133q0 81 -67 131t-161 79t-188 62t-161 99t-67 178t98 190q97 78 284 78q96 0 199 -36t153 -89l-53 -84q-53 47 -139 75t-185 27q-98 0 -168 -48q-69 -48 -69 -124t66 -123
t161 -75q94 -27 189 -61t162 -104t67 -187q0 -118 -110 -198q-110 -79 -257 -79t-260 43t-172 114l65 78q133 -129 359 -129z" />
    <glyph glyph-name="uniF6FE" unicode="&#xf6fe;" horiz-adv-x="870" 
d="M330 1419q50 0 118 -47t119 -47t142 78l39 -55q-109 -111 -201 -111q-45 0 -114 47q-69 48 -122 48t-141 -70l-47 51q106 106 207 106z" />
    <glyph glyph-name="uniF6FF" unicode="&#xf6ff;" horiz-adv-x="1052" 
d="M520 1212l-280 236l53 63l231 -194l232 194l51 -63l-279 -236h-8zM100 969v106h871v-74l-738 -895h754v-106h-919v74l735 895h-703z" />
    <glyph glyph-name="uniF730" unicode="&#xf730;" horiz-adv-x="1269" 
d="M223 513q0 -177 113 -301t299 -124t299 124t113 301t-114 300t-298 123t-298 -123t-114 -300zM111 512q0 217 143 374q143 156 381 156t381 -156t143 -374q0 -217 -143 -374q-143 -156 -381 -156t-381 156t-143 374z" />
    <glyph glyph-name="uniF731" unicode="&#xf731;" horiz-adv-x="753" 
d="M489 1040v-1040h-112v899l-240 -178l-39 94l320 225h71z" />
    <glyph glyph-name="uniF732" unicode="&#xf732;" horiz-adv-x="1077" 
d="M104 0v82q226 90 426 224q252 170 252 377q0 111 -70 183t-186 72q-118 0 -208 -64t-115 -188l-74 62q27 137 140 217q114 80 243 79q190 0 284 -97t93 -253q0 -88 -42 -175q-73 -150 -224 -260q-152 -110 -263 -153h598v-106h-854z" />
    <glyph glyph-name="uniF733" unicode="&#xf733;" horiz-adv-x="1091" 
d="M129 807q89 235 402 235q157 0 259 -96t101 -264q1 -115 -59 -209t-168 -137v-6q130 -18 206 -118t76 -230q0 -186 -123 -298t-313 -112q-143 0 -254 61t-164 187l64 74q104 -214 372 -216q129 0 217 88q89 88 89 217q0 131 -88 209t-224 78h-123v107h111q104 0 186 84
t82 210q0 125 -74 195t-200 70q-219 0 -311 -197z" />
    <glyph glyph-name="uniF734" unicode="&#xf734;" horiz-adv-x="1101" 
d="M715 -410v410h-666v72l610 952h123l-589 -918h522v437h106v-437h211v-106h-211v-410h-106z" />
    <glyph glyph-name="uniF735" unicode="&#xf735;" horiz-adv-x="1060" 
d="M942 1024v-106h-530l-62 -467q63 18 142 18q200 0 326 -119q126 -120 126 -322t-129 -329t-315 -127q-123 0 -234 57t-174 170l64 76q53 -94 149 -145t197 -52q141 0 235 100t94 250t-105 247t-277 98q-122 0 -218 -37l88 688h623z" />
    <glyph glyph-name="uniF736" unicode="&#xf736;" horiz-adv-x="1126" 
d="M594 88q131 0 223 100t92 246t-88 245q-89 99 -237 99t-240 -83t-121 -187q0 -176 96 -298t275 -122zM596 -18q-229 0 -357 152t-128 356q0 206 62 376q61 170 163 287q213 246 465 299l45 -80q-223 -54 -397 -244t-216 -483q47 102 143 168t230 66q184 0 300 -123
t116 -319q0 -195 -128 -325t-298 -130z" />
    <glyph glyph-name="uniF737" unicode="&#xf737;" horiz-adv-x="972" 
d="M70 918v106h827v-66l-545 -1368h-119l533 1328h-696z" />
    <glyph glyph-name="uniF738" unicode="&#xf738;" horiz-adv-x="1210" 
d="M606 -18q-190 0 -325 106t-136 283q0 131 80 231t211 131v6q-102 31 -172 128t-69 212q0 166 118 270q119 103 292 103t292 -103t119 -270q0 -109 -67 -203t-181 -135v-6q129 -16 213 -115t84 -241q0 -182 -134 -290q-135 -107 -325 -107zM635 684h-53q-132 0 -228 -85
t-96 -213t100 -213t248 -85t247 83t99 218t-91 215t-226 80zM573 791h64q102 1 184 81t82 201t-89 197t-212 76t-209 -76t-86 -197t82 -201t184 -81z" />
    <glyph glyph-name="uniF739" unicode="&#xf739;" horiz-adv-x="1122" 
d="M545 936q-133 0 -233 -99t-101 -239q0 -140 90 -242q89 -102 239 -102t241 77t118 179q0 178 -90 302t-264 124zM1012 510q0 -391 -197 -643t-504 -295l-39 84q258 47 424 234t193 483q-43 -99 -138 -159t-227 -60q-188 0 -307 127t-119 315t135 318q135 128 308 128
q229 0 350 -150t121 -382z" />
    <glyph glyph-name="uniF760" unicode="&#xf760;" horiz-adv-x="557" 
d="M379 1204l-256 269l67 79l244 -290z" />
    <glyph glyph-name="uniF761" unicode="&#xf761;" horiz-adv-x="1175" 
d="M584 944l-230 -498h459zM35 0l506 1083h94l506 -1083h-121l-158 342h-555l-157 -342h-115z" />
    <glyph glyph-name="uniF762" unicode="&#xf762;" horiz-adv-x="1048" 
d="M510 975q-80 0 -215 -6v-371h229q104 0 176 52t72 138q0 187 -262 187zM522 498h-227v-389q172 -8 219 -9q301 0 301 209q0 89 -76 139t-217 50zM512 1081q373 0 373 -266q-1 -100 -63 -168t-160 -86v-2q130 -14 198 -79t68 -175q0 -155 -115 -233t-305 -78t-326 8v1071
q254 8 330 8z" />
    <glyph glyph-name="uniF763" unicode="&#xf763;" horiz-adv-x="1095" 
d="M88 529q0 245 155 403t416 158q213 0 355 -103l-53 -84q-127 80 -316 80t-313 -125q-124 -126 -125 -324q0 -198 130 -321q131 -123 327 -123t327 98l45 -86q-59 -55 -158 -87t-206 -31q-264 0 -424 150t-160 395z" />
    <glyph glyph-name="uniF764" unicode="&#xf764;" horiz-adv-x="1232" 
d="M485 973q-63 0 -190 -4v-863q176 -4 184 -4q260 0 404 124q143 124 143 320t-135 311q-136 116 -406 116zM182 0v1075h19l288 4q332 0 494 -146t162 -386q0 -239 -174 -395t-496 -156l-278 4h-15z" />
    <glyph glyph-name="uniF765" unicode="&#xf765;" horiz-adv-x="985" 
d="M182 0v1075h664v-106h-551v-371h502v-106h-502v-386h567v-106h-680z" />
    <glyph glyph-name="uniF766" unicode="&#xf766;" horiz-adv-x="915" 
d="M182 0v1075h666v-106h-553v-404h504v-106h-504v-459h-113z" />
    <glyph glyph-name="uniF767" unicode="&#xf767;" horiz-adv-x="1214" 
d="M672 434v101h438v-404q-74 -67 -199 -107t-237 -40q-266 0 -426 150t-160 395t158 403t394 158t382 -103l-51 -90q-115 86 -311 86t-324 -124q-129 -125 -129 -325t130 -322t339 -122t328 103v241h-332z" />
    <glyph glyph-name="uniF768" unicode="&#xf768;" horiz-adv-x="1296" 
d="M1001 0v496h-706v-496h-113v1075h113v-473h706v473h113v-1075h-113z" />
    <glyph glyph-name="uniF769" unicode="&#xf769;" horiz-adv-x="548" 
d="M217 0v1075h113v-1075h-113z" />
    <glyph glyph-name="uniF76A" unicode="&#xf76a;" horiz-adv-x="612" 
d="M430 1075v-833q0 -256 -242 -256q-106 0 -168 53l39 88q51 -35 123 -35q137 0 135 166v817h113z" />
    <glyph glyph-name="uniF76B" unicode="&#xf76b;" horiz-adv-x="1083" 
d="M182 0v1075h113v-1075h-113zM1018 1075l-539 -506l561 -569h-153l-547 561l530 514h148z" />
    <glyph glyph-name="uniF76C" unicode="&#xf76c;" horiz-adv-x="927" 
d="M182 0v1075h113v-962h598v-113h-711z" />
    <glyph glyph-name="uniF76D" unicode="&#xf76d;" horiz-adv-x="1482" 
d="M182 0v1075h115l457 -565l438 565h108v-1075h-112v905l-434 -553h-17l-442 547v-899h-113z" />
    <glyph glyph-name="uniF76E" unicode="&#xf76e;" horiz-adv-x="1331" 
d="M1149 0h-90l-770 889v-889h-107v1075h90l770 -891v891h107v-1075z" />
    <glyph glyph-name="uniF76F" unicode="&#xf76f;" horiz-adv-x="1331" 
d="M1124 537q0 193 -132 319t-328 127q-196 -1 -326 -127q-131 -126 -131 -318t132 -320t331 -128q198 0 326 127t128 320zM88 534q0 240 164 398t413 158t413 -156t165 -396q0 -240 -165 -397q-166 -157 -414 -157t-412 156t-164 394z" />
    <glyph glyph-name="uniF770" unicode="&#xf770;" horiz-adv-x="985" 
d="M485 973q-96 0 -190 -4v-459q123 -8 180 -8q147 0 225 64t78 174q0 108 -70 170t-223 63zM897 740q0 -148 -105 -246t-311 -99q-92 0 -186 6v-401h-113v1075l293 4q227 0 325 -95q98 -96 97 -244z" />
    <glyph glyph-name="uniF771" unicode="&#xf771;" horiz-adv-x="1331" 
d="M1124 538q0 192 -132 318t-328 127q-196 -1 -326 -127q-131 -126 -131 -318t132 -320t327 -128q143 0 252 68l-99 110l76 68l102 -117q127 127 127 319zM666 -16q-250 0 -414 156t-164 394q0 240 164 398t413 158t413 -156t165 -396q0 -240 -172 -403l123 -135h-133
l-68 74q-145 -90 -327 -90z" />
    <glyph glyph-name="uniF772" unicode="&#xf772;" horiz-adv-x="1058" 
d="M469 973q-88 0 -174 -4v-437h194q111 0 195 62t84 162q0 217 -299 217zM887 756q0 -117 -73 -198t-185 -105l379 -453h-144l-352 426h-217v-426h-113v1075l283 4q422 0 422 -323z" />
    <glyph glyph-name="uniF773" unicode="&#xf773;" horiz-adv-x="968" 
d="M506 90q102 0 178 50t76 133q0 81 -67 131t-161 79t-188 62t-161 99t-67 178t98 190q97 78 284 78q96 0 199 -36t153 -89l-53 -84q-53 47 -139 75t-185 27q-98 0 -168 -48q-69 -48 -69 -124t66 -123t161 -75q94 -27 189 -61t162 -104t67 -187q0 -118 -110 -198
q-110 -79 -257 -79t-260 43t-172 114l65 78q133 -129 359 -129z" />
    <glyph glyph-name="uniF774" unicode="&#xf774;" horiz-adv-x="991" 
d="M16 969v106h959v-106h-424v-969h-113v969h-422z" />
    <glyph glyph-name="uniF775" unicode="&#xf775;" horiz-adv-x="1255" 
d="M1090 1075v-626q0 -231 -127 -347t-330 -116t-336 123t-133 350v616h112v-594q0 -182 98 -285q98 -104 262 -104q163 0 252 96t89 285v602h113z" />
    <glyph glyph-name="uniF776" unicode="&#xf776;" horiz-adv-x="1097" 
d="M1081 1075l-485 -1083h-82l-500 1083h127l418 -925l402 925h120z" />
    <glyph glyph-name="uniF777" unicode="&#xf777;" horiz-adv-x="1607" 
d="M1587 1075l-340 -1075h-100l-338 891l-328 -891h-104l-357 1075h127l291 -893l322 893h106l330 -895l279 895h112z" />
    <glyph glyph-name="uniF778" unicode="&#xf778;" horiz-adv-x="1103" 
d="M1047 1075l-422 -528l438 -547h-139l-373 461l-371 -461h-139l438 547l-420 528h140l354 -442l354 442h140z" />
    <glyph glyph-name="uniF779" unicode="&#xf779;" horiz-adv-x="989" 
d="M549 0h-113v465l-416 610h138l340 -504l342 504h129l-420 -610v-465z" />
    <glyph glyph-name="uniF77A" unicode="&#xf77a;" horiz-adv-x="1052" 
d="M100 969v106h871v-74l-738 -895h754v-106h-919v74l735 895h-703z" />
    <glyph glyph-name="uniF7A8" unicode="&#xf7a8;" horiz-adv-x="737" 
d="M483 1352q-1 29 19 47t47 18t46 -18t19 -47t-18 -47q-18 -19 -46 -19t-48 18t-19 48zM123 1352q0 29 19 47t46 18t46 -18q20 -18 20 -46t-20 -47q-20 -20 -46 -20q-27 0 -46 18t-19 48z" />
    <glyph glyph-name="uniF7AF" unicode="&#xf7af;" horiz-adv-x="761" 
d="M123 1325v88h516v-88h-516z" />
    <glyph glyph-name="uniF7B4" unicode="&#xf7b4;" horiz-adv-x="557" 
d="M434 1473l-256 -269l-55 58l246 290z" />
    <glyph glyph-name="uniF7B8" unicode="&#xf7b8;" horiz-adv-x="675" 
d="M298 -346q68 0 109 25q40 26 39 69q0 96 -145 96h-12v156h61v-102q203 -6 203 -156q-1 -70 -63 -114t-166 -44t-201 60l33 55q74 -45 142 -45z" />
    <glyph glyph-name="uniF7E0" unicode="&#xf7e0;" horiz-adv-x="1175" 
d="M637 1204l-256 269l68 79l243 -290zM584 944l-230 -498h459zM35 0l506 1083h94l506 -1083h-121l-158 342h-555l-157 -342h-115z" />
    <glyph glyph-name="uniF7E1" unicode="&#xf7e1;" horiz-adv-x="1175" 
d="M803 1473l-256 -269l-55 58l245 290zM584 944l-230 -498h459zM35 0l506 1083h94l506 -1083h-121l-158 342h-555l-157 -342h-115z" />
    <glyph glyph-name="uniF7E2" unicode="&#xf7e2;" horiz-adv-x="1175" 
d="M594 1507l291 -233l-51 -66l-244 197l-248 -195l-53 64l297 233h8zM584 944l-230 -498h459zM35 0l506 1083h94l506 -1083h-121l-158 342h-555l-157 -342h-115z" />
    <glyph glyph-name="uniF7E3" unicode="&#xf7e3;" horiz-adv-x="1175" 
d="M481 1419q49 0 118 -47t120 -47t141 78l39 -55q-109 -111 -201 -111q-46 0 -114 47q-68 48 -121 48t-141 -70l-48 51q106 106 207 106zM584 944l-230 -498h459zM35 0l506 1083h94l506 -1083h-121l-158 342h-555l-157 -342h-115z" />
    <glyph glyph-name="uniF7E4" unicode="&#xf7e4;" horiz-adv-x="1175" 
d="M702 1352q0 29 20 47t46 18q27 0 46 -18q20 -18 20 -47t-20 -47q-20 -19 -46 -19t-46 18t-20 48zM342 1352q0 29 19 47t47 18t46 -18q19 -18 19 -46t-19 -47q-19 -20 -46 -20q-26 0 -46 18t-20 48zM584 944l-230 -498h459zM35 0l506 1083h94l506 -1083h-121l-158 342
h-555l-157 -342h-115z" />
    <glyph glyph-name="uniF7E5" unicode="&#xf7e5;" horiz-adv-x="1175" 
d="M588 1497q-62 0 -104 -43t-42 -105q0 -63 42 -105t104 -42t103 42q42 42 42 104t-42 106q-42 43 -103 43zM371 1348q0 88 62 150q61 62 153 62t155 -62t63 -150t-62 -148q-64 -60 -155 -61q-91 0 -154 60q-62 61 -62 149zM584 944l-230 -498h459zM35 0l506 1083h94
l506 -1083h-121l-158 342h-555l-157 -342h-115z" />
    <glyph glyph-name="uniF7E6" unicode="&#xf7e6;" horiz-adv-x="1609" 
d="M821 455v458l-354 -458h354zM821 0v348h-440l-266 -348h-131l839 1075h647v-106h-536v-371h487v-106h-487v-386h555v-106h-668z" />
    <glyph glyph-name="uniF7E7" unicode="&#xf7e7;" horiz-adv-x="1095" 
d="M597 -346q68 0 109 25q40 26 39 69q0 96 -145 96h-12v146q-229 23 -365 169q-135 146 -135 380q0 235 155 393t416 158q213 0 355 -103l-53 -84q-127 80 -316 80t-313 -125q-124 -126 -125 -324q0 -198 130 -321q131 -123 327 -123t327 98l45 -86q-59 -55 -158 -87
t-206 -31h-23v-86q203 -6 203 -156q0 -70 -62 -114t-166 -44t-202 60l33 55q74 -45 142 -45z" />
    <glyph glyph-name="uniF7E8" unicode="&#xf7e8;" horiz-adv-x="985" 
d="M567 1204l-256 269l68 79l244 -290zM182 0v1075h664v-106h-551v-371h502v-106h-502v-386h567v-106h-680z" />
    <glyph glyph-name="uniF7E9" unicode="&#xf7e9;" horiz-adv-x="985" 
d="M735 1473l-256 -269l-55 58l246 290zM182 0v1075h664v-106h-551v-371h502v-106h-502v-386h567v-106h-680z" />
    <glyph glyph-name="uniF7EA" unicode="&#xf7ea;" horiz-adv-x="985" 
d="M524 1507l291 -233l-51 -66l-244 197l-248 -195l-53 64l297 233h8zM182 0v1075h664v-106h-551v-371h502v-106h-502v-386h567v-106h-680z" />
    <glyph glyph-name="uniF7EB" unicode="&#xf7eb;" horiz-adv-x="985" 
d="M625 1352q0 29 19 47t46 18t46 -18q20 -18 20 -47t-20 -47q-20 -19 -46 -19q-27 0 -46 18t-19 48zM264 1352q0 29 20 47t46 18q27 0 46 -18t19 -46t-19 -47q-19 -20 -46 -20q-26 0 -46 18t-20 48zM182 0v1075h664v-106h-551v-371h502v-106h-502v-386h567v-106h-680z" />
    <glyph glyph-name="uniF7EC" unicode="&#xf7ec;" horiz-adv-x="548" 
d="M313 1204l-256 269l68 79l244 -290zM217 0v1075h113v-1075h-113z" />
    <glyph glyph-name="uniF7ED" unicode="&#xf7ed;" horiz-adv-x="548" 
d="M514 1473l-256 -269l-55 58l246 290zM217 0v1075h113v-1075h-113z" />
    <glyph glyph-name="uniF7EE" unicode="&#xf7ee;" horiz-adv-x="548" 
d="M283 1507l290 -233l-51 -66l-243 197l-248 -195l-54 64l297 233h9zM217 0v1075h113v-1075h-113z" />
    <glyph glyph-name="uniF7EF" unicode="&#xf7ef;" horiz-adv-x="548" 
d="M389 1352q-1 29 19 47t47 18t46 -18t19 -47t-18 -47q-18 -19 -46 -19t-48 18t-19 48zM29 1352q0 29 19 47t46 18t46 -18q20 -18 20 -46t-20 -47q-20 -20 -46 -20q-27 0 -46 18t-19 48zM217 0v1075h113v-1075h-113z" />
    <glyph glyph-name="uniF7F0" unicode="&#xf7f0;" horiz-adv-x="1263" 
d="M532 973q-6 0 -208 -6v-367h325v-100h-325v-394l194 -4q258 0 398 125t140 319t-131 311q-133 116 -393 116zM211 0v500h-195v100h195v475h20l301 4q322 1 483 -149t161 -384t-171 -392t-481 -158l-297 4h-16z" />
    <glyph glyph-name="uniF7F1" unicode="&#xf7f1;" horiz-adv-x="1331" 
d="M551 1419q49 0 118 -47t119 -47t142 78l39 -55q-109 -111 -201 -111q-45 0 -114 47q-69 48 -122 48t-141 -70l-47 51q106 106 207 106zM1149 0h-90l-770 889v-889h-107v1075h90l770 -891v891h107v-1075z" />
    <glyph glyph-name="uniF7F2" unicode="&#xf7f2;" horiz-adv-x="1331" 
d="M698 1204l-256 269l68 79l244 -290zM1124 537q0 193 -132 319t-328 127q-196 -1 -326 -127q-131 -126 -131 -318t132 -320t331 -128q198 0 326 127t128 320zM88 534q0 240 164 398t413 158t413 -156t165 -396q0 -240 -165 -397q-166 -157 -414 -157t-412 156t-164 394z
" />
    <glyph glyph-name="uniF7F3" unicode="&#xf7f3;" horiz-adv-x="1331" 
d="M891 1473l-256 -269l-55 58l245 290zM1124 537q0 193 -132 319t-328 127q-196 -1 -326 -127q-131 -126 -131 -318t132 -320t331 -128q198 0 326 127t128 320zM88 534q0 240 164 398t413 158t413 -156t165 -396q0 -240 -165 -397q-166 -157 -414 -157t-412 156t-164 394z
" />
    <glyph glyph-name="uniF7F4" unicode="&#xf7f4;" horiz-adv-x="1331" 
d="M674 1507l291 -233l-52 -66l-243 197l-248 -195l-53 64l297 233h8zM1124 537q0 193 -132 319t-328 127q-196 -1 -326 -127q-131 -126 -131 -318t132 -320t331 -128q198 0 326 127t128 320zM88 534q0 240 164 398t413 158t413 -156t165 -396q0 -240 -165 -397
q-166 -157 -414 -157t-412 156t-164 394z" />
    <glyph glyph-name="uniF7F5" unicode="&#xf7f5;" horiz-adv-x="1331" 
d="M561 1419q49 0 118 -47t119 -47t142 78l39 -55q-109 -111 -201 -111q-46 0 -114 47q-68 48 -122 48t-141 -70l-47 51q106 106 207 106zM1124 537q0 193 -132 319t-328 127q-196 -1 -326 -127q-131 -126 -131 -318t132 -320t331 -128q198 0 326 127t128 320zM88 534
q0 240 164 398t413 158t413 -156t165 -396q0 -240 -165 -397q-166 -157 -414 -157t-412 156t-164 394z" />
    <glyph glyph-name="uniF7F6" unicode="&#xf7f6;" horiz-adv-x="1331" 
d="M782 1352q0 29 20 47t46 18q27 0 46 -18t19 -47t-18 -47q-18 -19 -46 -19q-27 0 -47 18t-20 48zM422 1352q0 29 19 47t46 18t47 -18t19 -46q0 -28 -19 -47q-18 -20 -46 -20t-47 18t-19 48zM1124 537q0 193 -132 319t-328 127q-196 -1 -326 -127q-131 -126 -131 -318
t132 -320t331 -128q198 0 326 127t128 320zM88 534q0 240 164 398t413 158t413 -156t165 -396q0 -240 -165 -397q-166 -157 -414 -157t-412 156t-164 394z" />
    <glyph glyph-name="uniF7F8" unicode="&#xf7f8;" horiz-adv-x="1331" 
d="M1124 537q0 156 -90 272l-647 -631q121 -88 279 -88q202 0 330 127t128 320zM656 983q-186 -1 -318 -127q-131 -126 -131 -310t115 -310l651 636q-131 111 -317 111zM88 540q0 232 164 392q164 158 404 158t399 -136l121 117l61 -63l-119 -117q125 -147 125 -369
t-165 -381q-165 -158 -412 -157q-211 0 -363 112l-115 -112l-61 63l109 107q-148 154 -148 386z" />
    <glyph glyph-name="uniF7F9" unicode="&#xf7f9;" horiz-adv-x="1255" 
d="M657 1204l-256 269l68 79l244 -290zM1090 1075v-626q0 -231 -127 -347t-330 -116t-336 123t-133 350v616h112v-594q0 -182 98 -285q98 -104 262 -104q163 0 252 96t89 285v602h113z" />
    <glyph glyph-name="uniF7FA" unicode="&#xf7fa;" horiz-adv-x="1255" 
d="M842 1473l-256 -269l-56 58l246 290zM1090 1075v-626q0 -231 -127 -347t-330 -116t-336 123t-133 350v616h112v-594q0 -182 98 -285q98 -104 262 -104q163 0 252 96t89 285v602h113z" />
    </font>
</defs>
</svg>
